<svg width="56" height="64" viewBox="0 0 56 64" fill="none" xmlns="http://www.w3.org/2000/svg">
<g filter="url(#filter0_ddd_1344_8239)">
<rect width="56" height="56" rx="16" fill="white"/>
<line opacity="0.4" x1="10.3359" y1="45.8828" x2="45.6641" y2="45.8828" stroke="#CACACA" stroke-width="0.328125"/>
<line opacity="0.6" x1="10.3359" y1="39.8672" x2="45.6641" y2="39.8672" stroke="#CACACA" stroke-width="0.328125"/>
<line opacity="0.8" x1="10.3359" y1="33.8516" x2="45.6641" y2="33.8516" stroke="#CACACA" stroke-width="0.328125"/>
<line x1="10.3369" y1="27.8359" x2="45.6651" y2="27.8359" stroke="#CACACA" stroke-width="0.328125"/>
<line opacity="0.8" x1="10.3369" y1="21.8203" x2="45.6651" y2="21.8203" stroke="#CACACA" stroke-width="0.328125"/>
<line opacity="0.6" x1="10.3359" y1="15.8047" x2="45.6641" y2="15.8047" stroke="#CACACA" stroke-width="0.328125"/>
<line opacity="0.4" x1="10.3359" y1="9.78906" x2="45.6641" y2="9.78906" stroke="#CACACA" stroke-width="0.328125"/>
<g clip-path="url(#clip0_1344_8239)">
<path d="M14.8709 28.2326C18.0393 27.8435 19.6752 26.3356 19.4141 24.2089C19.2453 22.8345 18.1694 22.0854 16.4825 22.1016L16.4754 22.0438C17.561 21.6755 18.4997 20.7085 18.3291 19.3196C18.0769 17.2652 15.9377 16.5879 13.4782 16.8899C11.6842 17.1102 10.1258 17.933 9.70921 19.0856C9.59651 19.3638 9.57239 19.6458 9.6097 19.9496C9.70562 20.7309 10.3229 21.2131 11.2488 21.0994C11.8275 21.0284 12.0793 20.8066 12.4146 20.4276C12.9312 19.8502 13.3654 19.6794 13.8139 19.6243C14.3348 19.5604 14.8442 19.7622 14.9099 20.2975C14.9756 20.8328 14.57 21.1175 13.7073 21.2675C12.8428 21.403 12.4098 21.8234 12.5128 22.6625C12.6105 23.4582 13.1197 23.7775 14.0075 23.7126C14.9243 23.6441 15.4012 23.8205 15.4814 24.354C15.5418 24.8459 15.1179 25.221 14.5103 25.2956C13.7001 25.3951 13.0575 24.9453 12.6041 24.722C12.3062 24.5676 11.981 24.4313 11.4891 24.4917C10.5198 24.6107 9.93624 25.2405 10.0482 26.1519C10.089 26.4847 10.2276 26.7761 10.4512 27.0423C11.2139 27.9914 12.9322 28.4706 14.8709 28.2326ZM20.6031 43.5803C23.0915 43.2748 24.3545 41.9595 24.6972 39.8468L27.9204 20.1686L29.6131 19.9607C31.0165 19.7884 31.7744 18.7848 31.6003 17.367C31.428 15.9636 30.4498 15.1732 29.0464 15.3455L26.6593 15.6386C24.3734 15.9193 23.3131 17.0922 22.9425 19.5755L20.1298 38.4103L19.8694 38.4423L16.9402 32.7661C16.3442 31.6203 15.5483 30.9984 14.1883 31.1654C12.7271 31.3448 11.8245 32.3662 11.9879 33.6972C12.0519 34.2181 12.2047 34.6252 12.5252 35.2026L15.6966 40.9372C16.7735 42.8904 18.1725 43.8788 20.6031 43.5803Z" fill="#373737"/>
<path d="M34.5022 36.1948C35.5873 36.0616 36.0818 35.6631 36.841 34.0719L38.6881 30.2178L38.8038 30.2035L41.6927 33.6378C42.5511 34.6485 43.1105 35.1379 44.3403 34.9869C45.9462 34.7897 47.0551 33.6549 46.8508 31.9911C46.7691 31.3256 46.4811 30.7735 45.9435 30.2227L42.498 26.6806L44.8497 22.7498C45.4122 21.829 45.5726 21.2218 45.4785 20.455C45.2902 18.9215 44.0987 18.0691 42.435 18.2734C41.292 18.4138 40.7321 18.9965 40.0599 20.4595L38.4159 24.0538L38.3001 24.068L35.8354 20.9782C34.795 19.6814 34.1016 19.2966 32.814 19.4547C31.2081 19.6519 30.144 20.9134 30.3288 22.418C30.4176 23.1414 30.6912 23.6952 31.1963 24.2206L34.6418 27.7627L32.1812 31.8832C31.6332 32.8022 31.4692 33.3804 31.5633 34.1472C31.7374 35.565 32.9397 36.3867 34.5022 36.1948Z" fill="#5856D6"/>
</g>
<rect x="0.583333" y="0.583333" width="54.8333" height="54.8333" rx="15.4167" stroke="#CAC6DD" stroke-width="1.16667"/>
</g>
<defs>
<filter id="filter0_ddd_1344_8239" x="0" y="0" width="56" height="64" filterUnits="userSpaceOnUse" color-interpolation-filters="sRGB">
<feFlood flood-opacity="0" result="BackgroundImageFix"/>
<feColorMatrix in="SourceAlpha" type="matrix" values="0 0 0 0 0 0 0 0 0 0 0 0 0 0 0 0 0 0 127 0" result="hardAlpha"/>
<feOffset dy="4"/>
<feComposite in2="hardAlpha" operator="out"/>
<feColorMatrix type="matrix" values="0 0 0 0 0.145861 0 0 0 0 0.133368 0 0 0 0 0.191667 0 0 0 1 0"/>
<feBlend mode="normal" in2="BackgroundImageFix" result="effect1_dropShadow_1344_8239"/>
<feColorMatrix in="SourceAlpha" type="matrix" values="0 0 0 0 0 0 0 0 0 0 0 0 0 0 0 0 0 0 127 0" result="hardAlpha"/>
<feOffset dy="6"/>
<feComposite in2="hardAlpha" operator="out"/>
<feColorMatrix type="matrix" values="0 0 0 0 0.145098 0 0 0 0 0.133333 0 0 0 0 0.192157 0 0 0 1 0"/>
<feBlend mode="normal" in2="effect1_dropShadow_1344_8239" result="effect2_dropShadow_1344_8239"/>
<feColorMatrix in="SourceAlpha" type="matrix" values="0 0 0 0 0 0 0 0 0 0 0 0 0 0 0 0 0 0 127 0" result="hardAlpha"/>
<feOffset dy="8"/>
<feComposite in2="hardAlpha" operator="out"/>
<feColorMatrix type="matrix" values="0 0 0 0 0.145098 0 0 0 0 0.133333 0 0 0 0 0.192157 0 0 0 1 0"/>
<feBlend mode="normal" in2="effect2_dropShadow_1344_8239" result="effect3_dropShadow_1344_8239"/>
<feBlend mode="normal" in="SourceGraphic" in2="effect3_dropShadow_1344_8239" result="shape"/>
</filter>
<clipPath id="clip0_1344_8239">
<rect width="39.1563" height="29.9141" fill="white" transform="translate(8.42188 14.7109)"/>
</clipPath>
</defs>
</svg>
