<svg width="41" height="40" viewBox="0 0 41 40" fill="none" xmlns="http://www.w3.org/2000/svg">
<g id="icon_line/user_circle_1">
<path id="Rectangle 14 (Stroke)" fill-rule="evenodd" clip-rule="evenodd" d="M3.83334 19.9997C3.83334 10.7949 11.2953 3.33301 20.5 3.33301C29.7048 3.33301 37.1667 10.7949 37.1667 19.9997C37.1667 29.2044 29.7048 36.6663 20.5 36.6663C11.2953 36.6663 3.83334 29.2044 3.83334 19.9997ZM20.5 6.66634C13.1362 6.66634 7.16668 12.6359 7.16668 19.9997C7.16668 27.3635 13.1362 33.333 20.5 33.333C27.8638 33.333 33.8333 27.3635 33.8333 19.9997C33.8333 12.6359 27.8638 6.66634 20.5 6.66634Z" fill="#5E5CE6"/>
<path id="Ellipse 11 (Stroke)" fill-rule="evenodd" clip-rule="evenodd" d="M20.5 13.3333C18.6591 13.3333 17.1667 14.8257 17.1667 16.6667C17.1667 18.5076 18.6591 20 20.5 20C22.341 20 23.8333 18.5076 23.8333 16.6667C23.8333 14.8257 22.341 13.3333 20.5 13.3333ZM13.8333 16.6667C13.8333 12.9848 16.8181 10 20.5 10C24.1819 10 27.1667 12.9848 27.1667 16.6667C27.1667 20.3486 24.1819 23.3333 20.5 23.3333C16.8181 23.3333 13.8333 20.3486 13.8333 16.6667Z" fill="#5E5CE6"/>
<path id="Ellipse 12 (Stroke)" fill-rule="evenodd" clip-rule="evenodd" d="M20.5 28.3333C17.0157 28.3333 13.8898 29.8587 11.7496 32.2835L9.25043 30.0777C11.9965 26.9664 16.0197 25 20.5 25C24.9803 25 29.0035 26.9664 31.7496 30.0777L29.2504 32.2835C27.1102 29.8587 23.9843 28.3333 20.5 28.3333Z" fill="#5E5CE6"/>
</g>
</svg>
