<svg width="41" height="40" viewBox="0 0 41 40" fill="none" xmlns="http://www.w3.org/2000/svg">
<g id="icon_line/Calendar_check">
<path id="Vector (Stroke)" fill-rule="evenodd" clip-rule="evenodd" d="M13.8333 3.33301C14.7538 3.33301 15.5 4.0792 15.5 4.99967H28.8333C33.4357 4.99967 37.1667 8.73064 37.1667 13.333V28.333C37.1667 32.9354 33.4357 36.6663 28.8333 36.6663H12.1667C7.56429 36.6663 3.83333 32.9354 3.83333 28.333V13.333C3.83333 8.73064 7.56429 4.99967 12.1667 4.99967C12.1667 4.0792 12.9129 3.33301 13.8333 3.33301ZM12.1667 8.33301C9.40524 8.33301 7.16667 10.5716 7.16667 13.333V28.333C7.16667 31.0944 9.40524 33.333 12.1667 33.333H28.8333C31.5948 33.333 33.8333 31.0944 33.8333 28.333V13.333C33.8333 10.5716 31.5948 8.33301 28.8333 8.33301H15.5V9.99967C15.5 10.9201 14.7538 11.6663 13.8333 11.6663C12.9129 11.6663 12.1667 10.9201 12.1667 9.99967V8.33301Z" fill="#FF98E2"/>
<path id="Vector 9 (Stroke)" fill-rule="evenodd" clip-rule="evenodd" d="M27.1667 3.33301C28.0871 3.33301 28.8333 4.0792 28.8333 4.99967V9.99967C28.8333 10.9201 28.0871 11.6663 27.1667 11.6663C26.2462 11.6663 25.5 10.9201 25.5 9.99967V4.99967C25.5 4.0792 26.2462 3.33301 27.1667 3.33301Z" fill="#FF98E2"/>
<path id="Vector (Stroke)_2" fill-rule="evenodd" clip-rule="evenodd" d="M26.6399 17.1178C27.3114 17.7473 27.3454 18.802 26.7159 19.4736L20.4659 26.1402C19.8688 26.7771 18.8815 26.8453 18.2025 26.2967L14.4525 23.2664C13.7365 22.6878 13.6251 21.6384 14.2037 20.9225C14.7822 20.2066 15.8316 20.0952 16.5475 20.6737L19.0932 22.7308L24.2841 17.1938C24.9137 16.5222 25.9684 16.4882 26.6399 17.1178Z" fill="#FF98E2"/>
</g>
</svg>
