<svg width="41" height="40" viewBox="0 0 41 40" fill="none" xmlns="http://www.w3.org/2000/svg">
<g id="icon_line/Message 2">
<path id="Vector (Stroke)" fill-rule="evenodd" clip-rule="evenodd" d="M20.5 6.66634C13.1362 6.66634 7.16666 12.6359 7.16666 19.9997C7.16666 22.8199 8.04041 25.4311 9.53194 27.5836C10.0255 28.2959 10.1445 29.247 9.75355 30.0883L8.24548 33.333H20.5C27.8638 33.333 33.8333 27.3635 33.8333 19.9997C33.8333 12.6359 27.8638 6.66634 20.5 6.66634ZM3.83333 19.9997C3.83333 10.7949 11.2952 3.33301 20.5 3.33301C29.7047 3.33301 37.1667 10.7949 37.1667 19.9997C37.1667 29.2044 29.7047 36.6663 20.5 36.6663H6.93598C5.0456 36.6663 3.84976 34.6552 4.72342 33.0023L6.53625 29.1018C4.82701 26.4844 3.83333 23.3558 3.83333 19.9997Z" fill="#FFC876"/>
<g id="Group 33490">
<path id="Vector 5 (Stroke)" fill-rule="evenodd" clip-rule="evenodd" d="M13.8333 23.3337C13.8333 22.4132 14.5795 21.667 15.5 21.667H25.5C26.4205 21.667 27.1667 22.4132 27.1667 23.3337C27.1667 24.2541 26.4205 25.0003 25.5 25.0003H15.5C14.5795 25.0003 13.8333 24.2541 13.8333 23.3337Z" fill="#FFC876"/>
</g>
<g id="Group 33491">
<path id="Vector 5 (Stroke)_2" fill-rule="evenodd" clip-rule="evenodd" d="M13.8333 16.6667C13.8333 15.7462 14.5795 15 15.5 15H18.8333C19.7538 15 20.5 15.7462 20.5 16.6667C20.5 17.5871 19.7538 18.3333 18.8333 18.3333H15.5C14.5795 18.3333 13.8333 17.5871 13.8333 16.6667Z" fill="#FFC876"/>
</g>
</g>
</svg>
