<svg width="88" height="154" viewBox="0 0 88 154" fill="none" xmlns="http://www.w3.org/2000/svg">
<path d="M50.4393 3.92821C54.3119 7.57824 55.0078 13.3105 55.0078 13.3105C55.0078 13.3105 49.4248 13.1182 45.5522 9.46814C41.6791 5.8133 40.9832 0.0857964 40.9832 0.0857964C40.9832 0.0857964 46.5658 0.273366 50.4393 3.92821Z" fill="#5E5CE6"/>
<path d="M23.2075 138.482C19.8736 142.904 19.6726 148.126 19.7178 148.142C19.7043 148.208 26.7131 146.182 29.8581 141.305C33.0046 136.49 31.4723 131.499 31.5184 131.513C31.5002 131.561 26.5373 134.101 23.2075 138.482Z" fill="#5E5CE6"/>
<path d="M28.1165 153.796C21.965 152.716 19.6703 147.907 19.6717 147.95C19.7438 147.973 26.3358 146.007 32.0156 146.698C37.7521 147.419 41.1219 151.102 41.1223 151.142C41.2033 151.161 34.3354 154.901 28.1165 153.796Z" fill="#5E5CE6"/>
<path d="M35.3687 132.958C33.0773 137.807 33.9002 142.878 33.9425 142.887C33.9369 142.954 40.0973 139.792 42.1719 134.528C44.2531 129.324 41.8854 124.762 41.9287 124.768C41.918 124.818 37.6611 128.15 35.3687 132.958Z" fill="#5E5CE6"/>
<path d="M42.881 146.894C36.9007 146.914 33.8575 142.666 33.8626 142.708C33.9296 142.719 39.7076 139.686 45.2217 139.362C50.7894 139.059 54.6899 142.029 54.6946 142.068C54.7713 142.073 48.925 146.89 42.881 146.894Z" fill="#5E5CE6"/>
<path d="M45.8674 125.486C44.5672 130.584 46.2991 135.34 46.3382 135.342C46.3405 135.409 51.6165 131.273 52.6715 125.803C53.7391 120.391 50.6564 116.384 50.6964 116.384C50.6936 116.434 47.1741 120.429 45.8674 125.486Z" fill="#5E5CE6"/>
<path d="M55.5927 137.651C49.8841 138.72 46.2185 135.143 46.2278 135.184C46.2897 135.184 51.222 131.237 56.4696 129.945C61.7684 128.665 66.068 130.848 66.0774 130.885C66.1481 130.879 61.3614 136.586 55.5927 137.651Z" fill="#5E5CE6"/>
<path d="M54.63 116.377C54.2662 121.558 56.7889 125.857 56.8256 125.853C56.8358 125.918 61.1917 120.969 61.281 115.461C61.3885 110.009 57.7141 106.664 57.7518 106.657C57.756 106.708 55.0054 111.234 54.63 116.377Z" fill="#5E5CE6"/>
<path d="M66.1721 126.443C60.8393 128.5 56.6811 125.682 56.6942 125.72C56.7505 125.71 60.8063 121.005 65.6851 118.804C70.6113 116.607 75.1746 117.952 75.1886 117.986C75.2537 117.969 71.563 124.382 66.1721 126.443Z" fill="#5E5CE6"/>
<path d="M61.5843 105.937C62.1007 111.049 65.2927 114.772 65.3262 114.761C65.3439 114.824 68.7434 109.223 67.9233 103.833C67.126 98.4948 62.9882 95.8965 63.0227 95.884C63.0348 95.9325 61.0843 100.86 61.5843 105.937Z" fill="#5E5CE6"/>
<path d="M74.5284 113.643C69.6757 116.61 65.1565 114.618 65.1747 114.654C65.2254 114.634 68.3728 109.326 72.7784 106.288C77.2283 103.246 81.9168 103.723 81.9345 103.755C81.995 103.727 79.4356 110.661 74.5284 113.643Z" fill="#5E5CE6"/>
<path d="M66.6571 94.4734C67.9954 99.3776 71.7322 102.425 71.7624 102.41C71.788 102.468 74.1953 96.3787 72.5221 91.248C70.8791 86.1644 66.4087 84.376 66.4399 84.3582C66.4599 84.4044 65.3411 89.6019 66.6571 94.4734Z" fill="#5E5CE6"/>
<path d="M80.5809 99.6361C76.3167 103.425 71.5737 102.304 71.5961 102.336C71.6412 102.309 73.848 96.5502 77.6741 92.7621C81.5401 88.9625 86.211 88.5614 86.2328 88.5908C86.2877 88.5537 84.8968 95.8245 80.5809 99.6361Z" fill="#5E5CE6"/>
<path d="M69.7713 82.304C71.8725 86.8739 76.0237 89.1688 76.0511 89.1491C76.0846 89.2029 77.4625 82.7868 74.9975 78.0451C72.5684 73.3448 67.8994 72.4065 67.9273 72.3844C67.9552 72.4272 67.6989 77.7628 69.7713 82.304Z" fill="#5E5CE6"/>
<path d="M84.2417 84.7956C80.6743 89.3036 75.8481 89.0761 75.8751 89.1045C75.9141 89.0708 77.1501 83.0158 80.2868 78.5766C83.4607 74.1197 87.9673 72.8539 87.9943 72.8794C88.0431 72.8347 87.8571 80.2569 84.2417 84.7956Z" fill="#5E5CE6"/>
<path d="M70.8555 69.7348C73.6564 73.8566 78.0909 75.3436 78.1151 75.32C78.1574 75.3681 78.4691 68.7875 75.2738 64.5507C72.1203 60.3477 67.3914 60.2804 67.416 60.2563C67.4523 60.2948 68.0905 65.6376 70.8555 69.7348Z" fill="#5E5CE6"/>
<path d="M85.4285 69.5037C82.6695 74.6166 77.9043 75.285 77.9359 75.3086C77.9685 75.2692 78.2011 69.0708 80.5381 64.0935C82.9087 59.0922 87.1022 56.9955 87.1334 57.0195C87.1762 56.9666 88.2321 64.358 85.4285 69.5037Z" fill="#5E5CE6"/>
<path d="M69.8362 57.0813C73.2711 60.6544 77.854 61.2988 77.8745 61.2748C77.9257 61.3132 77.1349 54.7345 73.2739 51.1037C69.4604 47.5066 64.8124 48.3048 64.8333 48.276C64.8779 48.3097 66.4423 53.5226 69.8362 57.0813Z" fill="#5E5CE6"/>
<path d="M84.0552 54.1488C82.2192 59.732 77.6609 61.2757 77.6976 61.2949C77.7237 61.2516 76.9217 55.0673 78.3456 49.6764C79.7993 44.2567 83.5268 41.3857 83.5631 41.4049C83.5993 41.3472 85.9327 48.5174 84.0552 54.1488Z" fill="#5E5CE6"/>
<path d="M66.6362 44.6562C70.639 47.5993 75.2312 47.3877 75.2485 47.3588C75.308 47.3925 73.3784 40.9773 68.9169 38.0438C64.5103 35.1343 60.0884 36.7839 60.1061 36.7502C60.1586 36.7742 62.6803 41.7323 66.6362 44.6562Z" fill="#5E5CE6"/>
<path d="M80.036 39.1061C79.2373 45.0211 75.0372 47.4016 75.0786 47.416C75.0981 47.3679 73.2309 41.3471 73.6258 35.6821C74.0478 29.9834 77.1519 26.4199 77.1928 26.4295C77.2235 26.367 80.8714 33.1381 80.036 39.1061Z" fill="#5E5CE6"/>
<path d="M61.1834 32.7811C65.6858 35.0125 70.1441 33.9593 70.1571 33.9257C70.2259 33.9497 67.1213 27.8615 62.1281 25.7071C57.1959 23.5622 53.1484 26.01 53.1624 25.9764C53.2242 25.9908 56.7349 30.5546 61.1834 32.7811Z" fill="#5E5CE6"/>
<path d="M73.2861 24.765C73.6438 30.858 69.9564 34.0079 70.0024 34.0127C70.0159 33.9646 67.0504 28.2611 66.3001 22.4759C65.5716 16.6522 67.8929 12.4924 67.9394 12.4972C67.9626 12.4299 72.9614 18.6143 73.2861 24.765Z" fill="#5E5CE6"/>
<path d="M53.402 21.7695C58.3324 23.2314 62.5106 21.3607 62.5204 21.327C62.598 21.3415 58.2812 15.7486 52.8266 14.4309C47.4403 13.1181 43.9194 16.2968 43.9291 16.2583C44.0003 16.268 48.5311 20.3075 53.402 21.7695Z" fill="#5E5CE6"/>
<path d="M63.7175 11.508C65.3516 17.6106 62.3336 21.4434 62.3852 21.4434C62.3913 21.3953 58.2968 16.1631 56.2816 10.4212C54.2837 4.64075 55.6578 0.00487137 55.7099 6.10352e-05C55.7267 -0.0672646 62.1117 5.34766 63.7175 11.508Z" fill="#5E5CE6"/>
<path d="M1.52588e-05 149.745L0.0976868 148.627C9.06069 149.465 17.9962 148.433 26.6559 145.558C35.0924 142.758 42.9041 138.336 49.8734 132.415C64.3361 120.13 73.662 102.599 76.1353 83.0501C78.1602 67.0414 77.1215 52.7779 73.0475 40.6544C68.673 27.6316 60.8822 17.4414 49.8915 10.3674L50.466 9.41518C61.6725 16.6287 69.6154 27.0161 74.0737 40.2842C78.2035 52.576 79.2599 67.0126 77.2127 83.1958C74.7035 103.028 65.2395 120.816 50.5632 133.283C43.4874 139.294 35.5557 143.783 26.9881 146.628C18.1889 149.549 9.10909 150.598 1.52588e-05 149.745Z" fill="#5E5CE6"/>
</svg>
