<svg width="167" height="175" viewBox="0 0 167 175" fill="none" xmlns="http://www.w3.org/2000/svg">
<g filter="url(#filter0_ddd_1315_10508)">
<rect width="167" height="167" rx="44" fill="white"/>
<line opacity="0.4" x1="31.3232" y1="137.329" x2="136.677" y2="137.329" stroke="#CACACA" stroke-width="0.978516"/>
<line opacity="0.6" x1="31.3239" y1="119.39" x2="136.678" y2="119.39" stroke="#CACACA" stroke-width="0.978516"/>
<line opacity="0.8" x1="31.3243" y1="101.45" x2="136.678" y2="101.45" stroke="#CACACA" stroke-width="0.978516"/>
<line x1="31.325" y1="83.5107" x2="136.679" y2="83.5107" stroke="#CACACA" stroke-width="0.978516"/>
<line opacity="0.8" x1="31.325" y1="65.5713" x2="136.679" y2="65.5713" stroke="#CACACA" stroke-width="0.978516"/>
<line opacity="0.6" x1="31.3232" y1="47.6318" x2="136.677" y2="47.6318" stroke="#CACACA" stroke-width="0.978516"/>
<line opacity="0.4" x1="31.3232" y1="29.6924" x2="136.677" y2="29.6924" stroke="#CACACA" stroke-width="0.978516"/>
<g clip-path="url(#clip0_1315_10508)">
<path d="M44.8469 84.693C54.2955 83.5329 59.174 79.0361 58.3953 72.6939C57.892 68.5951 54.6835 66.3614 49.653 66.4097L49.6318 66.2371C52.8692 65.1389 55.6683 62.2551 55.1598 58.1132C54.4075 51.9866 48.0282 49.967 40.6936 50.8676C35.3437 51.5245 30.6961 53.9783 29.4539 57.4155C29.1179 58.2451 29.0459 59.086 29.1572 59.9921C29.4432 62.3219 31.284 63.7601 34.0453 63.421C35.7711 63.2091 36.522 62.5476 37.5219 61.4175C39.0623 59.6956 40.3574 59.1862 41.6949 59.022C43.2481 58.8312 44.7672 59.433 44.9632 61.0294C45.1592 62.6257 43.9496 63.475 41.3768 63.9223C38.7988 64.3264 37.5074 65.5798 37.8147 68.0822C38.106 70.4552 39.6244 71.4074 42.2721 71.2137C45.0061 71.0094 46.4284 71.5355 46.6675 73.1266C46.8476 74.5935 45.5836 75.7122 43.7715 75.9347C41.3554 76.2313 39.4389 74.89 38.087 74.2239C37.1984 73.7637 36.2288 73.3572 34.7619 73.5373C31.8712 73.8922 30.131 75.7701 30.4647 78.4882C30.5866 79.4806 30.9998 80.3495 31.6667 81.1435C33.9412 83.9737 39.0655 85.4029 44.8469 84.693ZM61.9409 130.462C69.3618 129.551 73.1284 125.629 74.1503 119.328L83.7623 60.645L88.8102 60.0252C92.9952 59.5113 95.2555 56.5185 94.7363 52.2903C94.2225 48.1053 91.3053 45.7482 87.1203 46.262L80.0014 47.1361C73.1846 47.9731 70.0228 51.4708 68.9176 58.8765L60.5296 115.044L59.753 115.14L51.0178 98.2126C49.2406 94.7958 46.8669 92.9413 42.8113 93.4392C38.4537 93.9743 35.762 97.0201 36.2494 100.989C36.4401 102.543 36.8957 103.757 37.8517 105.479L47.3091 122.58C50.5205 128.405 54.6926 131.352 61.9409 130.462Z" fill="#373737"/>
<path d="M103.391 108.438C106.626 108.04 108.101 106.852 110.365 102.107L115.873 90.6132L116.219 90.5708L124.834 100.812C127.393 103.826 129.062 105.286 132.729 104.835C137.518 104.247 140.825 100.863 140.216 95.9016C139.972 93.9169 139.113 92.2706 137.51 90.628L127.235 80.065L134.248 68.3427C135.926 65.5966 136.404 63.7861 136.123 61.4994C135.562 56.9261 132.009 54.3842 127.047 54.9934C123.639 55.412 121.969 57.1498 119.964 61.5127L115.062 72.2313L114.716 72.2737L107.366 63.0595C104.264 59.1923 102.196 58.0448 98.3559 58.5163C93.5669 59.1043 90.3938 62.8661 90.9447 67.3532C91.2096 69.5104 92.0255 71.162 93.5317 72.7289L103.807 83.292L96.4689 95.5797C94.8346 98.3205 94.3456 100.045 94.6264 102.331C95.1455 106.56 98.731 109.01 103.391 108.438Z" fill="#5856D6"/>
</g>
<rect x="1.5" y="1.5" width="164" height="164" rx="42.5" stroke="#CAC6DD" stroke-width="3"/>
</g>
<defs>
<filter id="filter0_ddd_1315_10508" x="0" y="0" width="167" height="175" filterUnits="userSpaceOnUse" color-interpolation-filters="sRGB">
<feFlood flood-opacity="0" result="BackgroundImageFix"/>
<feColorMatrix in="SourceAlpha" type="matrix" values="0 0 0 0 0 0 0 0 0 0 0 0 0 0 0 0 0 0 127 0" result="hardAlpha"/>
<feOffset dy="4"/>
<feComposite in2="hardAlpha" operator="out"/>
<feColorMatrix type="matrix" values="0 0 0 0 0.145861 0 0 0 0 0.133368 0 0 0 0 0.191667 0 0 0 1 0"/>
<feBlend mode="normal" in2="BackgroundImageFix" result="effect1_dropShadow_1315_10508"/>
<feColorMatrix in="SourceAlpha" type="matrix" values="0 0 0 0 0 0 0 0 0 0 0 0 0 0 0 0 0 0 127 0" result="hardAlpha"/>
<feOffset dy="6"/>
<feComposite in2="hardAlpha" operator="out"/>
<feColorMatrix type="matrix" values="0 0 0 0 0.145098 0 0 0 0 0.133333 0 0 0 0 0.192157 0 0 0 1 0"/>
<feBlend mode="normal" in2="effect1_dropShadow_1315_10508" result="effect2_dropShadow_1315_10508"/>
<feColorMatrix in="SourceAlpha" type="matrix" values="0 0 0 0 0 0 0 0 0 0 0 0 0 0 0 0 0 0 127 0" result="hardAlpha"/>
<feOffset dy="8"/>
<feComposite in2="hardAlpha" operator="out"/>
<feColorMatrix type="matrix" values="0 0 0 0 0.145098 0 0 0 0 0.133333 0 0 0 0 0.192157 0 0 0 1 0"/>
<feBlend mode="normal" in2="effect2_dropShadow_1315_10508" result="effect3_dropShadow_1315_10508"/>
<feBlend mode="normal" in="SourceGraphic" in2="effect3_dropShadow_1315_10508" result="shape"/>
</filter>
<clipPath id="clip0_1315_10508">
<rect width="116.77" height="89.208" fill="white" transform="translate(25.6154 44.3701)"/>
</clipPath>
</defs>
</svg>
