<svg width="132" height="131" viewBox="0 0 132 131" fill="none" xmlns="http://www.w3.org/2000/svg">
<g clip-path="url(#clip0_1258_5140)">
<path d="M19.2708 16.4228L16.8834 16.8438L17.3044 19.2312L19.6918 18.8102L19.2708 16.4228Z" fill="#0E0C15"/>
<path d="M19.6918 18.81L17.3044 19.231L17.7253 21.6184L20.1127 21.1974L19.6918 18.81Z" fill="#0E0C15"/>
<path d="M20.1127 21.1977L17.7253 21.6187L18.1463 24.0061L20.5337 23.5851L20.1127 21.1977Z" fill="#0E0C15"/>
<path d="M20.5337 23.5849L18.1463 24.0059L18.5673 26.3933L20.9547 25.9723L20.5337 23.5849Z" fill="#0E0C15"/>
<path d="M20.9547 25.9726L18.5673 26.3936L18.9882 28.781L21.3756 28.36L20.9547 25.9726Z" fill="#0E0C15"/>
<path d="M21.3756 28.3598L18.9882 28.7808L19.4092 31.1682L21.7966 30.7472L21.3756 28.3598Z" fill="#0E0C15"/>
<path d="M21.7966 30.7475L19.4092 31.1685L19.8301 33.5559L22.2176 33.1349L21.7966 30.7475Z" fill="#0E0C15"/>
<path d="M22.6385 35.5219L20.2511 35.9429L20.6721 38.3303L23.0595 37.9093L22.6385 35.5219Z" fill="#0E0C15"/>
<path d="M23.4805 40.2968L21.093 40.7178L21.514 43.1052L23.9014 42.6842L23.4805 40.2968Z" fill="#0E0C15"/>
<path d="M23.9014 42.6845L21.514 43.1055L21.935 45.4929L24.3224 45.0719L23.9014 42.6845Z" fill="#0E0C15"/>
<path d="M24.7434 47.4589L22.3559 47.8799L22.7769 50.2673L25.1643 49.8463L24.7434 47.4589Z" fill="#0E0C15"/>
<path d="M25.5853 52.2338L23.1979 52.6548L23.6188 55.0422L26.0063 54.6212L25.5853 52.2338Z" fill="#0E0C15"/>
<path d="M27.2691 61.7836L24.8817 62.2046L25.3027 64.592L27.6901 64.171L27.2691 61.7836Z" fill="#0E0C15"/>
<path d="M28.532 68.9457L26.1446 69.3667L26.5656 71.7541L28.953 71.3331L28.532 68.9457Z" fill="#0E0C15"/>
<path d="M28.953 71.3334L26.5656 71.7544L26.9866 74.1418L29.374 73.7208L28.953 71.3334Z" fill="#0E0C15"/>
<path d="M30.2159 78.4955L27.8285 78.9165L28.2495 81.3039L30.6369 80.8829L30.2159 78.4955Z" fill="#0E0C15"/>
<path d="M30.6369 80.8827L28.2495 81.3037L28.6704 83.6911L31.0578 83.2702L30.6369 80.8827Z" fill="#0E0C15"/>
<path d="M31.0578 83.2704L28.6704 83.6914L29.0914 86.0788L31.4788 85.6579L31.0578 83.2704Z" fill="#0E0C15"/>
<path d="M31.4788 85.6576L29.0914 86.0786L29.5124 88.466L31.8998 88.0451L31.4788 85.6576Z" fill="#0E0C15"/>
<path d="M31.8998 88.0453L29.5124 88.4663L29.9333 90.8537L32.3207 90.4328L31.8998 88.0453Z" fill="#0E0C15"/>
<path d="M32.3207 90.4326L29.9333 90.8535L30.3543 93.2409L32.7417 92.82L32.3207 90.4326Z" fill="#0E0C15"/>
<path d="M32.7417 92.8198L30.3543 93.2407L30.7752 95.6281L33.1627 95.2072L32.7417 92.8198Z" fill="#0E0C15"/>
<path d="M21.6583 16.0019L19.2709 16.4229L19.6918 18.8103L22.0792 18.3893L21.6583 16.0019Z" fill="#0E0C15"/>
<path d="M24.1841 30.3261L21.7966 30.7471L22.2176 33.1345L24.605 32.7135L24.1841 30.3261Z" fill="#0E0C15"/>
<path d="M25.026 35.101L22.6386 35.522L23.0595 37.9094L25.447 37.4884L25.026 35.101Z" fill="#0E0C15"/>
<path d="M25.447 37.4887L23.0595 37.9097L23.4805 40.2971L25.8679 39.8761L25.447 37.4887Z" fill="#0E0C15"/>
<path d="M26.2889 42.2631L23.9015 42.6841L24.3224 45.0715L26.7099 44.6505L26.2889 42.2631Z" fill="#0E0C15"/>
<path d="M26.7099 44.6508L24.3224 45.0718L24.7434 47.4592L27.1308 47.0382L26.7099 44.6508Z" fill="#0E0C15"/>
<path d="M27.1308 47.038L24.7434 47.459L25.1644 49.8464L27.5518 49.4254L27.1308 47.038Z" fill="#0E0C15"/>
<path d="M27.5518 49.4257L25.1644 49.8467L25.5853 52.2341L27.9728 51.8131L27.5518 49.4257Z" fill="#0E0C15"/>
<path d="M28.8147 56.5878L26.4273 57.0088L26.8482 59.3962L29.2356 58.9752L28.8147 56.5878Z" fill="#0E0C15"/>
<path d="M29.2356 58.975L26.8482 59.396L27.2692 61.7834L29.6566 61.3624L29.2356 58.975Z" fill="#0E0C15"/>
<path d="M29.6566 61.3627L27.2692 61.7837L27.6902 64.1711L30.0776 63.7501L29.6566 61.3627Z" fill="#0E0C15"/>
<path d="M30.9195 68.5248L28.5321 68.9458L28.9531 71.3332L31.3405 70.9122L30.9195 68.5248Z" fill="#0E0C15"/>
<path d="M31.7614 73.2997L29.374 73.7207L29.795 76.1081L32.1824 75.6871L31.7614 73.2997Z" fill="#0E0C15"/>
<path d="M32.6034 78.0746L30.216 78.4956L30.6369 80.883L33.0243 80.4621L32.6034 78.0746Z" fill="#0E0C15"/>
<path d="M35.1292 92.3989L32.7417 92.8198L33.1627 95.2072L35.5501 94.7863L35.1292 92.3989Z" fill="#0E0C15"/>
<path d="M24.0456 15.581L21.6582 16.002L22.0791 18.3894L24.4665 17.9684L24.0456 15.581Z" fill="#0E0C15"/>
<path d="M24.8875 20.3559L22.5001 20.7769L22.9211 23.1643L25.3085 22.7433L24.8875 20.3559Z" fill="#0E0C15"/>
<path d="M25.3085 22.7431L22.9211 23.1641L23.342 25.5515L25.7294 25.1305L25.3085 22.7431Z" fill="#0E0C15"/>
<path d="M25.7294 25.1303L23.342 25.5513L23.763 27.9387L26.1504 27.5177L25.7294 25.1303Z" fill="#0E0C15"/>
<path d="M26.5714 29.9052L24.184 30.3262L24.6049 32.7136L26.9923 32.2926L26.5714 29.9052Z" fill="#0E0C15"/>
<path d="M27.4133 34.6801L25.0259 35.1011L25.4469 37.4885L27.8343 37.0675L27.4133 34.6801Z" fill="#0E0C15"/>
<path d="M30.3601 51.392L27.9726 51.813L28.3936 54.2004L30.781 53.7794L30.3601 51.392Z" fill="#0E0C15"/>
<path d="M30.781 53.7792L28.3936 54.2002L28.8146 56.5876L31.202 56.1666L30.781 53.7792Z" fill="#0E0C15"/>
<path d="M31.202 56.1669L28.8146 56.5879L29.2355 58.9753L31.623 58.5543L31.202 56.1669Z" fill="#0E0C15"/>
<path d="M31.623 58.5541L29.2355 58.9751L29.6565 61.3625L32.0439 60.9415L31.623 58.5541Z" fill="#0E0C15"/>
<path d="M32.4649 63.329L30.0775 63.75L30.4984 66.1374L32.8859 65.7164L32.4649 63.329Z" fill="#0E0C15"/>
<path d="M33.3068 68.1039L30.9194 68.5249L31.3404 70.9123L33.7278 70.4914L33.3068 68.1039Z" fill="#0E0C15"/>
<path d="M33.7278 70.4911L31.3404 70.9121L31.7613 73.2995L34.1487 72.8786L33.7278 70.4911Z" fill="#0E0C15"/>
<path d="M34.9907 77.6537L32.6033 78.0747L33.0242 80.4621L35.4116 80.0412L34.9907 77.6537Z" fill="#0E0C15"/>
<path d="M35.8326 82.4286L33.4452 82.8496L33.8662 85.237L36.2536 84.8161L35.8326 82.4286Z" fill="#0E0C15"/>
<path d="M36.2536 84.8159L33.8662 85.2368L34.2871 87.6242L36.6745 87.2033L36.2536 84.8159Z" fill="#0E0C15"/>
<path d="M36.6745 87.2031L34.2871 87.624L34.7081 90.0114L37.0955 89.5905L36.6745 87.2031Z" fill="#0E0C15"/>
<path d="M37.5165 91.978L35.1291 92.3989L35.55 94.7863L37.9374 94.3654L37.5165 91.978Z" fill="#0E0C15"/>
<path d="M26.433 15.1601L24.0456 15.5811L24.4666 17.9685L26.854 17.5475L26.433 15.1601Z" fill="#0E0C15"/>
<path d="M27.275 19.9345L24.8876 20.3555L25.3085 22.7429L27.6959 22.3219L27.275 19.9345Z" fill="#0E0C15"/>
<path d="M27.6959 22.3222L25.3085 22.7432L25.7295 25.1306L28.1169 24.7096L27.6959 22.3222Z" fill="#0E0C15"/>
<path d="M28.1169 24.7094L25.7295 25.1304L26.1505 27.5178L28.5379 27.0968L28.1169 24.7094Z" fill="#0E0C15"/>
<path d="M28.9588 29.4843L26.5714 29.9053L26.9924 32.2927L29.3798 31.8717L28.9588 29.4843Z" fill="#0E0C15"/>
<path d="M29.8008 34.2592L27.4134 34.6802L27.8343 37.0676L30.2217 36.6466L29.8008 34.2592Z" fill="#0E0C15"/>
<path d="M30.2217 36.6464L27.8343 37.0674L28.2553 39.4548L30.6427 39.0338L30.2217 36.6464Z" fill="#0E0C15"/>
<path d="M31.0637 41.4213L28.6762 41.8423L29.0972 44.2297L31.4846 43.8087L31.0637 41.4213Z" fill="#0E0C15"/>
<path d="M31.4846 43.809L29.0972 44.23L29.5182 46.6174L31.9056 46.1964L31.4846 43.809Z" fill="#0E0C15"/>
<path d="M33.5895 55.746L31.202 56.167L31.623 58.5544L34.0104 58.1334L33.5895 55.746Z" fill="#0E0C15"/>
<path d="M34.4314 60.5209L32.044 60.9419L32.4649 63.3293L34.8523 62.9083L34.4314 60.5209Z" fill="#0E0C15"/>
<path d="M34.8523 62.9081L32.4649 63.3291L32.8859 65.7165L35.2733 65.2956L34.8523 62.9081Z" fill="#0E0C15"/>
<path d="M36.1152 70.0702L33.7278 70.4912L34.1488 72.8786L36.5362 72.4577L36.1152 70.0702Z" fill="#0E0C15"/>
<path d="M36.5362 72.4579L34.1488 72.8789L34.5698 75.2663L36.9572 74.8454L36.5362 72.4579Z" fill="#0E0C15"/>
<path d="M37.3781 77.2328L34.9907 77.6538L35.4117 80.0412L37.7991 79.6203L37.3781 77.2328Z" fill="#0E0C15"/>
<path d="M38.2201 82.0073L35.8327 82.4282L36.2536 84.8156L38.641 84.3947L38.2201 82.0073Z" fill="#0E0C15"/>
<path d="M38.641 84.395L36.2536 84.8159L36.6746 87.2033L39.062 86.7824L38.641 84.395Z" fill="#0E0C15"/>
<path d="M39.062 86.7822L36.6746 87.2031L37.0956 89.5905L39.483 89.1696L39.062 86.7822Z" fill="#0E0C15"/>
<path d="M39.9039 91.5571L37.5165 91.978L37.9375 94.3654L40.3249 93.9445L39.9039 91.5571Z" fill="#0E0C15"/>
<path d="M28.8205 14.7387L26.4331 15.1597L26.8541 17.5471L29.2415 17.1261L28.8205 14.7387Z" fill="#0E0C15"/>
<path d="M29.6624 19.5136L27.275 19.9346L27.696 22.322L30.0834 21.901L29.6624 19.5136Z" fill="#0E0C15"/>
<path d="M30.0834 21.9013L27.696 22.3223L28.117 24.7097L30.5044 24.2887L30.0834 21.9013Z" fill="#0E0C15"/>
<path d="M30.5044 24.2885L28.117 24.7095L28.5379 27.0969L30.9253 26.6759L30.5044 24.2885Z" fill="#0E0C15"/>
<path d="M31.3463 29.0634L28.9589 29.4844L29.3799 31.8718L31.7673 31.4508L31.3463 29.0634Z" fill="#0E0C15"/>
<path d="M32.6092 36.2255L30.2218 36.6465L30.6427 39.0339L33.0302 38.6129L32.6092 36.2255Z" fill="#0E0C15"/>
<path d="M33.4511 41.0004L31.0637 41.4214L31.4847 43.8088L33.8721 43.3878L33.4511 41.0004Z" fill="#0E0C15"/>
<path d="M34.714 48.1625L32.3266 48.5835L32.7476 50.9709L35.135 50.5499L34.714 48.1625Z" fill="#0E0C15"/>
<path d="M35.9769 55.3251L33.5895 55.7461L34.0105 58.1335L36.3979 57.7125L35.9769 55.3251Z" fill="#0E0C15"/>
<path d="M36.3979 57.7123L34.0105 58.1333L34.4314 60.5207L36.8188 60.0997L36.3979 57.7123Z" fill="#0E0C15"/>
<path d="M37.2398 62.4872L34.8524 62.9082L35.2734 65.2956L37.6608 64.8747L37.2398 62.4872Z" fill="#0E0C15"/>
<path d="M37.6608 64.8744L35.2734 65.2954L35.6943 67.6828L38.0817 67.2619L37.6608 64.8744Z" fill="#0E0C15"/>
<path d="M38.9237 72.037L36.5363 72.458L36.9572 74.8454L39.3446 74.4245L38.9237 72.037Z" fill="#0E0C15"/>
<path d="M39.7656 76.8115L37.3782 77.2324L37.7992 79.6198L40.1866 79.1989L39.7656 76.8115Z" fill="#0E0C15"/>
<path d="M40.6075 81.5864L38.2201 82.0073L38.6411 84.3947L41.0285 83.9738L40.6075 81.5864Z" fill="#0E0C15"/>
<path d="M41.0285 83.9741L38.6411 84.395L39.0621 86.7824L41.4495 86.3615L41.0285 83.9741Z" fill="#0E0C15"/>
<path d="M41.4495 86.3613L39.0621 86.7822L39.483 89.1696L41.8704 88.7487L41.4495 86.3613Z" fill="#0E0C15"/>
<path d="M42.2914 91.1362L39.904 91.5571L40.325 93.9445L42.7124 93.5236L42.2914 91.1362Z" fill="#0E0C15"/>
<path d="M31.2078 14.3178L28.8204 14.7388L29.2414 17.1262L31.6288 16.7052L31.2078 14.3178Z" fill="#0E0C15"/>
<path d="M33.7336 28.6425L31.3462 29.0635L31.7672 31.4509L34.1546 31.0299L33.7336 28.6425Z" fill="#0E0C15"/>
<path d="M35.4175 38.1923L33.0301 38.6133L33.451 41.0007L35.8384 40.5797L35.4175 38.1923Z" fill="#0E0C15"/>
<path d="M36.6804 45.3544L34.2929 45.7754L34.7139 48.1628L37.1013 47.7418L36.6804 45.3544Z" fill="#0E0C15"/>
<path d="M37.5223 50.1293L35.1349 50.5503L35.5558 52.9377L37.9433 52.5167L37.5223 50.1293Z" fill="#0E0C15"/>
<path d="M39.2062 59.6786L36.8187 60.0996L37.2397 62.487L39.6271 62.0661L39.2062 59.6786Z" fill="#0E0C15"/>
<path d="M40.0481 64.4535L37.6607 64.8745L38.0816 67.2619L40.4691 66.841L40.0481 64.4535Z" fill="#0E0C15"/>
<path d="M41.311 71.6157L38.9236 72.0366L39.3445 74.424L41.7319 74.0031L41.311 71.6157Z" fill="#0E0C15"/>
<path d="M42.1529 76.3906L39.7655 76.8115L40.1865 79.1989L42.5739 78.778L42.1529 76.3906Z" fill="#0E0C15"/>
<path d="M44.6787 90.7153L42.2913 91.1362L42.7123 93.5236L45.0997 93.1027L44.6787 90.7153Z" fill="#0E0C15"/>
<path d="M33.5953 13.8969L31.2079 14.3179L31.6288 16.7053L34.0162 16.2843L33.5953 13.8969Z" fill="#0E0C15"/>
<path d="M34.0162 16.2846L31.6288 16.7056L32.0498 19.093L34.4372 18.672L34.0162 16.2846Z" fill="#0E0C15"/>
<path d="M34.4372 18.6718L32.0498 19.0928L32.4708 21.4802L34.8582 21.0592L34.4372 18.6718Z" fill="#0E0C15"/>
<path d="M34.8582 21.059L32.4708 21.48L32.8917 23.8674L35.2791 23.4464L34.8582 21.059Z" fill="#0E0C15"/>
<path d="M35.2791 23.4467L32.8917 23.8677L33.3127 26.2551L35.7001 25.8341L35.2791 23.4467Z" fill="#0E0C15"/>
<path d="M35.7001 25.8339L33.3127 26.2549L33.7337 28.6423L36.1211 28.2213L35.7001 25.8339Z" fill="#0E0C15"/>
<path d="M36.1211 28.2216L33.7337 28.6426L34.1546 31.03L36.542 30.609L36.1211 28.2216Z" fill="#0E0C15"/>
<path d="M36.963 32.9965L34.5756 33.4175L34.9966 35.8049L37.384 35.3839L36.963 32.9965Z" fill="#0E0C15"/>
<path d="M37.8049 37.7709L35.4175 38.1919L35.8385 40.5793L38.2259 40.1583L37.8049 37.7709Z" fill="#0E0C15"/>
<path d="M38.6469 42.5458L36.2595 42.9668L36.6804 45.3542L39.0678 44.9332L38.6469 42.5458Z" fill="#0E0C15"/>
<path d="M39.4888 47.3207L37.1014 47.7417L37.5223 50.1291L39.9098 49.7081L39.4888 47.3207Z" fill="#0E0C15"/>
<path d="M40.3307 52.0956L37.9433 52.5166L38.3643 54.904L40.7517 54.4831L40.3307 52.0956Z" fill="#0E0C15"/>
<path d="M41.1727 56.8705L38.7852 57.2915L39.2062 59.6789L41.5936 59.2579L41.1727 56.8705Z" fill="#0E0C15"/>
<path d="M42.0146 61.6454L39.6272 62.0664L40.0481 64.4538L42.4356 64.0329L42.0146 61.6454Z" fill="#0E0C15"/>
<path d="M42.8565 66.4199L40.4691 66.8408L40.8901 69.2282L43.2775 68.8073L42.8565 66.4199Z" fill="#0E0C15"/>
<path d="M43.6984 71.1948L41.311 71.6157L41.732 74.0031L44.1194 73.5822L43.6984 71.1948Z" fill="#0E0C15"/>
<path d="M44.5404 75.9697L42.153 76.3906L42.5739 78.778L44.9613 78.3571L44.5404 75.9697Z" fill="#0E0C15"/>
<path d="M44.9613 78.3574L42.5739 78.7783L42.9949 81.1657L45.3823 80.7448L44.9613 78.3574Z" fill="#0E0C15"/>
<path d="M45.3823 80.7446L42.9949 81.1655L43.4159 83.5529L45.8033 83.132L45.3823 80.7446Z" fill="#0E0C15"/>
<path d="M45.8033 83.1318L43.4159 83.5527L43.8368 85.9402L46.2242 85.5192L45.8033 83.1318Z" fill="#0E0C15"/>
<path d="M46.2242 85.5195L43.8368 85.9404L44.2578 88.3278L46.6452 87.9069L46.2242 85.5195Z" fill="#0E0C15"/>
<path d="M46.6452 87.9067L44.2578 88.3276L44.6788 90.715L47.0662 90.2941L46.6452 87.9067Z" fill="#0E0C15"/>
<path d="M47.0662 90.2944L44.6788 90.7153L45.0997 93.1027L47.4871 92.6818L47.0662 90.2944Z" fill="#0E0C15"/>
<path d="M40.1924 37.35L37.805 37.771L38.226 40.1584L40.6134 39.7374L40.1924 37.35Z" fill="#0E0C15"/>
<path d="M40.6134 39.7377L38.226 40.1587L38.6469 42.5461L41.0343 42.1251L40.6134 39.7377Z" fill="#0E0C15"/>
<path d="M41.0343 42.1249L38.6469 42.5459L39.0679 44.9333L41.4553 44.5123L41.0343 42.1249Z" fill="#0E0C15"/>
<path d="M41.4553 44.5121L39.0679 44.9331L39.4888 47.3205L41.8763 46.8996L41.4553 44.5121Z" fill="#0E0C15"/>
<path d="M41.8763 46.8998L39.4888 47.3208L39.9098 49.7082L42.2972 49.2872L41.8763 46.8998Z" fill="#0E0C15"/>
<path d="M42.7182 51.6747L40.3308 52.0957L40.7517 54.4831L43.1392 54.0622L42.7182 51.6747Z" fill="#0E0C15"/>
<path d="M43.5601 56.4496L41.1727 56.8706L41.5937 59.258L43.9811 58.8371L43.5601 56.4496Z" fill="#0E0C15"/>
<path d="M44.4021 61.2241L42.0146 61.645L42.4356 64.0324L44.823 63.6115L44.4021 61.2241Z" fill="#0E0C15"/>
<path d="M45.244 65.999L42.8566 66.4199L43.2775 68.8073L45.6649 68.3864L45.244 65.999Z" fill="#0E0C15"/>
<path d="M38.3701 13.0551L35.9826 13.4761L36.4036 15.8635L38.791 15.4425L38.3701 13.0551Z" fill="#0E0C15"/>
<path d="M39.212 17.83L36.8246 18.251L37.2455 20.6384L39.6329 20.2174L39.212 17.83Z" fill="#0E0C15"/>
<path d="M39.633 20.2172L37.2455 20.6382L37.6665 23.0256L40.0539 22.6046L39.633 20.2172Z" fill="#0E0C15"/>
<path d="M40.0539 22.6049L37.6665 23.0259L38.0875 25.4133L40.4749 24.9923L40.0539 22.6049Z" fill="#0E0C15"/>
<path d="M40.8958 27.3793L38.5084 27.8003L38.9294 30.1877L41.3168 29.7667L40.8958 27.3793Z" fill="#0E0C15"/>
<path d="M41.7378 32.1542L39.3504 32.5752L39.7713 34.9626L42.1587 34.5416L41.7378 32.1542Z" fill="#0E0C15"/>
<path d="M42.1587 34.5419L39.7713 34.9629L40.1923 37.3503L42.5797 36.9293L42.1587 34.5419Z" fill="#0E0C15"/>
<path d="M43.0007 39.3168L40.6133 39.7378L41.0342 42.1252L43.4216 41.7042L43.0007 39.3168Z" fill="#0E0C15"/>
<path d="M43.8426 44.0912L41.4552 44.5122L41.8762 46.8996L44.2636 46.4787L43.8426 44.0912Z" fill="#0E0C15"/>
<path d="M44.6845 48.8661L42.2971 49.2871L42.7181 51.6745L45.1055 51.2536L44.6845 48.8661Z" fill="#0E0C15"/>
<path d="M45.5265 53.641L43.139 54.062L43.56 56.4494L45.9474 56.0285L45.5265 53.641Z" fill="#0E0C15"/>
<path d="M45.9474 56.0287L43.56 56.4497L43.981 58.8371L46.3684 58.4162L45.9474 56.0287Z" fill="#0E0C15"/>
<path d="M46.3684 58.4159L43.981 58.8369L44.4019 61.2243L46.7894 60.8034L46.3684 58.4159Z" fill="#0E0C15"/>
<path d="M46.7894 60.8032L44.4019 61.2241L44.8229 63.6115L47.2103 63.1906L46.7894 60.8032Z" fill="#0E0C15"/>
<path d="M48.4732 70.353L46.0858 70.7739L46.5068 73.1613L48.8942 72.7404L48.4732 70.353Z" fill="#0E0C15"/>
<path d="M48.8942 72.7402L46.5068 73.1611L46.9277 75.5485L49.3152 75.1276L48.8942 72.7402Z" fill="#0E0C15"/>
<path d="M50.578 82.29L48.1906 82.7109L48.6116 85.0984L50.999 84.6774L50.578 82.29Z" fill="#0E0C15"/>
<path d="M50.999 84.6777L48.6116 85.0986L49.0326 87.4861L51.42 87.0651L50.999 84.6777Z" fill="#0E0C15"/>
<path d="M51.42 87.0649L49.0326 87.4858L49.4535 89.8733L51.8409 89.4523L51.42 87.0649Z" fill="#0E0C15"/>
<path d="M51.8409 89.4521L49.4535 89.873L49.8745 92.2605L52.2619 91.8395L51.8409 89.4521Z" fill="#0E0C15"/>
<path d="M41.1785 15.0214L38.7911 15.4424L39.212 17.8298L41.5994 17.4088L41.1785 15.0214Z" fill="#0E0C15"/>
<path d="M41.5995 17.4091L39.212 17.8301L39.633 20.2175L42.0204 19.7965L41.5995 17.4091Z" fill="#0E0C15"/>
<path d="M42.0204 19.7963L39.633 20.2173L40.054 22.6047L42.4414 22.1837L42.0204 19.7963Z" fill="#0E0C15"/>
<path d="M44.9672 36.5082L42.5798 36.9292L43.0007 39.3166L45.3881 38.8956L44.9672 36.5082Z" fill="#0E0C15"/>
<path d="M45.3881 38.8954L43.0007 39.3164L43.4217 41.7038L45.8091 41.2829L45.3881 38.8954Z" fill="#0E0C15"/>
<path d="M45.8091 41.2831L43.4217 41.7041L43.8427 44.0915L46.2301 43.6705L45.8091 41.2831Z" fill="#0E0C15"/>
<path d="M46.2301 43.6703L43.8427 44.0913L44.2636 46.4787L46.651 46.0578L46.2301 43.6703Z" fill="#0E0C15"/>
<path d="M47.072 48.4452L44.6846 48.8662L45.1056 51.2536L47.493 50.8327L47.072 48.4452Z" fill="#0E0C15"/>
<path d="M49.1768 60.3823L46.7894 60.8032L47.2104 63.1906L49.5978 62.7697L49.1768 60.3823Z" fill="#0E0C15"/>
<path d="M49.5978 62.77L47.2104 63.1909L47.6313 65.5783L50.0188 65.1574L49.5978 62.77Z" fill="#0E0C15"/>
<path d="M50.4397 67.5444L48.0523 67.9653L48.4733 70.3527L50.8607 69.9318L50.4397 67.5444Z" fill="#0E0C15"/>
<path d="M50.8607 69.9321L48.4733 70.353L48.8942 72.7404L51.2817 72.3195L50.8607 69.9321Z" fill="#0E0C15"/>
<path d="M52.1236 77.0942L49.7362 77.5151L50.1571 79.9025L52.5445 79.4816L52.1236 77.0942Z" fill="#0E0C15"/>
<path d="M52.5445 79.4819L50.1571 79.9028L50.5781 82.2902L52.9655 81.8693L52.5445 79.4819Z" fill="#0E0C15"/>
<path d="M53.3865 84.2563L50.9991 84.6772L51.42 87.0647L53.8074 86.6437L53.3865 84.2563Z" fill="#0E0C15"/>
<path d="M53.8074 86.644L51.42 87.0649L51.841 89.4524L54.2284 89.0314L53.8074 86.644Z" fill="#0E0C15"/>
<path d="M54.2284 89.0312L51.841 89.4521L52.262 91.8396L54.6494 91.4186L54.2284 89.0312Z" fill="#0E0C15"/>
<path d="M43.1448 12.2133L40.7574 12.6343L41.1784 15.0217L43.5658 14.6007L43.1448 12.2133Z" fill="#0E0C15"/>
<path d="M43.5658 14.6005L41.1784 15.0215L41.5993 17.4089L43.9868 16.9879L43.5658 14.6005Z" fill="#0E0C15"/>
<path d="M43.9868 16.9882L41.5993 17.4092L42.0203 19.7966L44.4077 19.3756L43.9868 16.9882Z" fill="#0E0C15"/>
<path d="M44.4077 19.3754L42.0203 19.7964L42.4413 22.1838L44.8287 21.7628L44.4077 19.3754Z" fill="#0E0C15"/>
<path d="M45.2497 24.1503L42.8622 24.5713L43.2832 26.9587L45.6706 26.5377L45.2497 24.1503Z" fill="#0E0C15"/>
<path d="M45.6706 26.5375L43.2832 26.9585L43.7042 29.3459L46.0916 28.9249L45.6706 26.5375Z" fill="#0E0C15"/>
<path d="M46.0916 28.9252L43.7042 29.3462L44.1251 31.7336L46.5126 31.3126L46.0916 28.9252Z" fill="#0E0C15"/>
<path d="M46.5125 31.3124L44.1251 31.7334L44.5461 34.1208L46.9335 33.6998L46.5125 31.3124Z" fill="#0E0C15"/>
<path d="M46.9335 33.6996L44.5461 34.1206L44.9671 36.508L47.3545 36.0871L46.9335 33.6996Z" fill="#0E0C15"/>
<path d="M47.3545 36.0873L44.9671 36.5083L45.388 38.8957L47.7754 38.4747L47.3545 36.0873Z" fill="#0E0C15"/>
<path d="M47.7754 38.4745L45.388 38.8955L45.809 41.2829L48.1964 40.862L47.7754 38.4745Z" fill="#0E0C15"/>
<path d="M48.1964 40.8622L45.809 41.2832L46.23 43.6706L48.6174 43.2497L48.1964 40.8622Z" fill="#0E0C15"/>
<path d="M49.0383 45.6371L46.6509 46.0581L47.0719 48.4455L49.4593 48.0246L49.0383 45.6371Z" fill="#0E0C15"/>
<path d="M49.8803 50.4116L47.4929 50.8325L47.9138 53.2199L50.3012 52.799L49.8803 50.4116Z" fill="#0E0C15"/>
<path d="M50.7222 55.1865L48.3348 55.6074L48.7558 57.9948L51.1432 57.5739L50.7222 55.1865Z" fill="#0E0C15"/>
<path d="M51.1432 57.5742L48.7558 57.9951L49.1767 60.3825L51.5641 59.9616L51.1432 57.5742Z" fill="#0E0C15"/>
<path d="M52.827 67.1235L50.4396 67.5444L50.8606 69.9318L53.248 69.5109L52.827 67.1235Z" fill="#0E0C15"/>
<path d="M53.669 71.8984L51.2815 72.3193L51.7025 74.7068L54.0899 74.2858L53.669 71.8984Z" fill="#0E0C15"/>
<path d="M54.9319 79.0605L52.5444 79.4814L52.9654 81.8689L55.3528 81.4479L54.9319 79.0605Z" fill="#0E0C15"/>
<path d="M55.3528 81.4482L52.9654 81.8691L53.3864 84.2566L55.7738 83.8356L55.3528 81.4482Z" fill="#0E0C15"/>
<path d="M55.7738 83.8354L53.3864 84.2563L53.8073 86.6438L56.1948 86.2228L55.7738 83.8354Z" fill="#0E0C15"/>
<path d="M45.9533 14.1796L43.5658 14.6006L43.9868 16.988L46.3742 16.567L45.9533 14.1796Z" fill="#0E0C15"/>
<path d="M47.2162 21.3417L44.8287 21.7627L45.2497 24.1501L47.6371 23.7291L47.2162 21.3417Z" fill="#0E0C15"/>
<path d="M47.6371 23.7294L45.2497 24.1504L45.6707 26.5378L48.0581 26.1168L47.6371 23.7294Z" fill="#0E0C15"/>
<path d="M48.9 30.8915L46.5126 31.3125L46.9336 33.6999L49.321 33.2789L48.9 30.8915Z" fill="#0E0C15"/>
<path d="M49.7419 35.6664L47.3545 36.0874L47.7755 38.4748L50.1629 38.0538L49.7419 35.6664Z" fill="#0E0C15"/>
<path d="M51.0048 42.8285L48.6174 43.2495L49.0384 45.6369L51.4258 45.216L51.0048 42.8285Z" fill="#0E0C15"/>
<path d="M51.4258 45.2158L49.0384 45.6367L49.4594 48.0241L51.8468 47.6032L51.4258 45.2158Z" fill="#0E0C15"/>
<path d="M51.8468 47.6034L49.4594 48.0244L49.8803 50.4118L52.2677 49.9909L51.8468 47.6034Z" fill="#0E0C15"/>
<path d="M54.3726 61.9277L51.9851 62.3486L52.4061 64.736L54.7935 64.3151L54.3726 61.9277Z" fill="#0E0C15"/>
<path d="M54.7935 64.3154L52.4061 64.7363L52.8271 67.1237L55.2145 66.7028L54.7935 64.3154Z" fill="#0E0C15"/>
<path d="M55.6355 69.0903L53.248 69.5112L53.669 71.8986L56.0564 71.4777L55.6355 69.0903Z" fill="#0E0C15"/>
<path d="M56.8984 76.2524L54.5109 76.6733L54.9319 79.0608L57.3193 78.6398L56.8984 76.2524Z" fill="#0E0C15"/>
<path d="M57.3193 78.6396L54.9319 79.0605L55.3529 81.448L57.7403 81.027L57.3193 78.6396Z" fill="#0E0C15"/>
<path d="M57.7403 81.0273L55.3529 81.4482L55.7738 83.8357L58.1612 83.4147L57.7403 81.0273Z" fill="#0E0C15"/>
<path d="M58.5822 85.8022L56.1948 86.2231L56.6158 88.6106L59.0032 88.1896L58.5822 85.8022Z" fill="#0E0C15"/>
<path d="M59.0032 88.1894L56.6158 88.6104L57.0367 90.9978L59.4241 90.5768L59.0032 88.1894Z" fill="#0E0C15"/>
<path d="M47.9198 11.371L45.5323 11.792L45.9533 14.1794L48.3407 13.7584L47.9198 11.371Z" fill="#0E0C15"/>
<path d="M48.3407 13.7587L45.9533 14.1797L46.3743 16.5671L48.7617 16.1461L48.3407 13.7587Z" fill="#0E0C15"/>
<path d="M49.1827 18.5336L46.7952 18.9546L47.2162 21.342L49.6036 20.921L49.1827 18.5336Z" fill="#0E0C15"/>
<path d="M49.6036 20.9208L47.2162 21.3418L47.6372 23.7292L50.0246 23.3082L49.6036 20.9208Z" fill="#0E0C15"/>
<path d="M50.4455 25.6957L48.0581 26.1167L48.4791 28.5041L50.8665 28.0831L50.4455 25.6957Z" fill="#0E0C15"/>
<path d="M50.8665 28.0829L48.4791 28.5039L48.9001 30.8913L51.2875 30.4704L50.8665 28.0829Z" fill="#0E0C15"/>
<path d="M51.2875 30.4706L48.9001 30.8916L49.321 33.279L51.7084 32.8581L51.2875 30.4706Z" fill="#0E0C15"/>
<path d="M51.7084 32.8578L49.321 33.2788L49.742 35.6662L52.1294 35.2453L51.7084 32.8578Z" fill="#0E0C15"/>
<path d="M52.1294 35.2455L49.742 35.6665L50.163 38.0539L52.5504 37.633L52.1294 35.2455Z" fill="#0E0C15"/>
<path d="M52.9713 40.02L50.5839 40.4409L51.0049 42.8283L53.3923 42.4074L52.9713 40.02Z" fill="#0E0C15"/>
<path d="M53.3923 42.4076L51.0049 42.8286L51.4259 45.216L53.8133 44.7951L53.3923 42.4076Z" fill="#0E0C15"/>
<path d="M56.3391 59.1196L53.9517 59.5405L54.3726 61.9279L56.76 61.507L56.3391 59.1196Z" fill="#0E0C15"/>
<path d="M56.76 61.5068L54.3726 61.9277L54.7936 64.3151L57.181 63.8942L56.76 61.5068Z" fill="#0E0C15"/>
<path d="M57.181 63.8945L54.7936 64.3154L55.2145 66.7028L57.602 66.2819L57.181 63.8945Z" fill="#0E0C15"/>
<path d="M59.2858 75.8315L56.8984 76.2524L57.3194 78.6399L59.7068 78.2189L59.2858 75.8315Z" fill="#0E0C15"/>
<path d="M59.7068 78.2187L57.3194 78.6396L57.7403 81.0271L60.1278 80.6061L59.7068 78.2187Z" fill="#0E0C15"/>
<path d="M61.3906 87.7685L59.0032 88.1895L59.4242 90.5769L61.8116 90.1559L61.3906 87.7685Z" fill="#0E0C15"/>
<path d="M50.3074 10.9501L47.92 11.3711L48.3409 13.7585L50.7283 13.3375L50.3074 10.9501Z" fill="#0E0C15"/>
<path d="M51.1493 15.725L48.7619 16.146L49.1829 18.5334L51.5703 18.1124L51.1493 15.725Z" fill="#0E0C15"/>
<path d="M51.5703 18.1122L49.1829 18.5332L49.6038 20.9206L51.9912 20.4997L51.5703 18.1122Z" fill="#0E0C15"/>
<path d="M52.4122 22.8871L50.0248 23.3081L50.4458 25.6955L52.8332 25.2746L52.4122 22.8871Z" fill="#0E0C15"/>
<path d="M54.938 37.2118L52.5506 37.6328L52.9716 40.0202L55.359 39.5993L54.938 37.2118Z" fill="#0E0C15"/>
<path d="M55.359 39.5991L52.9716 40.02L53.3925 42.4074L55.7799 41.9865L55.359 39.5991Z" fill="#0E0C15"/>
<path d="M56.2009 44.374L53.8135 44.7949L54.2344 47.1823L56.6219 46.7614L56.2009 44.374Z" fill="#0E0C15"/>
<path d="M57.0428 49.1489L54.6554 49.5698L55.0764 51.9572L57.4638 51.5363L57.0428 49.1489Z" fill="#0E0C15"/>
<path d="M57.4638 51.5361L55.0764 51.957L55.4973 54.3444L57.8848 53.9235L57.4638 51.5361Z" fill="#0E0C15"/>
<path d="M59.5686 63.4731L57.1812 63.894L57.6022 66.2815L59.9896 65.8605L59.5686 63.4731Z" fill="#0E0C15"/>
<path d="M59.9896 65.8608L57.6022 66.2817L58.0231 68.6691L60.4105 68.2482L59.9896 65.8608Z" fill="#0E0C15"/>
<path d="M60.4105 68.248L58.0231 68.6689L58.4441 71.0564L60.8315 70.6354L60.4105 68.248Z" fill="#0E0C15"/>
<path d="M61.2525 73.0229L58.8651 73.4438L59.286 75.8313L61.6734 75.4103L61.2525 73.0229Z" fill="#0E0C15"/>
<path d="M62.0944 77.7978L59.707 78.2188L60.128 80.6062L62.5154 80.1852L62.0944 77.7978Z" fill="#0E0C15"/>
<path d="M53.1157 12.9164L50.7282 13.3374L51.1492 15.7248L53.5366 15.3039L53.1157 12.9164Z" fill="#0E0C15"/>
<path d="M53.5366 15.3041L51.1492 15.7251L51.5702 18.1125L53.9576 17.6915L53.5366 15.3041Z" fill="#0E0C15"/>
<path d="M53.9576 17.6913L51.5702 18.1123L51.9911 20.4997L54.3785 20.0788L53.9576 17.6913Z" fill="#0E0C15"/>
<path d="M54.3785 20.079L51.9911 20.5L52.4121 22.8874L54.7995 22.4664L54.3785 20.079Z" fill="#0E0C15"/>
<path d="M54.7995 22.4662L52.4121 22.8872L52.8331 25.2746L55.2205 24.8537L54.7995 22.4662Z" fill="#0E0C15"/>
<path d="M55.2205 24.8539L52.8331 25.2749L53.254 27.6623L55.6414 27.2414L55.2205 24.8539Z" fill="#0E0C15"/>
<path d="M55.6414 27.2411L53.254 27.6621L53.675 30.0495L56.0624 29.6286L55.6414 27.2411Z" fill="#0E0C15"/>
<path d="M56.4834 32.016L54.096 32.437L54.5169 34.8244L56.9043 34.4035L56.4834 32.016Z" fill="#0E0C15"/>
<path d="M56.9043 34.4033L54.5169 34.8242L54.9379 37.2116L57.3253 36.7907L56.9043 34.4033Z" fill="#0E0C15"/>
<path d="M57.3253 36.7909L54.9379 37.2119L55.3589 39.5993L57.7463 39.1784L57.3253 36.7909Z" fill="#0E0C15"/>
<path d="M58.5882 43.9531L56.2008 44.374L56.6218 46.7614L59.0092 46.3405L58.5882 43.9531Z" fill="#0E0C15"/>
<path d="M59.0092 46.3403L56.6218 46.7612L57.0427 49.1486L59.4301 48.7277L59.0092 46.3403Z" fill="#0E0C15"/>
<path d="M59.4301 48.728L57.0427 49.1489L57.4637 51.5363L59.8511 51.1154L59.4301 48.728Z" fill="#0E0C15"/>
<path d="M59.8511 51.1152L57.4637 51.5361L57.8847 53.9235L60.2721 53.5026L59.8511 51.1152Z" fill="#0E0C15"/>
<path d="M60.2721 53.5029L57.8847 53.9238L58.3056 56.3112L60.693 55.8903L60.2721 53.5029Z" fill="#0E0C15"/>
<path d="M60.693 55.8901L58.3056 56.311L58.7266 58.6984L61.114 58.2775L60.693 55.8901Z" fill="#0E0C15"/>
<path d="M61.535 60.665L59.1475 61.0859L59.5685 63.4734L61.9559 63.0524L61.535 60.665Z" fill="#0E0C15"/>
<path d="M63.6398 72.602L61.2524 73.0229L61.6733 75.4104L64.0607 74.9894L63.6398 72.602Z" fill="#0E0C15"/>
<path d="M64.0608 74.9892L61.6733 75.4102L62.0943 77.7976L64.4817 77.3766L64.0608 74.9892Z" fill="#0E0C15"/>
<path d="M64.4817 77.3769L62.0943 77.7979L62.5153 80.1853L64.9027 79.7643L64.4817 77.3769Z" fill="#0E0C15"/>
<path d="M64.9027 79.7641L62.5153 80.1851L62.9362 82.5725L65.3236 82.1515L64.9027 79.7641Z" fill="#0E0C15"/>
<path d="M55.9239 14.8832L53.5365 15.3042L53.9575 17.6916L56.3449 17.2706L55.9239 14.8832Z" fill="#0E0C15"/>
<path d="M56.7659 19.6581L54.3784 20.0791L54.7994 22.4665L57.1868 22.0455L56.7659 19.6581Z" fill="#0E0C15"/>
<path d="M58.0288 26.8202L55.6413 27.2412L56.0623 29.6286L58.4497 29.2077L58.0288 26.8202Z" fill="#0E0C15"/>
<path d="M60.1336 38.7573L57.7462 39.1782L58.1671 41.5656L60.5545 41.1447L60.1336 38.7573Z" fill="#0E0C15"/>
<path d="M60.5545 41.1445L58.1671 41.5654L58.5881 43.9528L60.9755 43.5319L60.5545 41.1445Z" fill="#0E0C15"/>
<path d="M62.2384 50.6943L59.851 51.1152L60.272 53.5026L62.6594 53.0817L62.2384 50.6943Z" fill="#0E0C15"/>
<path d="M62.6594 53.082L60.272 53.5029L60.6929 55.8903L63.0803 55.4694L62.6594 53.082Z" fill="#0E0C15"/>
<path d="M63.5013 57.8564L61.1139 58.2773L61.5349 60.6648L63.9223 60.2438L63.5013 57.8564Z" fill="#0E0C15"/>
<path d="M64.7642 65.019L62.3768 65.4399L62.7977 67.8274L65.1852 67.4064L64.7642 65.019Z" fill="#0E0C15"/>
<path d="M65.6061 69.7934L63.2187 70.2144L63.6397 72.6018L66.0271 72.1808L65.6061 69.7934Z" fill="#0E0C15"/>
<path d="M67.29 79.3432L64.9026 79.7642L65.3235 82.1516L67.711 81.7306L67.29 79.3432Z" fill="#0E0C15"/>
<path d="M67.711 81.7309L65.3235 82.1519L65.7445 84.5393L68.1319 84.1183L67.711 81.7309Z" fill="#0E0C15"/>
<path d="M68.5529 86.5053L66.1655 86.9263L66.5864 89.3137L68.9739 88.8927L68.5529 86.5053Z" fill="#0E0C15"/>
<path d="M57.4693 9.68743L55.0819 10.1084L55.5029 12.4958L57.8903 12.0748L57.4693 9.68743Z" fill="#0E0C15"/>
<path d="M57.8903 12.0746L55.5029 12.4956L55.9238 14.883L58.3112 14.4621L57.8903 12.0746Z" fill="#0E0C15"/>
<path d="M59.5741 21.6244L57.1867 22.0454L57.6077 24.4328L59.9951 24.0119L59.5741 21.6244Z" fill="#0E0C15"/>
<path d="M59.9951 24.0117L57.6077 24.4326L58.0286 26.82L60.4161 26.3991L59.9951 24.0117Z" fill="#0E0C15"/>
<path d="M61.258 31.1742L58.8706 31.5952L59.2915 33.9826L61.679 33.5617L61.258 31.1742Z" fill="#0E0C15"/>
<path d="M61.679 33.5615L59.2915 33.9824L59.7125 36.3698L62.0999 35.9489L61.679 33.5615Z" fill="#0E0C15"/>
<path d="M62.9418 40.7236L60.5544 41.1445L60.9754 43.5319L63.3628 43.111L62.9418 40.7236Z" fill="#0E0C15"/>
<path d="M63.3628 43.1113L60.9754 43.5322L61.3964 45.9196L63.7838 45.4987L63.3628 43.1113Z" fill="#0E0C15"/>
<path d="M63.7838 45.4985L61.3964 45.9194L61.8173 48.3068L64.2047 47.8859L63.7838 45.4985Z" fill="#0E0C15"/>
<path d="M64.2047 47.8862L61.8173 48.3071L62.2383 50.6945L64.6257 50.2736L64.2047 47.8862Z" fill="#0E0C15"/>
<path d="M65.4676 55.0483L63.0802 55.4692L63.5012 57.8566L65.8886 57.4357L65.4676 55.0483Z" fill="#0E0C15"/>
<path d="M65.8886 57.4355L63.5012 57.8564L63.9222 60.2439L66.3096 59.8229L65.8886 57.4355Z" fill="#0E0C15"/>
<path d="M66.3096 59.8232L63.9222 60.2441L64.3431 62.6316L66.7305 62.2106L66.3096 59.8232Z" fill="#0E0C15"/>
<path d="M66.7305 62.2104L64.3431 62.6313L64.7641 65.0188L67.1515 64.5978L66.7305 62.2104Z" fill="#0E0C15"/>
<path d="M67.9934 69.3725L65.606 69.7935L66.027 72.1809L68.4144 71.7599L67.9934 69.3725Z" fill="#0E0C15"/>
<path d="M69.2563 76.5351L66.8689 76.9561L67.2899 79.3435L69.6773 78.9225L69.2563 76.5351Z" fill="#0E0C15"/>
<path d="M70.0983 81.3095L67.7108 81.7305L68.1318 84.1179L70.5192 83.6969L70.0983 81.3095Z" fill="#0E0C15"/>
<path d="M70.5192 83.6972L68.1318 84.1182L68.5528 86.5056L70.9402 86.0846L70.5192 83.6972Z" fill="#0E0C15"/>
<path d="M70.9402 86.0844L68.5528 86.5054L68.9737 88.8928L71.3612 88.4718L70.9402 86.0844Z" fill="#0E0C15"/>
<path d="M59.8569 9.26654L57.4695 9.6875L57.8905 12.0749L60.2779 11.6539L59.8569 9.26654Z" fill="#0E0C15"/>
<path d="M61.1198 16.4286L58.7324 16.8496L59.1534 19.237L61.5408 18.8161L61.1198 16.4286Z" fill="#0E0C15"/>
<path d="M61.5408 18.8159L59.1534 19.2368L59.5743 21.6242L61.9618 21.2033L61.5408 18.8159Z" fill="#0E0C15"/>
<path d="M62.8037 25.9784L60.4163 26.3994L60.8372 28.7868L63.2247 28.3659L62.8037 25.9784Z" fill="#0E0C15"/>
<path d="M63.2246 28.3657L60.8372 28.7866L61.2582 31.174L63.6456 30.7531L63.2246 28.3657Z" fill="#0E0C15"/>
<path d="M63.6456 30.7529L61.2582 31.1738L61.6792 33.5612L64.0666 33.1403L63.6456 30.7529Z" fill="#0E0C15"/>
<path d="M64.9085 37.9155L62.5211 38.3364L62.9421 40.7238L65.3295 40.3029L64.9085 37.9155Z" fill="#0E0C15"/>
<path d="M67.0133 49.8525L64.6259 50.2734L65.0469 52.6609L67.4343 52.2399L67.0133 49.8525Z" fill="#0E0C15"/>
<path d="M67.8553 54.6274L65.4679 55.0483L65.8888 57.4358L68.2762 57.0148L67.8553 54.6274Z" fill="#0E0C15"/>
<path d="M68.2762 57.0146L65.8888 57.4355L66.3098 59.823L68.6972 59.402L68.2762 57.0146Z" fill="#0E0C15"/>
<path d="M69.1182 61.7895L66.7308 62.2104L67.1517 64.5979L69.5391 64.1769L69.1182 61.7895Z" fill="#0E0C15"/>
<path d="M69.9601 66.5644L67.5727 66.9854L67.9936 69.3728L70.3811 68.9518L69.9601 66.5644Z" fill="#0E0C15"/>
<path d="M70.3811 68.9516L67.9936 69.3726L68.4146 71.76L70.802 71.339L70.3811 68.9516Z" fill="#0E0C15"/>
<path d="M72.0649 78.5014L69.6775 78.9224L70.0985 81.3098L72.4859 80.8888L72.0649 78.5014Z" fill="#0E0C15"/>
<path d="M72.9068 83.2763L70.5194 83.6973L70.9404 86.0847L73.3278 85.6637L72.9068 83.2763Z" fill="#0E0C15"/>
<path d="M73.3278 85.6635L70.9404 86.0845L71.3614 88.4719L73.7488 88.0509L73.3278 85.6635Z" fill="#0E0C15"/>
<path d="M62.2442 8.84564L59.8568 9.2666L60.2778 11.654L62.6652 11.233L62.2442 8.84564Z" fill="#0E0C15"/>
<path d="M62.6652 11.2328L60.2778 11.6538L60.6987 14.0412L63.0862 13.6203L62.6652 11.2328Z" fill="#0E0C15"/>
<path d="M63.0862 13.6201L60.6988 14.041L61.1197 16.4284L63.5071 16.0075L63.0862 13.6201Z" fill="#0E0C15"/>
<path d="M63.9281 18.395L61.5407 18.8159L61.9616 21.2033L64.3491 20.7824L63.9281 18.395Z" fill="#0E0C15"/>
<path d="M64.3491 20.7826L61.9616 21.2036L62.3826 23.591L64.77 23.1701L64.3491 20.7826Z" fill="#0E0C15"/>
<path d="M64.77 23.1699L62.3826 23.5908L62.8036 25.9782L65.191 25.5573L64.77 23.1699Z" fill="#0E0C15"/>
<path d="M65.612 27.9448L63.2245 28.3657L63.6455 30.7531L66.0329 30.3322L65.612 27.9448Z" fill="#0E0C15"/>
<path d="M66.0329 30.332L63.6455 30.7529L64.0665 33.1403L66.4539 32.7194L66.0329 30.332Z" fill="#0E0C15"/>
<path d="M66.4539 32.7197L64.0665 33.1406L64.4874 35.528L66.8748 35.1071L66.4539 32.7197Z" fill="#0E0C15"/>
<path d="M66.8748 35.1069L64.4874 35.5278L64.9084 37.9152L67.2958 37.4943L66.8748 35.1069Z" fill="#0E0C15"/>
<path d="M67.2958 37.4946L64.9084 37.9155L65.3294 40.3029L67.7168 39.882L67.2958 37.4946Z" fill="#0E0C15"/>
<path d="M68.1377 42.269L65.7503 42.6899L66.1713 45.0774L68.5587 44.6564L68.1377 42.269Z" fill="#0E0C15"/>
<path d="M68.9797 47.0439L66.5923 47.4648L67.0132 49.8523L69.4006 49.4313L68.9797 47.0439Z" fill="#0E0C15"/>
<path d="M70.2426 54.2065L67.8552 54.6274L68.2761 57.0149L70.6635 56.5939L70.2426 54.2065Z" fill="#0E0C15"/>
<path d="M70.6635 56.5937L68.2761 57.0146L68.6971 59.4021L71.0845 58.9811L70.6635 56.5937Z" fill="#0E0C15"/>
<path d="M71.0845 58.9809L68.6971 59.4019L69.1181 61.7893L71.5055 61.3683L71.0845 58.9809Z" fill="#0E0C15"/>
<path d="M71.9264 63.7558L69.539 64.1768L69.96 66.5642L72.3474 66.1432L71.9264 63.7558Z" fill="#0E0C15"/>
<path d="M72.7684 68.5307L70.381 68.9517L70.8019 71.3391L73.1893 70.9181L72.7684 68.5307Z" fill="#0E0C15"/>
<path d="M73.1893 70.9179L70.8019 71.3389L71.2229 73.7263L73.6103 73.3053L73.1893 70.9179Z" fill="#0E0C15"/>
<path d="M73.6103 73.3056L71.2229 73.7266L71.6438 76.114L74.0313 75.693L73.6103 73.3056Z" fill="#0E0C15"/>
<path d="M74.0313 75.6928L71.6438 76.1138L72.0648 78.5012L74.4522 78.0802L74.0313 75.6928Z" fill="#0E0C15"/>
<path d="M74.8732 80.4677L72.4858 80.8887L72.9067 83.2761L75.2942 82.8551L74.8732 80.4677Z" fill="#0E0C15"/>
<path d="M64.6315 8.42425L62.2441 8.84521L62.6651 11.2326L65.0525 10.8117L64.6315 8.42425Z" fill="#0E0C15"/>
<path d="M65.4735 13.1992L63.0861 13.6201L63.507 16.0075L65.8944 15.5866L65.4735 13.1992Z" fill="#0E0C15"/>
<path d="M65.8944 15.5868L63.507 16.0078L63.928 18.3952L66.3154 17.9743L65.8944 15.5868Z" fill="#0E0C15"/>
<path d="M66.3154 17.9741L63.928 18.395L64.349 20.7824L66.7364 20.3615L66.3154 17.9741Z" fill="#0E0C15"/>
<path d="M66.7364 20.3617L64.349 20.7827L64.7699 23.1701L67.1573 22.7492L66.7364 20.3617Z" fill="#0E0C15"/>
<path d="M67.9993 27.5239L65.6118 27.9448L66.0328 30.3322L68.4202 29.9113L67.9993 27.5239Z" fill="#0E0C15"/>
<path d="M68.4202 29.9111L66.0328 30.332L66.4538 32.7194L68.8412 32.2985L68.4202 29.9111Z" fill="#0E0C15"/>
<path d="M69.2622 34.686L66.8747 35.1069L67.2957 37.4943L69.6831 37.0734L69.2622 34.686Z" fill="#0E0C15"/>
<path d="M69.6831 37.0732L67.2957 37.4941L67.7167 39.8816L70.1041 39.4606L69.6831 37.0732Z" fill="#0E0C15"/>
<path d="M70.1041 39.4609L67.7167 39.8818L68.1376 42.2693L70.525 41.8483L70.1041 39.4609Z" fill="#0E0C15"/>
<path d="M70.5251 41.8481L68.1376 42.269L68.5586 44.6565L70.946 44.2355L70.5251 41.8481Z" fill="#0E0C15"/>
<path d="M70.946 44.2358L68.5586 44.6567L68.9796 47.0442L71.367 46.6232L70.946 44.2358Z" fill="#0E0C15"/>
<path d="M73.0508 56.1728L70.6634 56.5938L71.0844 58.9812L73.4718 58.5602L73.0508 56.1728Z" fill="#0E0C15"/>
<path d="M73.4718 58.56L71.0844 58.981L71.5054 61.3684L73.8928 60.9474L73.4718 58.56Z" fill="#0E0C15"/>
<path d="M74.3137 63.3349L71.9263 63.7559L72.3473 66.1433L74.7347 65.7223L74.3137 63.3349Z" fill="#0E0C15"/>
<path d="M75.1557 68.1098L72.7683 68.5308L73.1892 70.9182L75.5766 70.4972L75.1557 68.1098Z" fill="#0E0C15"/>
<path d="M75.5766 70.497L73.1892 70.918L73.6102 73.3054L75.9976 72.8844L75.5766 70.497Z" fill="#0E0C15"/>
<path d="M75.9976 72.8847L73.6102 73.3057L74.0312 75.6931L76.4186 75.2721L75.9976 72.8847Z" fill="#0E0C15"/>
<path d="M78.1024 84.8217L75.715 85.2427L76.136 87.6301L78.5234 87.2091L78.1024 84.8217Z" fill="#0E0C15"/>
<path d="M67.0188 8.00335L64.6314 8.42432L65.0524 10.8117L67.4398 10.3908L67.0188 8.00335Z" fill="#0E0C15"/>
<path d="M67.4398 10.391L65.0524 10.812L65.4734 13.1994L67.8608 12.7785L67.4398 10.391Z" fill="#0E0C15"/>
<path d="M69.5446 22.3281L67.1572 22.749L67.5782 25.1364L69.9656 24.7155L69.5446 22.3281Z" fill="#0E0C15"/>
<path d="M69.9656 24.7153L67.5782 25.1362L67.9992 27.5236L70.3866 27.1027L69.9656 24.7153Z" fill="#0E0C15"/>
<path d="M70.3866 27.103L67.9992 27.5239L68.4201 29.9113L70.8075 29.4904L70.3866 27.103Z" fill="#0E0C15"/>
<path d="M70.8075 29.4902L68.4201 29.9111L68.8411 32.2985L71.2285 31.8776L70.8075 29.4902Z" fill="#0E0C15"/>
<path d="M71.6495 34.2651L69.2621 34.686L69.683 37.0734L72.0704 36.6525L71.6495 34.2651Z" fill="#0E0C15"/>
<path d="M72.4914 39.04L70.104 39.4609L70.5249 41.8484L72.9124 41.4274L72.4914 39.04Z" fill="#0E0C15"/>
<path d="M74.1753 48.5898L71.7878 49.0107L72.2088 51.3982L74.5962 50.9772L74.1753 48.5898Z" fill="#0E0C15"/>
<path d="M74.5962 50.977L72.2088 51.3979L72.6298 53.7854L75.0172 53.3644L74.5962 50.977Z" fill="#0E0C15"/>
<path d="M75.8591 58.1391L73.4717 58.5601L73.8927 60.9475L76.2801 60.5265L75.8591 58.1391Z" fill="#0E0C15"/>
<path d="M76.2801 60.5268L73.8927 60.9478L74.3136 63.3352L76.7011 62.9142L76.2801 60.5268Z" fill="#0E0C15"/>
<path d="M76.701 62.914L74.3136 63.335L74.7346 65.7224L77.122 65.3014L76.701 62.914Z" fill="#0E0C15"/>
<path d="M77.122 65.3012L74.7346 65.7222L75.1556 68.1096L77.543 67.6886L77.122 65.3012Z" fill="#0E0C15"/>
<path d="M77.9639 70.0761L75.5765 70.4971L75.9975 72.8845L78.3849 72.4635L77.9639 70.0761Z" fill="#0E0C15"/>
<path d="M79.2268 77.2387L76.8394 77.6597L77.2604 80.0471L79.6478 79.6261L79.2268 77.2387Z" fill="#0E0C15"/>
<path d="M79.6478 79.6259L77.2604 80.0469L77.6814 82.4343L80.0688 82.0133L79.6478 79.6259Z" fill="#0E0C15"/>
<path d="M80.0688 82.0131L77.6814 82.4341L78.1023 84.8215L80.4897 84.4005L80.0688 82.0131Z" fill="#0E0C15"/>
<path d="M69.4065 7.58245L67.0191 8.00342L67.44 10.3908L69.8274 9.96987L69.4065 7.58245Z" fill="#0E0C15"/>
<path d="M72.7742 26.6821L70.3868 27.103L70.8077 29.4904L73.1952 29.0695L72.7742 26.6821Z" fill="#0E0C15"/>
<path d="M73.6161 31.4565L71.2287 31.8774L71.6497 34.2649L74.0371 33.8439L73.6161 31.4565Z" fill="#0E0C15"/>
<path d="M74.879 38.6191L72.4916 39.04L72.9126 41.4275L75.3 41.0065L74.879 38.6191Z" fill="#0E0C15"/>
<path d="M75.721 43.3935L73.3335 43.8145L73.7545 46.2019L76.1419 45.7809L75.721 43.3935Z" fill="#0E0C15"/>
<path d="M76.1419 45.7812L73.7545 46.2021L74.1755 48.5896L76.5629 48.1686L76.1419 45.7812Z" fill="#0E0C15"/>
<path d="M76.9838 50.5561L74.5964 50.9771L75.0174 53.3645L77.4048 52.9435L76.9838 50.5561Z" fill="#0E0C15"/>
<path d="M77.8258 55.331L75.4384 55.752L75.8593 58.1394L78.2467 57.7184L77.8258 55.331Z" fill="#0E0C15"/>
<path d="M78.2467 57.7182L75.8593 58.1392L76.2803 60.5266L78.6677 60.1056L78.2467 57.7182Z" fill="#0E0C15"/>
<path d="M79.9306 67.268L77.5432 67.689L77.9642 70.0764L80.3516 69.6554L79.9306 67.268Z" fill="#0E0C15"/>
<path d="M80.7725 72.0424L78.3851 72.4634L78.8061 74.8508L81.1935 74.4298L80.7725 72.0424Z" fill="#0E0C15"/>
<path d="M81.1935 74.4301L78.8061 74.8511L79.2271 77.2385L81.6145 76.8175L81.1935 74.4301Z" fill="#0E0C15"/>
<path d="M81.6145 76.8173L79.2271 77.2383L79.648 79.6257L82.0354 79.2047L81.6145 76.8173Z" fill="#0E0C15"/>
<path d="M82.0354 79.205L79.648 79.626L80.069 82.0134L82.4564 81.5924L82.0354 79.205Z" fill="#0E0C15"/>
<path d="M82.8774 83.9799L80.49 84.4009L80.9109 86.7883L83.2983 86.3673L82.8774 83.9799Z" fill="#0E0C15"/>
<path d="M71.7941 7.16155L69.4067 7.58252L69.8276 9.96993L72.2151 9.54897L71.7941 7.16155Z" fill="#0E0C15"/>
<path d="M72.636 11.9365L70.2486 12.3574L70.6696 14.7448L73.057 14.3239L72.636 11.9365Z" fill="#0E0C15"/>
<path d="M73.057 14.3237L70.6696 14.7446L71.0905 17.132L73.478 16.7111L73.057 14.3237Z" fill="#0E0C15"/>
<path d="M73.478 16.7114L71.0905 17.1323L71.5115 19.5197L73.8989 19.0988L73.478 16.7114Z" fill="#0E0C15"/>
<path d="M73.8989 19.0986L71.5115 19.5195L71.9325 21.9069L74.3199 21.486L73.8989 19.0986Z" fill="#0E0C15"/>
<path d="M74.3199 21.4858L71.9325 21.9067L72.3534 24.2942L74.7409 23.8732L74.3199 21.4858Z" fill="#0E0C15"/>
<path d="M75.1618 26.2607L72.7744 26.6816L73.1954 29.0691L75.5828 28.6481L75.1618 26.2607Z" fill="#0E0C15"/>
<path d="M76.0037 31.0356L73.6163 31.4565L74.0373 33.844L76.4247 33.423L76.0037 31.0356Z" fill="#0E0C15"/>
<path d="M76.8457 35.8105L74.4583 36.2314L74.8792 38.6189L77.2666 38.1979L76.8457 35.8105Z" fill="#0E0C15"/>
<path d="M78.1086 42.9726L75.7212 43.3936L76.1421 45.781L78.5295 45.36L78.1086 42.9726Z" fill="#0E0C15"/>
<path d="M78.5295 45.3603L76.1421 45.7812L76.5631 48.1687L78.9505 47.7477L78.5295 45.3603Z" fill="#0E0C15"/>
<path d="M78.9505 47.7475L76.5631 48.1685L76.9841 50.5559L79.3715 50.1349L78.9505 47.7475Z" fill="#0E0C15"/>
<path d="M79.7924 52.5224L77.405 52.9434L77.826 55.3308L80.2134 54.9098L79.7924 52.5224Z" fill="#0E0C15"/>
<path d="M80.6344 57.2973L78.247 57.7183L78.6679 60.1057L81.0553 59.6847L80.6344 57.2973Z" fill="#0E0C15"/>
<path d="M81.0553 59.6845L78.6679 60.1055L79.0889 62.4929L81.4763 62.0719L81.0553 59.6845Z" fill="#0E0C15"/>
<path d="M81.4763 62.0722L79.0889 62.4932L79.5098 64.8806L81.8973 64.4596L81.4763 62.0722Z" fill="#0E0C15"/>
<path d="M81.8973 64.4594L79.5098 64.8804L79.9308 67.2678L82.3182 66.8468L81.8973 64.4594Z" fill="#0E0C15"/>
<path d="M82.7392 69.2343L80.3518 69.6553L80.7727 72.0427L83.1602 71.6217L82.7392 69.2343Z" fill="#0E0C15"/>
<path d="M83.5811 74.0092L81.1937 74.4302L81.6147 76.8176L84.0021 76.3966L83.5811 74.0092Z" fill="#0E0C15"/>
<path d="M84.0021 76.3964L81.6147 76.8174L82.0356 79.2048L84.4231 78.7838L84.0021 76.3964Z" fill="#0E0C15"/>
<path d="M84.4231 78.7841L82.0356 79.2051L82.4566 81.5925L84.844 81.1715L84.4231 78.7841Z" fill="#0E0C15"/>
<path d="M84.844 81.1713L82.4566 81.5923L82.8776 83.9797L85.265 83.5587L84.844 81.1713Z" fill="#0E0C15"/>
<path d="M74.1814 6.74066L71.794 7.16162L72.215 9.54903L74.6024 9.12807L74.1814 6.74066Z" fill="#0E0C15"/>
<path d="M74.6024 9.12786L72.215 9.54883L72.6359 11.9362L75.0233 11.5153L74.6024 9.12786Z" fill="#0E0C15"/>
<path d="M77.5491 25.8398L75.1617 26.2607L75.5827 28.6482L77.9701 28.2272L77.5491 25.8398Z" fill="#0E0C15"/>
<path d="M77.9701 28.2275L75.5827 28.6484L76.0036 31.0358L78.3911 30.6149L77.9701 28.2275Z" fill="#0E0C15"/>
<path d="M78.3911 30.6147L76.0036 31.0356L76.4246 33.4231L78.812 33.0021L78.3911 30.6147Z" fill="#0E0C15"/>
<path d="M78.812 33.0019L76.4246 33.4229L76.8456 35.8103L79.233 35.3893L78.812 33.0019Z" fill="#0E0C15"/>
<path d="M80.9168 44.9394L78.5294 45.3604L78.9504 47.7478L81.3378 47.3268L80.9168 44.9394Z" fill="#0E0C15"/>
<path d="M81.3378 47.3266L78.9504 47.7476L79.3714 50.135L81.7588 49.714L81.3378 47.3266Z" fill="#0E0C15"/>
<path d="M82.6007 54.4887L80.2133 54.9097L80.6343 57.2971L83.0217 56.8761L82.6007 54.4887Z" fill="#0E0C15"/>
<path d="M83.0217 56.8764L80.6343 57.2974L81.0552 59.6848L83.4426 59.2638L83.0217 56.8764Z" fill="#0E0C15"/>
<path d="M83.4426 59.2636L81.0552 59.6846L81.4762 62.072L83.8636 61.651L83.4426 59.2636Z" fill="#0E0C15"/>
<path d="M84.2846 64.0385L81.8972 64.4595L82.3181 66.8469L84.7055 66.4259L84.2846 64.0385Z" fill="#0E0C15"/>
<path d="M84.7055 66.4257L82.3181 66.8467L82.7391 69.2341L85.1265 68.8131L84.7055 66.4257Z" fill="#0E0C15"/>
<path d="M85.1265 68.8134L82.7391 69.2344L83.1601 71.6218L85.5475 71.2008L85.1265 68.8134Z" fill="#0E0C15"/>
<path d="M85.5475 71.2006L83.1601 71.6216L83.581 74.009L85.9684 73.588L85.5475 71.2006Z" fill="#0E0C15"/>
<path d="M85.9684 73.5883L83.581 74.0093L84.002 76.3967L86.3894 75.9757L85.9684 73.5883Z" fill="#0E0C15"/>
<path d="M86.3894 75.9755L84.002 76.3965L84.423 78.7839L86.8104 78.3629L86.3894 75.9755Z" fill="#0E0C15"/>
<path d="M86.8104 78.3627L84.423 78.7837L84.8439 81.1711L87.2313 80.7501L86.8104 78.3627Z" fill="#0E0C15"/>
<path d="M87.2313 80.7504L84.8439 81.1714L85.2649 83.5588L87.6523 83.1378L87.2313 80.7504Z" fill="#0E0C15"/>
<path d="M87.6523 83.1376L85.2649 83.5586L85.6858 85.946L88.0733 85.525L87.6523 83.1376Z" fill="#0E0C15"/>
<path d="M76.9897 8.70696L74.6023 9.12793L75.0232 11.5153L77.4106 11.0944L76.9897 8.70696Z" fill="#0E0C15"/>
<path d="M77.8316 13.4819L75.4442 13.9028L75.8652 16.2902L78.2526 15.8693L77.8316 13.4819Z" fill="#0E0C15"/>
<path d="M78.2526 15.8691L75.8652 16.29L76.2861 18.6775L78.6735 18.2565L78.2526 15.8691Z" fill="#0E0C15"/>
<path d="M78.6735 18.2568L76.2861 18.6777L76.7071 21.0651L79.0945 20.6442L78.6735 18.2568Z" fill="#0E0C15"/>
<path d="M79.0945 20.644L76.7071 21.0649L77.1281 23.4524L79.5155 23.0314L79.0945 20.644Z" fill="#0E0C15"/>
<path d="M79.5155 23.0317L77.1281 23.4526L77.549 25.8401L79.9364 25.4191L79.5155 23.0317Z" fill="#0E0C15"/>
<path d="M80.3574 27.8066L77.97 28.2275L78.391 30.615L80.7784 30.194L80.3574 27.8066Z" fill="#0E0C15"/>
<path d="M80.7784 30.1938L78.3909 30.6147L78.8119 33.0022L81.1993 32.5812L80.7784 30.1938Z" fill="#0E0C15"/>
<path d="M82.0413 37.3559L79.6538 37.7769L80.0748 40.1643L82.4622 39.7433L82.0413 37.3559Z" fill="#0E0C15"/>
<path d="M82.4622 39.7436L80.0748 40.1646L80.4958 42.552L82.8832 42.131L82.4622 39.7436Z" fill="#0E0C15"/>
<path d="M83.3042 44.518L80.9167 44.939L81.3377 47.3264L83.7251 46.9054L83.3042 44.518Z" fill="#0E0C15"/>
<path d="M83.7251 46.9057L81.3377 47.3267L81.7587 49.7141L84.1461 49.2931L83.7251 46.9057Z" fill="#0E0C15"/>
<path d="M84.5671 51.6806L82.1796 52.1016L82.6006 54.489L84.988 54.068L84.5671 51.6806Z" fill="#0E0C15"/>
<path d="M85.409 56.4555L83.0216 56.8765L83.4425 59.2639L85.8299 58.8429L85.409 56.4555Z" fill="#0E0C15"/>
<path d="M85.8299 58.8427L83.4425 59.2637L83.8635 61.6511L86.2509 61.2301L85.8299 58.8427Z" fill="#0E0C15"/>
<path d="M86.2509 61.2299L83.8635 61.6509L84.2845 64.0383L86.6719 63.6173L86.2509 61.2299Z" fill="#0E0C15"/>
<path d="M86.6719 63.6176L84.2845 64.0386L84.7054 66.426L87.0928 66.005L86.6719 63.6176Z" fill="#0E0C15"/>
<path d="M87.0928 66.0048L84.7054 66.4258L85.1264 68.8132L87.5138 68.3922L87.0928 66.0048Z" fill="#0E0C15"/>
<path d="M87.5138 68.3925L85.1264 68.8135L85.5474 71.2009L87.9348 70.7799L87.5138 68.3925Z" fill="#0E0C15"/>
<path d="M87.9348 70.7797L85.5474 71.2007L85.9683 73.5881L88.3557 73.1671L87.9348 70.7797Z" fill="#0E0C15"/>
<path d="M88.3557 73.1669L85.9683 73.5879L86.3893 75.9753L88.7767 75.5543L88.3557 73.1669Z" fill="#0E0C15"/>
<path d="M88.7767 75.5546L86.3893 75.9756L86.8103 78.363L89.1977 77.942L88.7767 75.5546Z" fill="#0E0C15"/>
<path d="M89.6186 80.3295L87.2312 80.7505L87.6522 83.1379L90.0396 82.7169L89.6186 80.3295Z" fill="#0E0C15"/>
<path d="M82.3237 24.998L79.9363 25.4189L80.3573 27.8064L82.7447 27.3854L82.3237 24.998Z" fill="#0E0C15"/>
<path d="M82.7447 27.3852L80.3573 27.8062L80.7783 30.1936L83.1657 29.7726L82.7447 27.3852Z" fill="#0E0C15"/>
<path d="M83.5866 32.1601L81.1992 32.5811L81.6202 34.9685L84.0076 34.5475L83.5866 32.1601Z" fill="#0E0C15"/>
<path d="M84.0076 34.5478L81.6202 34.9688L82.0412 37.3562L84.4286 36.9352L84.0076 34.5478Z" fill="#0E0C15"/>
<path d="M85.6915 44.0971L83.304 44.5181L83.725 46.9055L86.1124 46.4845L85.6915 44.0971Z" fill="#0E0C15"/>
<path d="M86.1124 46.4848L83.725 46.9058L84.146 49.2932L86.5334 48.8722L86.1124 46.4848Z" fill="#0E0C15"/>
<path d="M86.5334 48.872L84.146 49.293L84.5669 51.6804L86.9544 51.2594L86.5334 48.872Z" fill="#0E0C15"/>
<path d="M86.9544 51.2597L84.5669 51.6807L84.9879 54.0681L87.3753 53.6471L86.9544 51.2597Z" fill="#0E0C15"/>
<path d="M87.3753 53.6469L84.9879 54.0679L85.4089 56.4553L87.7963 56.0343L87.3753 53.6469Z" fill="#0E0C15"/>
<path d="M88.2172 58.4218L85.8298 58.8428L86.2508 61.2302L88.6382 60.8092L88.2172 58.4218Z" fill="#0E0C15"/>
<path d="M88.6382 60.809L86.2508 61.23L86.6718 63.6174L89.0592 63.1964L88.6382 60.809Z" fill="#0E0C15"/>
<path d="M89.0592 63.1967L86.6718 63.6177L87.0927 66.0051L89.4801 65.5841L89.0592 63.1967Z" fill="#0E0C15"/>
<path d="M90.743 72.746L88.3556 73.167L88.7766 75.5544L91.164 75.1334L90.743 72.746Z" fill="#0E0C15"/>
<path d="M81.3436 5.47747L78.9562 5.89844L79.3772 8.28585L81.7646 7.86489L81.3436 5.47747Z" fill="#0E0C15"/>
<path d="M81.7646 7.86517L79.3772 8.28613L79.7982 10.6735L82.1856 10.2526L81.7646 7.86517Z" fill="#0E0C15"/>
<path d="M82.1856 10.2524L79.7982 10.6733L80.2191 13.0608L82.6065 12.6398L82.1856 10.2524Z" fill="#0E0C15"/>
<path d="M82.6065 12.6401L80.2191 13.061L80.6401 15.4484L83.0275 15.0275L82.6065 12.6401Z" fill="#0E0C15"/>
<path d="M83.0275 15.0273L80.6401 15.4482L81.0611 17.8357L83.4485 17.4147L83.0275 15.0273Z" fill="#0E0C15"/>
<path d="M83.4485 17.415L81.0611 17.8359L81.482 20.2233L83.8694 19.8024L83.4485 17.415Z" fill="#0E0C15"/>
<path d="M83.8694 19.8022L81.482 20.2231L81.903 22.6106L84.2904 22.1896L83.8694 19.8022Z" fill="#0E0C15"/>
<path d="M85.1323 26.9643L82.7449 27.3853L83.1659 29.7727L85.5533 29.3517L85.1323 26.9643Z" fill="#0E0C15"/>
<path d="M85.5533 29.352L83.1659 29.7729L83.5868 32.1604L85.9743 31.7394L85.5533 29.352Z" fill="#0E0C15"/>
<path d="M87.2372 38.9013L84.8497 39.3223L85.2707 41.7097L87.6581 41.2887L87.2372 38.9013Z" fill="#0E0C15"/>
<path d="M88.0791 43.6762L85.6917 44.0972L86.1126 46.4846L88.5 46.0636L88.0791 43.6762Z" fill="#0E0C15"/>
<path d="M88.5 46.0639L86.1126 46.4849L86.5336 48.8723L88.921 48.4513L88.5 46.0639Z" fill="#0E0C15"/>
<path d="M89.342 50.8383L86.9546 51.2593L87.3755 53.6467L89.7629 53.2257L89.342 50.8383Z" fill="#0E0C15"/>
<path d="M90.1839 55.6132L87.7965 56.0342L88.2175 58.4216L90.6049 58.0006L90.1839 55.6132Z" fill="#0E0C15"/>
<path d="M91.0258 60.3881L88.6384 60.8091L89.0594 63.1965L91.4468 62.7755L91.0258 60.3881Z" fill="#0E0C15"/>
<path d="M91.4468 62.7758L89.0594 63.1968L89.4804 65.5842L91.8678 65.1632L91.4468 62.7758Z" fill="#0E0C15"/>
<path d="M92.2887 67.5502L89.9013 67.9712L90.3223 70.3586L92.7097 69.9376L92.2887 67.5502Z" fill="#0E0C15"/>
<path d="M93.1307 72.3251L90.7433 72.7461L91.1642 75.1335L93.5516 74.7125L93.1307 72.3251Z" fill="#0E0C15"/>
<path d="M93.9726 77.1L91.5852 77.521L92.0062 79.9084L94.3936 79.4874L93.9726 77.1Z" fill="#0E0C15"/>
<path d="M94.3936 79.4872L92.0062 79.9082L92.4271 82.2956L94.8145 81.8746L94.3936 79.4872Z" fill="#0E0C15"/>
<path d="M94.8145 81.8749L92.4271 82.2959L92.8481 84.6833L95.2355 84.2623L94.8145 81.8749Z" fill="#0E0C15"/>
<path d="M83.7309 5.05657L81.3435 5.47754L81.7645 7.86495L84.1519 7.44399L83.7309 5.05657Z" fill="#0E0C15"/>
<path d="M86.2567 19.3813L83.8693 19.8022L84.2903 22.1897L86.6777 21.7687L86.2567 19.3813Z" fill="#0E0C15"/>
<path d="M89.2035 36.0932L86.8161 36.5142L87.237 38.9016L89.6245 38.4806L89.2035 36.0932Z" fill="#0E0C15"/>
<path d="M89.6245 38.4804L87.237 38.9014L87.658 41.2888L90.0454 40.8678L89.6245 38.4804Z" fill="#0E0C15"/>
<path d="M90.0454 40.8681L87.658 41.2891L88.079 43.6765L90.4664 43.2555L90.0454 40.8681Z" fill="#0E0C15"/>
<path d="M90.8874 45.6425L88.4999 46.0635L88.9209 48.4509L91.3083 48.0299L90.8874 45.6425Z" fill="#0E0C15"/>
<path d="M91.3083 48.0302L88.9209 48.4512L89.3419 50.8386L91.7293 50.4176L91.3083 48.0302Z" fill="#0E0C15"/>
<path d="M91.7293 50.4174L89.3419 50.8384L89.7628 53.2258L92.1503 52.8048L91.7293 50.4174Z" fill="#0E0C15"/>
<path d="M92.5712 55.1923L90.1838 55.6133L90.6048 58.0007L92.9922 57.5797L92.5712 55.1923Z" fill="#0E0C15"/>
<path d="M92.9922 57.58L90.6048 58.001L91.0257 60.3884L93.4131 59.9674L92.9922 57.58Z" fill="#0E0C15"/>
<path d="M93.8341 62.3544L91.4467 62.7754L91.8677 65.1628L94.2551 64.7418L93.8341 62.3544Z" fill="#0E0C15"/>
<path d="M95.518 71.9042L93.1306 72.3252L93.5515 74.7126L95.9389 74.2916L95.518 71.9042Z" fill="#0E0C15"/>
<path d="M95.9389 74.2914L93.5515 74.7124L93.9725 77.0998L96.3599 76.6789L95.9389 74.2914Z" fill="#0E0C15"/>
<path d="M86.1183 4.63568L83.7308 5.05664L84.1518 7.44405L86.5392 7.02309L86.1183 4.63568Z" fill="#0E0C15"/>
<path d="M86.9602 9.41058L84.5728 9.83154L84.9937 12.219L87.3812 11.798L86.9602 9.41058Z" fill="#0E0C15"/>
<path d="M87.3812 11.7978L84.9937 12.2188L85.4147 14.6062L87.8021 14.1852L87.3812 11.7978Z" fill="#0E0C15"/>
<path d="M87.8021 14.1855L85.4147 14.6064L85.8357 16.9939L88.2231 16.5729L87.8021 14.1855Z" fill="#0E0C15"/>
<path d="M88.644 18.9604L86.2566 19.3813L86.6776 21.7688L89.065 21.3478L88.644 18.9604Z" fill="#0E0C15"/>
<path d="M89.486 23.7353L87.0986 24.1562L87.5195 26.5437L89.9069 26.1227L89.486 23.7353Z" fill="#0E0C15"/>
<path d="M90.7489 30.8974L88.3615 31.3184L88.7824 33.7058L91.1698 33.2848L90.7489 30.8974Z" fill="#0E0C15"/>
<path d="M91.1698 33.2846L88.7824 33.7056L89.2034 36.093L91.5908 35.672L91.1698 33.2846Z" fill="#0E0C15"/>
<path d="M92.0118 38.0595L89.6244 38.4805L90.0453 40.8679L92.4327 40.4469L92.0118 38.0595Z" fill="#0E0C15"/>
<path d="M92.8537 42.8344L90.4663 43.2554L90.8873 45.6428L93.2747 45.2218L92.8537 42.8344Z" fill="#0E0C15"/>
<path d="M93.2747 45.2216L90.8873 45.6426L91.3082 48.03L93.6956 47.609L93.2747 45.2216Z" fill="#0E0C15"/>
<path d="M93.6956 47.6093L91.3082 48.0303L91.7292 50.4177L94.1166 49.9967L93.6956 47.6093Z" fill="#0E0C15"/>
<path d="M94.1166 49.9965L91.7292 50.4175L92.1502 52.8049L94.5376 52.3839L94.1166 49.9965Z" fill="#0E0C15"/>
<path d="M95.3795 57.1586L92.9921 57.5796L93.413 59.967L95.8005 59.546L95.3795 57.1586Z" fill="#0E0C15"/>
<path d="M95.8005 59.5463L93.413 59.9673L93.834 62.3547L96.2214 61.9337L95.8005 59.5463Z" fill="#0E0C15"/>
<path d="M96.2214 61.9335L93.834 62.3545L94.255 64.7419L96.6424 64.3209L96.2214 61.9335Z" fill="#0E0C15"/>
<path d="M96.6424 64.3212L94.255 64.7422L94.6759 67.1296L97.0634 66.7086L96.6424 64.3212Z" fill="#0E0C15"/>
<path d="M97.0634 66.7084L94.6759 67.1294L95.0969 69.5168L97.4843 69.0958L97.0634 66.7084Z" fill="#0E0C15"/>
<path d="M97.4843 69.0961L95.0969 69.5171L95.5179 71.9045L97.9053 71.4835L97.4843 69.0961Z" fill="#0E0C15"/>
<path d="M97.9053 71.4833L95.5179 71.9043L95.9388 74.2917L98.3262 73.8707L97.9053 71.4833Z" fill="#0E0C15"/>
<path d="M99.5891 81.0331L97.2017 81.4541L97.6227 83.8415L100.01 83.4205L99.5891 81.0331Z" fill="#0E0C15"/>
<path d="M88.5059 4.21478L86.1185 4.63574L86.5394 7.02315L88.9268 6.60219L88.5059 4.21478Z" fill="#0E0C15"/>
<path d="M89.3478 8.98968L86.9604 9.41064L87.3814 11.7981L89.7688 11.3771L89.3478 8.98968Z" fill="#0E0C15"/>
<path d="M89.7688 11.3769L87.3814 11.7979L87.8023 14.1853L90.1897 13.7643L89.7688 11.3769Z" fill="#0E0C15"/>
<path d="M90.1897 13.7646L87.8023 14.1855L88.2233 16.573L90.6107 16.152L90.1897 13.7646Z" fill="#0E0C15"/>
<path d="M91.0317 18.5395L88.6443 18.9604L89.0652 21.3479L91.4526 20.9269L91.0317 18.5395Z" fill="#0E0C15"/>
<path d="M91.8736 23.3139L89.4862 23.7349L89.9072 26.1223L92.2946 25.7013L91.8736 23.3139Z" fill="#0E0C15"/>
<path d="M93.5575 32.8637L91.1701 33.2847L91.591 35.6721L93.9784 35.2511L93.5575 32.8637Z" fill="#0E0C15"/>
<path d="M93.9784 35.2509L91.591 35.6719L92.012 38.0593L94.3994 37.6383L93.9784 35.2509Z" fill="#0E0C15"/>
<path d="M95.2413 42.4135L92.8539 42.8345L93.2749 45.2219L95.6623 44.8009L95.2413 42.4135Z" fill="#0E0C15"/>
<path d="M95.6623 44.8007L93.2749 45.2217L93.6958 47.6091L96.0833 47.1881L95.6623 44.8007Z" fill="#0E0C15"/>
<path d="M96.0833 47.1884L93.6958 47.6094L94.1168 49.9968L96.5042 49.5758L96.0833 47.1884Z" fill="#0E0C15"/>
<path d="M96.5042 49.5756L94.1168 49.9966L94.5378 52.384L96.9252 51.963L96.5042 49.5756Z" fill="#0E0C15"/>
<path d="M97.3461 54.3505L94.9587 54.7715L95.3797 57.1589L97.7671 56.7379L97.3461 54.3505Z" fill="#0E0C15"/>
<path d="M98.1881 59.1254L95.8007 59.5464L96.2216 61.9338L98.609 61.5128L98.1881 59.1254Z" fill="#0E0C15"/>
<path d="M99.03 63.9003L96.6426 64.3213L97.0636 66.7087L99.451 66.2877L99.03 63.9003Z" fill="#0E0C15"/>
<path d="M99.451 66.2875L97.0636 66.7085L97.4845 69.0959L99.8719 68.6749L99.451 66.2875Z" fill="#0E0C15"/>
<path d="M99.8719 68.6747L97.4845 69.0957L97.9055 71.4831L100.293 71.0621L99.8719 68.6747Z" fill="#0E0C15"/>
<path d="M101.977 80.6117L99.5894 81.0327L100.01 83.4201L102.398 82.9992L101.977 80.6117Z" fill="#0E0C15"/>
<path d="M90.8932 3.79388L88.5058 4.21484L88.9267 6.60226L91.3142 6.18129L90.8932 3.79388Z" fill="#0E0C15"/>
<path d="M91.7351 8.56878L89.3477 8.98975L89.7687 11.3772L92.1561 10.9562L91.7351 8.56878Z" fill="#0E0C15"/>
<path d="M92.1561 10.956L89.7687 11.377L90.1896 13.7644L92.5771 13.3434L92.1561 10.956Z" fill="#0E0C15"/>
<path d="M92.5771 13.3437L90.1896 13.7646L90.6106 16.1521L92.998 15.7311L92.5771 13.3437Z" fill="#0E0C15"/>
<path d="M93.419 18.1181L91.0316 18.5391L91.4525 20.9265L93.8399 20.5055L93.419 18.1181Z" fill="#0E0C15"/>
<path d="M94.2609 22.893L91.8735 23.314L92.2945 25.7014L94.6819 25.2804L94.2609 22.893Z" fill="#0E0C15"/>
<path d="M94.6819 25.2807L92.2945 25.7017L92.7154 28.0891L95.1028 27.6681L94.6819 25.2807Z" fill="#0E0C15"/>
<path d="M95.1028 27.6679L92.7154 28.0889L93.1364 30.4763L95.5238 30.0553L95.1028 27.6679Z" fill="#0E0C15"/>
<path d="M96.3657 34.83L93.9783 35.251L94.3993 37.6384L96.7867 37.2174L96.3657 34.83Z" fill="#0E0C15"/>
<path d="M96.7867 37.2177L94.3993 37.6387L94.8203 40.0261L97.2077 39.6051L96.7867 37.2177Z" fill="#0E0C15"/>
<path d="M97.2077 39.6049L94.8203 40.0259L95.2412 42.4133L97.6286 41.9923L97.2077 39.6049Z" fill="#0E0C15"/>
<path d="M97.6286 41.9926L95.2412 42.4136L95.6622 44.801L98.0496 44.38L97.6286 41.9926Z" fill="#0E0C15"/>
<path d="M98.0496 44.3798L95.6622 44.8008L96.0831 47.1882L98.4706 46.7672L98.0496 44.3798Z" fill="#0E0C15"/>
<path d="M99.3125 51.5419L96.9251 51.9629L97.346 54.3503L99.7335 53.9293L99.3125 51.5419Z" fill="#0E0C15"/>
<path d="M100.154 56.3168L97.767 56.7378L98.188 59.1252L100.575 58.7042L100.154 56.3168Z" fill="#0E0C15"/>
<path d="M102.259 68.2538L99.8718 68.6748L100.293 71.0622L102.68 70.6412L102.259 68.2538Z" fill="#0E0C15"/>
<path d="M102.68 70.6415L100.293 71.0625L100.714 73.4499L103.101 73.029L102.68 70.6415Z" fill="#0E0C15"/>
<path d="M103.522 75.4164L101.135 75.8374L101.556 78.2248L103.943 77.8039L103.522 75.4164Z" fill="#0E0C15"/>
<path d="M104.364 80.1909L101.977 80.6118L102.398 82.9992L104.785 82.5783L104.364 80.1909Z" fill="#0E0C15"/>
<path d="M93.2805 3.37298L90.8931 3.79395L91.314 6.18136L93.7015 5.76039L93.2805 3.37298Z" fill="#0E0C15"/>
<path d="M95.8063 17.6972L93.4189 18.1182L93.8398 20.5056L96.2273 20.0846L95.8063 17.6972Z" fill="#0E0C15"/>
<path d="M97.0692 24.8598L94.6818 25.2808L95.1027 27.6682L97.4901 27.2472L97.0692 24.8598Z" fill="#0E0C15"/>
<path d="M97.4901 27.247L95.1027 27.668L95.5237 30.0554L97.9111 29.6344L97.4901 27.247Z" fill="#0E0C15"/>
<path d="M97.9111 29.6342L95.5237 30.0552L95.9447 32.4426L98.3321 32.0216L97.9111 29.6342Z" fill="#0E0C15"/>
<path d="M98.753 34.4091L96.3656 34.8301L96.7866 37.2175L99.174 36.7965L98.753 34.4091Z" fill="#0E0C15"/>
<path d="M100.016 41.5717L97.6285 41.9927L98.0495 44.3801L100.437 43.9591L100.016 41.5717Z" fill="#0E0C15"/>
<path d="M100.858 46.3461L98.4705 46.7671L98.8914 49.1545L101.279 48.7335L100.858 46.3461Z" fill="#0E0C15"/>
<path d="M102.121 53.5087L99.7333 53.9297L100.154 56.3171L102.542 55.8961L102.121 53.5087Z" fill="#0E0C15"/>
<path d="M102.542 55.8959L100.154 56.3169L100.575 58.7043L102.963 58.2833L102.542 55.8959Z" fill="#0E0C15"/>
<path d="M102.963 58.2831L100.575 58.7041L100.996 61.0915L103.384 60.6705L102.963 58.2831Z" fill="#0E0C15"/>
<path d="M104.647 67.8329L102.259 68.2539L102.68 70.6413L105.068 70.2204L104.647 67.8329Z" fill="#0E0C15"/>
<path d="M105.068 70.2206L102.68 70.6416L103.101 73.029L105.488 72.6081L105.068 70.2206Z" fill="#0E0C15"/>
<path d="M105.488 72.6078L103.101 73.0288L103.522 75.4162L105.909 74.9953L105.488 72.6078Z" fill="#0E0C15"/>
<path d="M105.909 74.995L103.522 75.416L103.943 77.8034L106.33 77.3825L105.909 74.995Z" fill="#0E0C15"/>
<path d="M95.6681 2.95208L93.2807 3.37305L93.7017 5.76046L96.0891 5.33949L95.6681 2.95208Z" fill="#0E0C15"/>
<path d="M96.0891 5.33929L93.7017 5.76025L94.1226 8.14767L96.51 7.7267L96.0891 5.33929Z" fill="#0E0C15"/>
<path d="M96.51 7.7265L94.1226 8.14746L94.5436 10.5349L96.931 10.1139L96.51 7.7265Z" fill="#0E0C15"/>
<path d="M96.931 10.1142L94.5436 10.5352L94.9646 12.9226L97.352 12.5016L96.931 10.1142Z" fill="#0E0C15"/>
<path d="M97.352 12.5014L94.9646 12.9224L95.3855 15.3098L97.7729 14.8888L97.352 12.5014Z" fill="#0E0C15"/>
<path d="M97.7729 14.8891L95.3855 15.3101L95.8065 17.6975L98.1939 17.2765L97.7729 14.8891Z" fill="#0E0C15"/>
<path d="M98.1939 17.2763L95.8065 17.6973L96.2275 20.0847L98.6149 19.6637L98.1939 17.2763Z" fill="#0E0C15"/>
<path d="M99.0358 22.0512L96.6484 22.4722L97.0694 24.8596L99.4568 24.4386L99.0358 22.0512Z" fill="#0E0C15"/>
<path d="M99.4568 24.4384L97.0694 24.8594L97.4904 27.2468L99.8778 26.8258L99.4568 24.4384Z" fill="#0E0C15"/>
<path d="M99.8778 26.8261L97.4904 27.2471L97.9113 29.6345L100.299 29.2135L99.8778 26.8261Z" fill="#0E0C15"/>
<path d="M102.404 41.1503L100.016 41.5713L100.437 43.9587L102.825 43.5377L102.404 41.1503Z" fill="#0E0C15"/>
<path d="M102.825 43.538L100.437 43.959L100.858 46.3464L103.245 45.9254L102.825 43.538Z" fill="#0E0C15"/>
<path d="M103.666 48.3129L101.279 48.7339L101.7 51.1213L104.087 50.7003L103.666 48.3129Z" fill="#0E0C15"/>
<path d="M104.508 53.0873L102.121 53.5083L102.542 55.8957L104.929 55.4748L104.508 53.0873Z" fill="#0E0C15"/>
<path d="M104.929 55.475L102.542 55.896L102.963 58.2834L105.35 57.8624L104.929 55.475Z" fill="#0E0C15"/>
<path d="M105.771 60.2499L103.384 60.6709L103.805 63.0583L106.192 62.6373L105.771 60.2499Z" fill="#0E0C15"/>
<path d="M107.034 67.412L104.647 67.833L105.068 70.2204L107.455 69.7995L107.034 67.412Z" fill="#0E0C15"/>
<path d="M107.455 69.7992L105.068 70.2202L105.489 72.6076L107.876 72.1867L107.455 69.7992Z" fill="#0E0C15"/>
<path d="M108.718 76.9618L106.331 77.3828L106.752 79.7702L109.139 79.3493L108.718 76.9618Z" fill="#0E0C15"/>
</g>
<path d="M22.2124 123.686C21.6136 123.791 21.058 123.727 20.5455 123.492C20.033 123.258 19.5939 122.864 19.2283 122.311C18.8707 121.757 18.6154 121.046 18.4626 120.18C18.314 119.337 18.3136 118.598 18.4615 117.962C18.6159 117.318 18.8945 116.801 19.2973 116.414C19.7001 116.026 20.2008 115.779 20.7996 115.674C21.3984 115.568 21.9533 115.628 22.4644 115.855C22.9756 116.082 23.41 116.472 23.7677 117.027C24.1318 117.572 24.3882 118.266 24.5369 119.109C24.6897 119.975 24.6889 120.731 24.5345 121.376C24.388 122.019 24.114 122.538 23.7126 122.934C23.3112 123.33 22.8112 123.58 22.2124 123.686ZM22.0019 122.492C22.3328 122.434 22.6009 122.273 22.8063 122.009C23.0116 121.746 23.1437 121.389 23.2027 120.94C23.2616 120.491 23.2376 119.963 23.1306 119.357C23.0264 118.766 22.8712 118.277 22.665 117.891C22.4575 117.497 22.2128 117.216 21.9311 117.046C21.648 116.868 21.3409 116.809 21.0101 116.867C20.6792 116.925 20.411 117.086 20.2057 117.35C19.999 117.606 19.8655 117.954 19.8052 118.396C19.7435 118.829 19.7647 119.341 19.8689 119.932C19.9759 120.538 20.1338 121.043 20.3428 121.445C20.5517 121.846 20.7978 122.136 21.0809 122.314C21.364 122.491 21.671 122.551 22.0019 122.492ZM27.1344 122.672L25.7716 114.943L28.3479 114.489C28.8836 114.394 29.3767 114.38 29.8271 114.447C30.2854 114.513 30.6705 114.693 30.9824 114.987C31.2928 115.273 31.4988 115.704 31.6002 116.279C31.6974 116.831 31.6512 117.306 31.4616 117.705C31.272 118.104 30.9759 118.428 30.5731 118.678C30.1782 118.926 29.7129 119.098 29.1772 119.192L27.9718 119.405L28.5052 122.43L27.1344 122.672ZM27.7801 118.318L28.8437 118.13C29.3794 118.036 29.7657 117.854 30.0026 117.584C30.2473 117.314 30.3307 116.958 30.253 116.517C30.1752 116.076 29.9792 115.793 29.665 115.67C29.3573 115.537 28.9356 115.518 28.3998 115.613L27.3362 115.8L27.7801 118.318ZM28.8644 118.87L29.7133 117.879L32.866 121.661L31.3178 121.934L28.8644 118.87ZM44.7349 119.715C44.1913 119.81 43.6539 119.804 43.1229 119.694C42.5918 119.585 42.1013 119.383 41.6513 119.089L42.2903 118.013C42.6277 118.222 42.9961 118.376 43.3955 118.476C43.7936 118.569 44.1975 118.579 44.6071 118.506C45.0562 118.427 45.3837 118.28 45.5894 118.065C45.7938 117.842 45.8724 117.597 45.8252 117.329C45.7849 117.101 45.6978 116.929 45.5639 116.815C45.4286 116.692 45.2541 116.601 45.0405 116.541C44.8347 116.48 44.5928 116.421 44.3148 116.365L43.1817 116.089C42.8944 116.026 42.6055 115.931 42.3149 115.803C42.0323 115.675 41.7846 115.491 41.5719 115.252C41.3671 115.012 41.2314 114.703 41.1647 114.325C41.0925 113.915 41.1421 113.528 41.3136 113.165C41.4837 112.794 41.753 112.478 42.1215 112.219C42.4965 111.949 42.9439 111.769 43.4639 111.677C43.9366 111.594 44.4017 111.605 44.859 111.711C45.3229 111.808 45.7428 111.978 46.1186 112.22L45.5637 113.22C45.2662 113.053 44.962 112.94 44.651 112.881C44.3466 112.813 43.9974 112.814 43.6035 112.883C43.241 112.947 42.9595 113.078 42.7588 113.276C42.5581 113.474 42.4835 113.718 42.5349 114.01C42.5696 114.207 42.6611 114.357 42.8094 114.461C42.9577 114.565 43.1386 114.647 43.3523 114.707C43.5738 114.765 43.8064 114.817 44.0502 114.864L45.1436 115.122C45.4967 115.19 45.8153 115.292 46.0993 115.429C46.3834 115.565 46.62 115.755 46.809 115.998C46.9967 116.233 47.1238 116.54 47.1905 116.918C47.2641 117.335 47.2173 117.737 47.0499 118.124C46.8826 118.511 46.6049 118.849 46.217 119.136C45.8277 119.416 45.3336 119.609 44.7349 119.715ZM52.849 118.284C52.3684 118.369 51.9001 118.362 51.4441 118.263C50.996 118.164 50.5806 117.973 50.1978 117.691C49.823 117.408 49.5012 117.034 49.2324 116.57C48.9716 116.104 48.7849 115.552 48.6724 114.914C48.5237 114.071 48.5503 113.323 48.7519 112.67C48.9601 112.008 49.3043 111.472 49.7845 111.062C50.2711 110.643 50.8532 110.374 51.5308 110.255C52.0114 110.17 52.4581 110.193 52.871 110.323C53.2839 110.453 53.6307 110.624 53.9115 110.834L53.3052 111.818C53.0814 111.655 52.8416 111.539 52.5858 111.47C52.33 111.401 52.0485 111.394 51.7412 111.448C51.3158 111.523 50.9578 111.704 50.6672 111.991C50.383 112.269 50.1872 112.632 50.0796 113.082C49.972 113.531 49.9696 114.047 50.0724 114.63C50.1752 115.213 50.3548 115.702 50.611 116.095C50.8672 116.489 51.1809 116.771 51.5521 116.941C51.9219 117.103 52.3274 117.145 52.7686 117.067C53.0916 117.01 53.3673 116.893 53.5958 116.714C53.8229 116.528 54.0259 116.297 54.2049 116.022L55.1091 116.728C54.8658 117.144 54.5566 117.487 54.1817 117.756C53.8053 118.018 53.3611 118.194 52.849 118.284ZM56.3765 117.516L57.5191 109.345L59.1263 109.062L62.9944 116.349L61.5409 116.605L59.6458 112.699C59.4632 112.309 59.2707 111.908 59.0683 111.497C58.8737 111.084 58.6877 110.674 58.5102 110.267L58.463 110.275C58.4277 110.72 58.3891 111.17 58.3474 111.624C58.3135 112.077 58.2736 112.518 58.2276 112.949L57.771 117.27L56.3765 117.516ZM57.4849 115.163L57.2953 114.088L60.9233 113.448L61.1129 114.524L57.4849 115.163ZM64.5143 116.081L63.1515 108.352L64.5933 108.098L67.4025 112.074L68.3915 113.606L68.4269 113.6C68.3338 113.21 68.2187 112.787 68.0816 112.332C67.9524 111.876 67.8495 111.431 67.7731 110.998L67.1813 107.641L68.4931 107.41L69.8559 115.139L68.4141 115.393L65.6028 111.405L64.616 109.885L64.5805 109.891C64.6764 110.297 64.7882 110.724 64.9161 111.172C65.0504 111.612 65.1551 112.044 65.2301 112.47L65.8261 115.849L64.5143 116.081ZM82.2093 113.107C81.6106 113.212 81.0549 113.148 80.5424 112.913C80.0299 112.679 79.5909 112.285 79.2253 111.732C78.8676 111.178 78.6124 110.467 78.4595 109.601C78.3109 108.758 78.3105 108.019 78.4585 107.383C78.6129 106.739 78.8915 106.222 79.2942 105.835C79.697 105.447 80.1978 105.2 80.7965 105.094C81.3953 104.989 81.9503 105.049 82.4614 105.276C82.9725 105.503 83.4069 105.893 83.7646 106.448C84.1288 106.993 84.3852 107.687 84.5338 108.53C84.6866 109.396 84.6858 110.152 84.5314 110.796C84.3849 111.44 84.1109 111.959 83.7096 112.355C83.3082 112.751 82.8081 113.001 82.2093 113.107ZM82.0114 111.984C82.3423 111.926 82.6104 111.765 82.8157 111.501C83.0211 111.237 83.1525 110.877 83.21 110.42C83.2676 109.963 83.2401 109.416 83.1275 108.778C83.0233 108.187 82.8682 107.698 82.662 107.312C82.4544 106.918 82.2098 106.636 81.928 106.467C81.6449 106.289 81.3379 106.23 81.007 106.288C80.6761 106.346 80.408 106.507 80.2027 106.771C79.9959 107.027 79.8624 107.375 79.8021 107.816C79.7404 108.25 79.7617 108.762 79.8658 109.353C79.9784 109.991 80.1398 110.515 80.3501 110.925C80.5605 111.334 80.8072 111.628 81.0903 111.805C81.3735 111.983 81.6805 112.042 82.0114 111.984ZM84.713 114.591C83.9803 114.72 83.3397 114.634 82.791 114.332C82.2516 114.038 81.8195 113.614 81.4947 113.062L82.8781 112.684C83.0014 112.922 83.155 113.103 83.3389 113.224C83.5243 113.354 83.7296 113.436 83.9548 113.469C84.1879 113.501 84.4305 113.495 84.6826 113.451C84.8008 113.43 84.9083 113.395 85.0052 113.345C85.1034 113.303 85.1845 113.256 85.2485 113.205L85.6821 114.213C85.5658 114.29 85.4284 114.363 85.2699 114.431C85.1114 114.5 84.9258 114.553 84.713 114.591ZM87.1313 112.093L85.7685 104.364L88.3448 103.91C88.8805 103.815 89.3736 103.801 89.8241 103.868C90.2824 103.934 90.6675 104.113 90.9793 104.408C91.2898 104.694 91.4957 105.125 91.5971 105.7C91.6944 106.252 91.6482 106.727 91.4586 107.126C91.269 107.525 90.9728 107.849 90.5701 108.099C90.1752 108.347 89.7099 108.519 89.1741 108.613L87.9687 108.826L88.5022 111.851L87.1313 112.093ZM87.777 107.738L88.8406 107.551C89.3764 107.456 89.7626 107.275 89.9995 107.005C90.2442 106.735 90.3277 106.379 90.2499 105.938C90.1721 105.496 89.9761 105.214 89.6619 105.091C89.3542 104.958 88.9325 104.939 88.3968 105.034L87.3332 105.221L87.777 107.738ZM88.8614 108.291L89.7103 107.3L92.8629 111.082L91.3148 111.355L88.8614 108.291ZM105.346 109.027C104.866 109.112 104.397 109.105 103.941 109.007C103.493 108.907 103.078 108.716 102.695 108.435C102.32 108.151 101.999 107.778 101.73 107.313C101.469 106.847 101.282 106.295 101.17 105.657C101.021 104.814 101.048 104.066 101.249 103.413C101.457 102.751 101.802 102.215 102.282 101.806C102.768 101.387 103.351 101.118 104.028 100.998C104.509 100.913 104.955 100.936 105.368 101.066C105.781 101.197 106.128 101.367 106.409 101.577L105.803 102.562C105.579 102.398 105.339 102.282 105.083 102.213C104.827 102.145 104.546 102.137 104.239 102.192C103.813 102.267 103.455 102.448 103.164 102.734C102.88 103.012 102.685 103.376 102.577 103.825C102.469 104.275 102.467 104.791 102.57 105.374C102.673 105.957 102.852 106.445 103.108 106.839C103.365 107.232 103.678 107.514 104.049 107.684C104.419 107.846 104.825 107.888 105.266 107.811C105.589 107.754 105.865 107.636 106.093 107.458C106.32 107.271 106.523 107.041 106.702 106.765L107.606 107.471C107.363 107.888 107.054 108.231 106.679 108.5C106.303 108.761 105.858 108.937 105.346 109.027ZM112.208 107.817C111.609 107.923 111.053 107.858 110.541 107.624C110.028 107.389 109.589 106.995 109.224 106.443C108.866 105.888 108.611 105.178 108.458 104.311C108.309 103.468 108.309 102.729 108.457 102.094C108.611 101.449 108.89 100.933 109.293 100.545C109.695 100.157 110.196 99.9105 110.795 99.8049C111.394 99.6993 111.949 99.7599 112.46 99.9865C112.971 100.213 113.405 100.604 113.763 101.158C114.127 101.703 114.384 102.397 114.532 103.24C114.685 104.107 114.684 104.862 114.53 105.507C114.383 106.15 114.109 106.67 113.708 107.065C113.307 107.461 112.807 107.712 112.208 107.817ZM111.997 106.624C112.328 106.565 112.596 106.404 112.802 106.141C113.007 105.877 113.139 105.521 113.198 105.072C113.257 104.623 113.233 104.095 113.126 103.488C113.022 102.897 112.867 102.409 112.66 102.023C112.453 101.629 112.208 101.347 111.927 101.177C111.643 101 111.336 100.94 111.005 100.998C110.675 101.057 110.406 101.218 110.201 101.481C109.994 101.737 109.861 102.086 109.801 102.527C109.739 102.96 109.76 103.472 109.864 104.063C109.971 104.67 110.129 105.174 110.338 105.576C110.547 105.978 110.793 106.267 111.076 106.445C111.359 106.622 111.666 106.682 111.997 106.624ZM117.059 106.816L115.696 99.0869L117.729 98.7285C118.485 98.5951 119.16 98.6223 119.754 98.8101C120.355 98.9965 120.848 99.3483 121.231 99.8655C121.623 100.381 121.894 101.065 122.044 101.916C122.195 102.774 122.177 103.521 121.988 104.155C121.806 104.781 121.472 105.286 120.988 105.672C120.504 106.058 119.895 106.316 119.162 106.445L117.059 106.816ZM118.234 105.463L118.813 105.361C119.309 105.273 119.709 105.101 120.014 104.845C120.324 104.579 120.534 104.225 120.643 103.783C120.752 103.342 120.75 102.802 120.637 102.164C120.526 101.533 120.345 101.033 120.093 100.663C119.841 100.294 119.525 100.045 119.145 99.9167C118.772 99.7873 118.338 99.7664 117.842 99.8539L117.263 99.9561L118.234 105.463ZM124.854 105.441L123.491 97.7124L128.443 96.8393L128.647 97.9975L125.066 98.6288L125.414 100.602L128.451 100.067L128.656 101.225L125.618 101.761L126.021 104.041L129.72 103.389L129.924 104.547L124.854 105.441Z" fill="#0E0C15"/>
<defs>
<clipPath id="clip0_1258_5140">
<rect width="80" height="80" fill="white" transform="translate(16.8834 16.8438) rotate(-10)"/>
</clipPath>
</defs>
</svg>
