<svg width="32" height="40" viewBox="0 0 32 40" fill="none" xmlns="http://www.w3.org/2000/svg">
<g id="Group">
<g id="Group_2">
<g id="Group_3">
<path id="Vector" d="M14.5205 39.8396C3.58127 41.2273 -6.44939 33.4583 -7.83912 22.5201C-9.22886 11.5778 -1.45995 1.54818 9.4803 0.160474C20.4206 -1.22723 30.4502 6.53968 31.84 17.4779C33.2307 28.4192 25.4608 38.4508 14.5205 39.8396ZM9.69552 1.84361C-0.315869 3.11457 -7.42495 12.2935 -6.15399 22.3059C-4.88201 32.3173 4.29696 39.4254 14.3073 38.1544C24.3187 36.8855 31.4278 27.7045 30.1568 17.6941C28.8849 7.68272 19.7059 0.574675 9.69552 1.84361Z" fill="#5E5CE6"/>
</g>
</g>
<g id="Group_4">
<g id="Group_5">
<path id="Vector_2" d="M14.2814 27.7104C2.4529 29.2118 -7.0225 23.9127 -7.16056 23.8356C-7.4316 23.6782 -7.526 23.333 -7.36967 23.062C-7.21435 22.7909 -6.86819 22.6986 -6.59714 22.8529C-6.40223 22.9635 13.182 33.8896 30.8851 19.1192C31.1247 18.9192 31.481 18.9496 31.682 19.1902C31.882 19.4308 31.8496 19.7882 31.61 19.9902C25.7952 24.8406 19.7835 27.0099 14.2814 27.7104Z" fill="#5E5CE6"/>
</g>
</g>
<g id="Group_6">
<g id="Group_7">
<path id="Vector_3" d="M-7.03741 21.2226C-7.29729 21.2571 -7.56732 21.1688 -7.76121 20.9638C-8.08301 20.6267 -8.07083 20.0897 -7.73076 19.7659C-7.67594 19.7131 -6.36234 18.4736 -4.05491 16.888C-3.66712 16.625 -3.13925 16.7204 -2.87429 17.1082C-2.60934 17.494 -2.70781 18.0208 -3.09357 18.2899C-5.28121 19.7902 -6.54913 20.9841 -6.56132 20.9983C-6.69735 21.1252 -6.86484 21.2023 -7.03741 21.2226ZM30.5972 15.8657C30.4195 15.886 30.2347 15.8556 30.0672 15.7591C28.7912 15.0272 27.4786 14.3886 26.167 13.8618C25.7315 13.6882 25.5194 13.1948 25.695 12.7573C25.8686 12.3228 26.363 12.1106 26.7985 12.2852C28.1831 12.8405 29.5688 13.5126 30.9139 14.2861C31.32 14.5206 31.46 15.0394 31.2265 15.4454C31.0875 15.686 30.852 15.8342 30.5972 15.8657ZM0.401593 16.0718C0.063549 16.1185 -0.282619 15.951 -0.45418 15.6302C-0.675482 15.218 -0.520162 14.7033 -0.105982 14.4831C1.27157 13.744 2.68466 13.0892 4.09064 12.535C4.52817 12.3634 5.01949 12.5776 5.19207 13.0141C5.36363 13.4486 5.14943 13.943 4.71292 14.1136C3.36683 14.6424 2.01567 15.2708 0.695979 15.9774C0.600555 16.0312 0.501078 16.0616 0.401593 16.0718ZM22.2729 12.5654C22.1775 12.5756 22.077 12.5715 21.9775 12.5512C20.5543 12.2244 19.0956 12.0152 17.6388 11.9269C17.1708 11.9005 16.8135 11.4945 16.8439 11.0285C16.8713 10.5595 17.2733 10.2042 17.7423 10.2336C19.2915 10.328 20.8436 10.5494 22.3552 10.8945C22.813 10.9991 23.0993 11.4549 22.9947 11.9107C22.9125 12.268 22.6171 12.5208 22.2729 12.5654ZM8.81615 12.7827C8.39487 12.8375 7.99082 12.5675 7.88626 12.1452C7.77257 11.6883 8.05073 11.2295 8.50552 11.1168C9.73689 10.8113 10.9804 10.5747 12.2006 10.4214C12.4889 10.391 12.7874 10.3514 13.0848 10.3209C13.5518 10.2753 13.967 10.6184 14.0127 11.0843C14.0574 11.5513 13.6949 11.9817 13.2503 12.0112C12.9701 12.0386 12.6818 12.0721 12.4148 12.1056C11.2606 12.2548 10.0841 12.4741 8.91563 12.7644C8.88111 12.7725 8.84965 12.7786 8.81615 12.7827Z" fill="#5E5CE6"/>
</g>
</g>
</g>
</svg>
