<svg width="80" height="80" viewBox="0 0 80 80" fill="none" xmlns="http://www.w3.org/2000/svg">
<g id="Group">
<g id="Group_2">
<g id="Group_3">
<path id="Vector" d="M45.0399 79.6771C23.162 82.4524 3.10115 66.915 0.321745 45.0391C-2.45766 23.1551 13.0798 3.09628 34.9597 0.32094C56.8396 -2.4544 76.8985 13.079 79.6778 34.9549C82.4593 56.8369 66.9198 76.8997 45.0399 79.6771ZM35.3901 3.68712C15.3679 6.22899 1.15006 24.5864 3.69193 44.6107C6.23582 64.633 24.5933 78.8487 44.6135 76.3069C64.6358 73.7691 78.8536 55.4075 76.3117 35.3873C73.7678 15.365 55.4104 1.14932 35.3901 3.68712Z" fill="#5E5CE6"/>
</g>
</g>
<g id="Group_4">
<g id="Group_5">
<path id="Vector_2" d="M44.5616 55.4198C20.9052 58.4225 1.95487 47.8247 1.67875 47.6704C1.13668 47.3557 0.947877 46.6654 1.26053 46.1233C1.57116 45.5812 2.26348 45.3965 2.80555 45.7051C3.19536 45.9264 42.3628 67.7779 77.7682 38.2379C78.2473 37.8379 78.96 37.8988 79.362 38.38C79.7619 38.8611 79.697 39.5758 79.2178 39.9798C67.5886 49.6803 55.5655 54.0189 44.5616 55.4198Z" fill="#5E5CE6"/>
</g>
</g>
<g id="Group_6">
<g id="Group_7">
<path id="Vector_3" d="M1.925 42.4447C1.40526 42.5137 0.86522 42.3371 0.477443 41.927C-0.166144 41.2529 -0.141783 40.1789 0.538348 39.5313C0.647981 39.4257 3.27512 36.9468 7.88986 33.7756C8.66542 33.2497 9.72113 33.4405 10.251 34.2161C10.7809 34.9876 10.584 36.0413 9.81249 36.5793C5.43731 39.58 2.90154 41.9676 2.87717 41.996C2.60512 42.2498 2.27014 42.4041 1.925 42.4447ZM77.1922 31.7311C76.8369 31.7717 76.4674 31.7108 76.1324 31.5179C73.5804 30.0541 70.9553 28.7771 68.3322 27.7234C67.4612 27.3762 67.0369 26.3895 67.3881 25.5145C67.7353 24.6456 68.7241 24.2212 69.595 24.5704C72.3643 25.6809 75.1356 27.025 77.8257 28.572C78.6378 29.041 78.9179 30.0785 78.451 30.8906C78.1728 31.3717 77.7018 31.6681 77.1922 31.7311ZM16.8026 32.1432C16.1266 32.2366 15.4342 31.9016 15.0911 31.2601C14.6485 30.4358 14.9592 29.4064 15.7875 28.9659C18.5425 27.4879 21.3687 26.1783 24.1805 25.0698C25.0556 24.7267 26.0382 25.1551 26.3833 26.0281C26.7264 26.8971 26.2981 27.8858 25.4251 28.2269C22.733 29.2847 20.0307 30.5414 17.3914 31.9544C17.2005 32.062 17.0016 32.1229 16.8026 32.1432ZM60.5442 25.1307C60.3533 25.151 60.1524 25.143 59.9534 25.1024C57.107 24.4486 54.1896 24.0304 51.2762 23.8537C50.3402 23.8009 49.6256 22.9889 49.6865 22.057C49.7413 21.119 50.5453 20.4084 51.4832 20.4673C54.5814 20.6561 57.6857 21.0987 60.7087 21.789C61.6243 21.9981 62.1968 22.9097 61.9877 23.8213C61.8232 24.5359 61.2324 25.0414 60.5442 25.1307ZM33.6313 25.5653C32.7888 25.6749 31.9807 25.1348 31.7716 24.2902C31.5442 23.3766 32.1005 22.4589 33.0101 22.2336C35.4728 21.6225 37.9598 21.1494 40.4001 20.8429C40.9767 20.782 41.5736 20.7028 42.1685 20.6419C43.1024 20.5505 43.9328 21.2368 44.0241 22.1686C44.1134 23.1026 43.3886 23.9634 42.4994 24.0222C41.939 24.0771 41.3625 24.144 40.8285 24.211C38.5201 24.5095 36.1671 24.948 33.8303 25.5287C33.7612 25.5449 33.6983 25.5571 33.6313 25.5653Z" fill="#5E5CE6"/>
</g>
</g>
</g>
</svg>
