<svg width="79" height="92" viewBox="0 0 79 92" fill="none" xmlns="http://www.w3.org/2000/svg">
<g id="Group">
<g id="Group_2">
<path id="Vector" d="M9.44748 10.7329C9.79167 9.38243 10.7027 8.2326 11.6851 7.40279C12.686 6.57801 13.7774 5.97214 14.8764 5.50115C17.0835 4.56424 19.3337 4.07437 21.5585 3.77686C26.0103 3.25839 30.3846 3.5406 34.6139 4.32962C38.823 5.15264 43.0483 6.27136 46.6837 8.73549C48.4807 9.97879 50.2014 11.4297 51.5172 13.416C52.1658 14.4092 52.7184 15.5471 52.9453 16.8892C53.1688 18.2155 52.9282 19.8316 52.1027 20.9595L51.9108 20.8434C52.3861 19.6109 52.2985 18.404 51.9195 17.4236C51.5455 16.424 50.9125 15.5955 50.2246 14.8437C48.8107 13.3671 47.1126 12.2094 45.3398 11.2131C43.5647 10.2115 41.7162 9.3331 39.83 8.51477C37.9471 7.68544 35.9864 7.01507 33.9757 6.4901C29.952 5.45849 25.7457 4.91017 21.4496 5.14473C19.3065 5.26098 17.1287 5.56549 14.9935 6.29947C13.9292 6.66886 12.8768 7.16844 11.9088 7.86873C10.9547 8.56739 10.0694 9.54251 9.66631 10.7795L9.44748 10.7329Z" fill="#FFC876"/>
</g>
<g id="Group_3">
<path id="Vector_2" d="M52.8948 19.7373C52.2905 20.9497 51.3191 21.8502 50.3328 22.5654C49.3344 23.3011 48.262 23.7611 47.1973 24.2095C45.0543 25.0383 42.8796 25.4775 40.7295 25.7302C36.4273 26.1733 32.1985 25.892 28.1005 25.1313C24.0241 24.3334 19.9261 23.2747 16.3854 20.9197C14.6286 19.7426 12.9483 18.368 11.6115 16.5239C10.9486 15.6024 10.3602 14.5715 10.0126 13.3563C9.66607 12.1639 9.6093 10.6897 10.1504 9.42179L10.3705 9.46892C10.2046 10.7089 10.4982 11.7824 10.9949 12.6759C11.4745 13.5853 12.1515 14.3338 12.8571 15.0282C14.3008 16.3893 15.9686 17.476 17.7073 18.4113C21.1932 20.2538 24.835 21.9456 28.7378 22.9567C32.6342 23.9619 36.6975 24.5103 40.8509 24.3516C42.9228 24.2806 45.0289 24.0263 47.1066 23.3952C48.1351 23.0479 49.183 22.686 50.1508 22.0655C51.1141 21.4735 52.0677 20.7123 52.7022 19.6215L52.8948 19.7373Z" fill="#FFC876"/>
</g>
<g id="Group_4">
<path id="Vector_3" d="M13.168 12.044C11.1214 19.1908 8.93265 26.3179 6.93304 33.4592C6.44368 35.2442 5.99892 37.0309 5.61368 38.8253C5.22657 40.6177 4.89216 42.431 4.46981 44.2457C3.62642 47.8761 2.59077 51.4579 1.46368 55.0326C0.328763 58.6248 -1.1098 62.0911 -2.20837 65.6077C-2.49106 66.4881 -2.76165 67.3734 -3.02921 68.2591L-3.42301 69.5901C-3.50149 69.8329 -3.51299 69.9672 -3.56382 70.1593C-3.5752 70.3416 -3.61941 70.5215 -3.60784 70.705C-3.62966 72.1928 -2.84588 73.5735 -1.94674 74.7095C-0.0688202 76.9894 2.4408 78.6134 5.04896 79.9155C7.67876 81.204 10.481 82.1522 13.3759 82.7806C16.2731 83.4019 19.2644 83.7147 22.2942 83.6618C25.3155 83.5878 28.4161 83.1844 31.349 82.0696C32.7936 81.5128 34.2351 80.7521 35.2748 79.6944C35.7954 79.1812 36.1584 78.5649 36.3325 78.0202L37.0319 75.3742C38.0003 71.7986 38.8878 68.2306 39.8036 64.6231L42.6865 53.8636C43.6625 50.2887 44.592 46.6927 45.6138 43.114C46.6138 39.5425 47.6295 35.9282 48.8453 32.38C49.4619 30.6085 50.0903 28.8604 50.6623 27.091C51.2325 25.3223 51.7801 23.544 52.3214 21.7623L52.5248 21.7927C51.7673 25.403 50.7818 29.0203 49.7534 32.5872C48.7149 36.1439 47.8712 39.7134 47.0311 43.3221L44.4828 54.1212L41.8419 64.9047C40.9602 68.4844 40.0866 72.1081 39.1402 75.7034C38.9079 76.6045 38.6648 77.4953 38.4024 78.434C38.0076 79.6691 37.3062 80.6775 36.5375 81.4359C34.9873 82.9552 33.2993 83.7467 31.6631 84.3693C28.3679 85.5338 25.1273 85.8523 21.9711 85.8567C18.8159 85.8327 15.7399 85.4277 12.7699 84.7088C9.79753 83.9972 6.93058 82.9606 4.23083 81.5656C1.54998 80.1485 -1.02596 78.4295 -3.04391 75.8887C-3.53819 75.2434 -3.98889 74.5353 -4.34178 73.7262C-4.69436 72.9228 -4.94219 71.9841 -4.91056 70.923C-4.9175 70.6634 -4.86001 70.3863 -4.83018 70.1183C-4.7688 69.8618 -4.7001 69.5415 -4.63036 69.3411L-4.21368 68.0014C-3.93044 67.1081 -3.64436 66.216 -3.34464 65.3253C-2.16861 61.7399 -0.682608 58.2903 0.476197 54.7852C1.65487 51.271 2.75418 47.713 3.65099 44.1487C4.10045 42.3653 4.46774 40.5645 4.89383 38.7538C5.31821 36.944 5.8027 35.1391 6.32877 33.3495C8.47008 26.2057 10.7873 19.1244 12.9676 12.0038L13.168 12.044Z" fill="#FFC876"/>
</g>
<g id="Group_5">
<g id="Group_6">
<path id="Vector_4" d="M35.0302 71.7516C34.9205 71.7402 34.8167 71.6979 34.7256 71.621C33.2718 70.3905 31.5149 69.2598 29.5036 68.261C29.1313 68.076 29.0126 67.5063 29.2378 66.9894C29.4633 66.4714 29.9462 66.2004 30.3191 66.3866C32.4124 67.4254 34.2472 68.6069 35.7715 69.8987C36.0964 70.1742 36.126 70.7829 35.8371 71.2584C35.6295 71.6019 35.3124 71.7811 35.0302 71.7516ZM4.74818 65.0205C4.41733 64.986 4.17726 64.6676 4.17972 64.2207C4.18191 63.6816 4.53712 63.158 4.97265 63.0518C7.01057 62.5523 9.26329 62.2797 11.6681 62.2387C12.0947 62.235 12.3757 62.6711 12.294 63.221C12.2124 63.7709 11.8002 64.2222 11.3728 64.2292C9.06116 64.2676 6.90433 64.5288 4.96269 65.0036C4.88821 65.0228 4.81686 65.0277 4.74818 65.0205ZM23.846 66.0229C23.8108 66.0192 23.7755 66.0122 23.7418 66.0019C22.7638 65.7076 21.7543 65.4438 20.7399 65.2176C19.7221 64.9911 18.6869 64.8009 17.6636 64.6503C17.2495 64.589 17.0218 64.0978 17.1559 63.5512C17.2892 63.0044 17.739 62.5918 18.1473 62.6715C19.1983 62.8251 20.2604 63.0215 21.3059 63.2542C22.3466 63.4854 23.3828 63.7565 24.3856 64.059C24.7824 64.1791 24.9611 64.7101 24.7829 65.2466C24.62 65.7375 24.217 66.0616 23.846 66.0229Z" fill="#FFC876"/>
</g>
<g id="Group_7">
<path id="Vector_5" d="M40.6304 79.3955C40.612 79.3938 40.5938 79.3912 40.5761 79.3868C40.2333 79.3163 40.0654 78.8991 40.2017 78.456C40.4415 77.6742 40.4122 76.8288 40.1127 75.9453C39.9851 75.5684 40.1618 75.065 40.5073 74.8221C40.8531 74.5784 41.2381 74.6876 41.3649 75.0644C41.7816 76.2953 41.8078 77.5228 41.4428 78.713C41.3139 79.1338 40.9588 79.4262 40.6304 79.3955Z" fill="#FFC876"/>
</g>
</g>
<g id="Group_8">
<g id="Group_9">
<path id="Vector_6" d="M60.5567 22.6015C60.5356 22.5997 60.5148 22.5968 60.4943 22.5929L57.6587 22.0243C57.2675 21.9454 57.079 21.4806 57.2375 20.9839C57.3965 20.4884 57.8346 20.1437 58.2343 20.2284L61.0699 20.7971C61.4611 20.8759 61.6504 21.3408 61.4911 21.8374C61.3402 22.307 60.932 22.6348 60.5567 22.6015Z" fill="#FFC876"/>
</g>
<g id="Group_10">
<path id="Vector_7" d="M69.2237 27.9848C69.2043 27.9831 69.1852 27.9805 69.1663 27.977C68.8055 27.9053 68.6319 27.4788 68.7798 27.0228L69.5809 24.5501L67.6208 24.162C67.26 24.0903 67.0864 23.6639 67.2343 23.2078C67.3813 22.7526 67.7848 22.4373 68.1553 22.5127L70.7696 23.0298C71.1304 23.1015 71.304 23.528 71.1561 23.9841L70.088 27.2819C69.9473 27.7122 69.5698 28.0147 69.2237 27.9848Z" fill="#FFC876"/>
</g>
<g id="Group_11">
<path id="Vector_8" d="M58.2065 75.6933C58.1911 75.6913 58.1759 75.6885 58.1609 75.6848C57.8742 75.6096 57.7258 75.202 57.8306 74.7729L59.2958 68.7597C59.4004 68.3315 59.709 68.0371 60.0047 68.1197C60.2915 68.194 60.4397 68.6024 60.3351 69.0307L58.8699 75.0439C58.7706 75.4497 58.4806 75.7287 58.2065 75.6933ZM61.1375 63.667C61.1222 63.6651 61.107 63.6622 61.0919 63.6585C60.8052 63.5833 60.6569 63.1757 60.7616 62.7466L62.2274 56.7335C62.3314 56.3052 62.64 56.0179 62.9357 56.0934C63.2224 56.1686 63.3708 56.5762 63.266 57.0053L61.8002 63.0184C61.7017 63.4234 61.4122 63.7025 61.1375 63.667ZM64.0691 51.6408C64.0538 51.6389 64.0386 51.636 64.0237 51.6314C63.7368 51.5571 63.5892 51.1487 63.6932 50.7204L65.1591 44.7073C65.2631 44.279 65.5722 43.9918 65.8679 44.0672C66.1546 44.1425 66.303 44.55 66.1982 44.9791L64.7324 50.9923C64.6333 51.3972 64.3432 51.6762 64.0691 51.6408ZM67.0009 39.6138C66.9856 39.6118 66.9704 39.6089 66.9553 39.6052C66.6686 39.53 66.5203 39.1225 66.625 38.6933L68.0903 32.6801C68.1943 32.2518 68.504 31.9647 68.7991 32.0401C69.0858 32.1153 69.2336 32.5228 69.1294 32.952L67.6642 38.9652C67.5649 39.371 67.275 39.6491 67.0009 39.6138Z" fill="#FFC876"/>
</g>
<g id="Group_12">
<path id="Vector_9" d="M55.8553 84.5157C55.8364 84.5141 55.8163 84.5114 55.7971 84.5079L53.1526 83.9877C52.7877 83.9156 52.6123 83.4862 52.7622 83.0268C52.9118 82.5683 53.3242 82.2472 53.6942 82.3264L55.6777 82.7167L56.4896 80.2252C56.6384 79.7667 57.0568 79.4461 57.4208 79.5247C57.786 79.5959 57.9612 80.0263 57.8115 80.4847L56.7294 83.8065C56.5872 84.2419 56.2054 84.5458 55.8553 84.5157Z" fill="#FFC876"/>
</g>
<g id="Group_13">
<path id="Vector_10" d="M46.2193 82.1774C46.1975 82.1751 46.1759 82.1717 46.1548 82.166L39.7508 80.7229C39.3443 80.6308 39.1415 80.1106 39.2993 79.5589C39.4561 79.0082 39.913 78.6193 40.3211 78.7275L46.725 80.1718C47.1317 80.2627 47.3342 80.7841 47.1767 81.3347C47.0269 81.8576 46.6095 82.2186 46.2193 82.1774ZM33.4114 79.29C33.3904 79.2878 33.368 79.2843 33.3469 79.2786L26.9431 77.8344C26.5363 77.7435 26.3346 77.2222 26.4914 76.6715C26.6481 76.1208 27.0998 75.7326 27.5123 75.8401L33.9162 77.2844C34.3227 77.3764 34.5254 77.8967 34.3676 78.4484C34.2192 78.9691 33.8007 79.3312 33.4114 79.29Z" fill="#FFC876"/>
</g>
<g id="Group_14">
<path id="Vector_11" d="M19.9524 75.8981C19.9314 75.8963 19.9106 75.8934 19.8901 75.8895L17.0545 75.3209C16.6632 75.2421 16.474 74.7771 16.6332 74.2805C16.7914 73.7849 17.2274 73.4421 17.6301 73.525L20.4657 74.0937C20.8569 74.1725 21.0462 74.6375 20.8869 75.134C20.736 75.6037 20.3278 75.9315 19.9524 75.8981Z" fill="#FFC876"/>
</g>
</g>
<g id="Group_15">
<path id="Vector_12" d="M15.2639 68.9492C15.5077 68.1161 15.7053 67.3969 15.8626 66.731L16.7799 66.9239L16.4094 68.3212L16.4572 68.3307C16.9971 67.4348 17.8054 66.9675 18.509 67.1159C18.6281 67.1408 18.706 67.1743 18.7934 67.2233L18.4383 68.4371C18.3387 68.385 18.2358 68.3481 18.0937 68.318C17.354 68.1623 16.6281 68.7392 16.2035 69.6742C16.1275 69.8452 16.0438 70.0445 15.9798 70.2641L14.8762 74.0383L13.8391 73.8203L15.2639 68.9492Z" fill="#FFC876"/>
</g>
<g id="Group_16">
<path id="Vector_13" d="M30.4123 18.9805C30.58 18.5 30.8175 17.7846 31.0042 17.153L33.5462 8.55351L34.5966 8.77281L33.2751 13.242L33.2992 13.2471C33.9086 12.5307 34.737 12.1579 35.6795 12.3535C37.1293 12.6551 37.7219 14.3389 37.0703 16.4974C36.3189 19.0408 34.6286 20.0304 33.3235 19.7589C32.4778 19.5822 31.9192 19.0451 31.7618 18.0134L31.7259 18.0061L31.3305 19.1718L30.4123 18.9805ZM32.3547 16.3573C32.3066 16.5192 32.2827 16.6853 32.2641 16.8383C32.2044 17.7767 32.6385 18.523 33.4112 18.6841C34.5224 18.9159 35.5127 17.9511 35.9953 16.3197C36.4164 14.8936 36.1735 13.5473 35.0372 13.3112C34.312 13.1603 33.4583 13.6231 32.9487 14.5621C32.8815 14.7028 32.7932 14.8735 32.7323 15.079L32.3547 16.3573Z" fill="#FFC876"/>
</g>
</g>
</svg>
