<svg width="144" height="157" viewBox="0 0 144 157" fill="none" xmlns="http://www.w3.org/2000/svg">
<g id="Group">
<g id="Group_2">
<path id="Vector" d="M29.7845 15.0543C30.1793 13.0402 31.6315 11.3943 33.2663 10.2426C34.9354 9.10068 36.8049 8.30152 38.7106 7.70818C42.5393 6.53023 46.5208 6.03648 50.4889 5.83223C58.4419 5.54035 66.3895 6.45668 74.1601 8.12708C81.9001 9.84691 89.719 12.0179 96.6986 16.1679C100.153 18.2577 103.504 20.6545 106.214 23.8198C107.552 25.4015 108.741 27.1925 109.377 29.2575C110.003 31.2981 109.84 33.7274 108.539 35.3494L108.172 35.1517C108.824 33.3315 108.463 31.4876 107.614 29.9553C106.77 28.3945 105.488 27.0647 104.119 25.8455C101.318 23.4439 98.0567 21.4953 94.6875 19.7836C91.3134 18.0635 87.8274 16.5226 84.2835 15.0688C80.7436 13.5986 77.0901 12.3613 73.3705 11.3394C65.9303 9.32323 58.2416 8.0212 50.5221 7.89896C46.6711 7.83682 42.789 8.05693 39.0561 8.93448C37.196 9.37729 35.3793 10.0193 33.7486 10.9757C32.1428 11.9312 30.7078 13.3145 30.1875 15.1495L29.7845 15.0543Z" fill="#FFC876"/>
</g>
<g id="Group_3">
<path id="Vector_2" d="M108.541 35.3512C107.653 37.1147 106.051 38.3669 104.392 39.3376C102.714 40.3379 100.858 40.9139 99.0131 41.4731C95.2878 42.4875 91.4409 42.9102 87.6073 43.0542C79.9264 43.2476 72.2575 42.3556 64.7449 40.7543C57.2651 39.0993 49.703 37.0481 42.9306 33.1015C39.5689 31.1303 36.3122 28.8694 33.597 25.9377C32.2492 24.4733 31.0178 22.8519 30.1898 20.9788C29.3674 19.1405 29.0206 16.9086 29.7857 15.0543L30.1902 15.1497C30.0968 17.0034 30.804 18.6565 31.8474 20.0603C32.8627 21.4862 34.2071 22.691 35.5941 23.8173C38.4219 26.0316 41.6083 27.8566 44.8973 29.4608C51.486 32.6275 58.3307 35.584 65.533 37.5418C72.7227 39.49 80.1376 40.7668 87.5976 40.9863C91.3203 41.1081 95.0743 40.9569 98.7146 40.2337C100.511 39.8231 102.34 39.3926 103.981 38.5627C105.619 37.7755 107.212 36.7316 108.175 35.1549L108.541 35.3512Z" fill="#FFC876"/>
</g>
<g id="Group_4">
<path id="Vector_3" d="M27.9596 20.2132C25.3052 32.121 22.3653 43.9773 19.8029 55.8817C19.1832 58.8586 18.6521 61.8441 18.2404 64.8503C17.8247 67.8528 17.5174 70.8976 17.0362 73.9336C16.0766 80.0076 14.7266 85.9743 13.194 91.917C11.6494 97.8888 9.47844 103.607 7.99097 109.455C7.60343 110.918 7.24079 112.391 6.88422 113.865L6.36482 116.081C6.25692 116.484 6.26045 116.712 6.1974 117.032C6.21054 117.341 6.15822 117.642 6.21711 117.956C6.46537 120.486 8.28873 122.937 10.2927 124.986C14.4599 129.108 19.7502 132.193 25.1726 134.743C30.6352 137.272 36.3728 139.244 42.2313 140.683C48.0931 142.111 54.0806 143.025 60.0729 143.321C66.0443 143.581 72.1082 143.289 77.7004 141.765C80.4533 141.001 83.1601 139.89 85.0127 138.222C85.9435 137.414 86.5421 136.411 86.7802 135.506L87.6475 131.09C88.8654 125.125 89.9247 119.163 91.0323 113.137L94.6357 95.1849C95.8688 89.2224 97.0058 83.2179 98.3289 77.2549C99.6103 71.3012 100.915 65.2768 102.628 59.3902C103.503 56.4526 104.405 53.5562 105.192 50.6163C105.975 47.6775 106.711 44.7195 107.435 41.7549L107.843 41.8325C107.05 47.8833 105.806 53.9167 104.468 59.8588C103.107 65.7823 102.135 71.7527 101.178 77.7899L98.245 95.8527L95.1256 113.877C94.0803 119.86 93.0594 125.918 91.8888 131.919C91.6052 133.424 91.2981 134.91 90.9621 136.474C90.422 138.527 89.23 140.155 87.8557 141.348C85.082 143.737 81.8928 144.87 78.7733 145.721C72.4728 147.283 66.1151 147.412 59.8629 147.017C53.6071 146.574 47.4335 145.492 41.4085 143.889C35.3802 142.298 29.4971 140.168 23.875 137.448C18.2861 134.693 12.8458 131.437 8.35002 126.854C7.24431 125.692 6.21264 124.429 5.35498 123.006C4.49902 121.593 3.8241 119.963 3.67885 118.161C3.61425 117.718 3.67384 117.253 3.68043 116.801C3.75179 116.372 3.82514 115.835 3.92404 115.503L4.48707 113.275C4.87319 111.79 5.26519 110.308 5.68448 108.829C7.31192 102.874 9.58008 97.1903 11.1891 91.3699C12.8358 85.5366 14.3166 79.6186 15.395 73.6641C15.936 70.6847 16.3108 67.6653 16.8002 64.6367C17.2864 61.6092 17.8927 58.5979 18.5843 55.6178C21.4269 43.7271 24.6304 31.9654 27.5548 20.1193L27.9596 20.2132Z" fill="#FFC876"/>
</g>
<g id="Group_5">
<g id="Group_6">
<path id="Vector_4" d="M7.717 118.855C7.67754 118.849 7.63831 118.842 7.5993 118.833C6.85447 118.658 6.39249 117.914 6.56895 117.174C7.04065 115.185 8.32141 113.461 10.3738 112.046C11.0007 111.615 11.8665 111.769 12.3025 112.395C12.7386 113.021 12.5832 113.88 11.9545 114.313C10.4811 115.328 9.57765 116.505 9.26609 117.811C9.1 118.513 8.42115 118.96 7.717 118.855Z" fill="#FFC876"/>
</g>
<g id="Group_7">
<path id="Vector_5" d="M77.4583 124.174C77.2595 124.145 77.0654 124.073 76.8876 123.954C74.0476 122.052 70.6835 120.253 66.8889 118.608C66.1865 118.304 65.865 117.491 66.1699 116.794C66.475 116.096 67.2887 115.776 67.9924 116.082C71.9416 117.794 75.455 119.673 78.433 121.669C79.0678 122.095 79.237 122.951 78.8101 123.582C78.5037 124.038 77.9697 124.25 77.4583 124.174ZM21.9113 111.04C21.3119 110.951 20.8209 110.476 20.74 109.85C20.641 109.095 21.1776 108.405 21.9378 108.309C25.4941 107.859 29.4787 107.753 33.78 107.99C34.5438 108.037 35.1306 108.682 35.0892 109.442C35.0478 110.203 34.3954 110.784 33.6309 110.742C29.496 110.513 25.6811 110.615 22.2925 111.042C22.1627 111.06 22.0358 111.058 21.9113 111.04ZM56.3239 114.781C56.2601 114.771 56.1955 114.757 56.1331 114.739C54.3245 114.207 52.4652 113.714 50.6043 113.273C48.7374 112.831 46.8461 112.438 44.9837 112.101C44.23 111.965 43.7282 111.249 43.8641 110.5C43.9986 109.75 44.7259 109.227 45.4728 109.389C47.3853 109.733 49.326 110.138 51.2438 110.592C53.1528 111.043 55.0613 111.549 56.9159 112.096C57.6499 112.313 58.0714 113.078 57.8546 113.808C57.6564 114.476 56.9962 114.88 56.3239 114.781Z" fill="#FFC876"/>
</g>
<g id="Group_8">
<path id="Vector_6" d="M86.6506 137.535C86.6112 137.529 86.5719 137.522 86.5331 137.511C85.7883 137.336 85.3263 136.592 85.5028 135.852C85.8128 134.545 85.5358 133.087 84.6762 131.521C84.31 130.853 84.5568 130.015 85.2279 129.652C85.8992 129.287 86.7433 129.536 87.108 130.204C88.3043 132.386 88.6716 134.501 88.1999 136.489C88.0336 137.193 87.3548 137.639 86.6506 137.535Z" fill="#FFC876"/>
</g>
</g>
<g id="Group_9">
<g id="Group_10">
<path id="Vector_7" d="M121.608 38.1909C121.569 38.185 121.53 38.1777 121.491 38.1688L116.095 36.8922C115.351 36.7155 114.89 35.9733 115.065 35.2313C115.241 34.491 115.972 34.0225 116.733 34.2095L122.129 35.4861C122.874 35.6628 123.336 36.4052 123.159 37.147C122.991 37.8485 122.313 38.2953 121.608 38.1909Z" fill="#FFC876"/>
</g>
<g id="Group_11">
<path id="Vector_8" d="M137.416 47.5964C137.377 47.5905 137.338 47.5831 137.299 47.5743C136.554 47.3975 136.092 46.6551 136.268 45.9133L137.225 41.8914L133.179 40.9338C132.434 40.757 131.972 40.0146 132.149 39.2728C132.324 38.5323 133.052 38.0667 133.817 38.2511L139.213 39.5276C139.957 39.7044 140.42 40.4468 140.243 41.1886L138.968 46.5527C138.799 47.2525 138.12 47.7008 137.416 47.5964Z" fill="#FFC876"/>
</g>
<g id="Group_12">
<path id="Vector_9" d="M117.656 130.753C117.617 130.747 117.577 130.74 117.538 130.731C116.794 130.554 116.331 129.812 116.508 129.07L118.977 118.675C119.153 117.935 119.876 117.462 120.645 117.654C121.39 117.829 121.852 118.573 121.676 119.313L119.207 129.708C119.039 130.409 118.36 130.857 117.656 130.753ZM122.595 109.964C122.556 109.958 122.516 109.951 122.477 109.942C121.733 109.765 121.271 109.023 121.447 108.281L123.918 97.8863C124.093 97.1458 124.817 96.6857 125.584 96.8643C126.329 97.041 126.791 97.7834 126.615 98.5252L124.144 108.92C123.978 109.62 123.301 110.068 122.595 109.964ZM127.536 89.1747C127.496 89.1689 127.457 89.1615 127.418 89.1511C126.673 88.9759 126.213 88.2322 126.388 87.4917L128.858 77.0972C129.033 76.3567 129.759 75.8968 130.527 76.0754C131.271 76.2521 131.733 76.9945 131.557 77.7363L129.086 88.1309C128.919 88.8309 128.24 89.2791 127.536 89.1747ZM132.477 68.3841C132.437 68.3783 132.398 68.3709 132.359 68.3621C131.614 68.1854 131.152 67.4429 131.329 66.7012L133.798 56.3064C133.973 55.5659 134.7 55.1062 135.466 55.2846C136.211 55.4613 136.671 56.2035 136.496 56.9455L134.027 67.3403C133.86 68.0418 133.181 68.4886 132.477 68.3841Z" fill="#FFC876"/>
</g>
<g id="Group_13">
<path id="Vector_10" d="M113.908 146.511C113.87 146.506 113.829 146.498 113.79 146.489L108.395 145.213C107.65 145.036 107.188 144.293 107.365 143.552C107.541 142.811 108.276 142.341 109.033 142.53L113.08 143.488L114.036 139.464C114.211 138.724 114.959 138.255 115.703 138.442C116.448 138.618 116.91 139.362 116.733 140.102L115.459 145.466C115.291 146.169 114.612 146.616 113.908 146.511Z" fill="#FFC876"/>
</g>
<g id="Group_14">
<path id="Vector_11" d="M96.7829 142.459C96.7434 142.453 96.7042 142.446 96.6654 142.435L84.9361 139.661C84.1915 139.485 83.7293 138.742 83.906 138.001C84.0809 137.26 84.8237 136.78 85.5743 136.979L97.3034 139.754C98.0483 139.929 98.5102 140.673 98.3338 141.414C98.1659 142.117 97.4886 142.564 96.7829 142.459ZM73.3245 136.91C73.2865 136.904 73.2458 136.896 73.207 136.886L61.4779 134.11C60.733 133.935 60.2726 133.192 60.4475 132.451C60.6225 131.711 61.3559 131.23 62.1143 131.429L73.8434 134.205C74.588 134.381 75.0502 135.124 74.8736 135.865C74.7077 136.566 74.0286 137.014 73.3245 136.91Z" fill="#FFC876"/>
</g>
<g id="Group_15">
<path id="Vector_12" d="M49.8655 131.358C49.8261 131.353 49.7868 131.345 49.7478 131.336L44.3522 130.06C43.6076 129.883 43.1454 129.141 43.3221 128.399C43.497 127.658 44.2237 127.192 44.9904 127.377L50.386 128.654C51.1306 128.83 51.5928 129.573 51.4161 130.315C51.2485 131.016 50.5697 131.463 49.8655 131.358Z" fill="#FFC876"/>
</g>
</g>
<g id="Group_16">
<path id="Vector_13" d="M40.5847 119.18C40.9181 117.778 41.18 116.566 41.3701 115.441L43.2746 115.891L42.7934 118.247L42.8925 118.27C43.8163 116.798 45.3702 116.099 46.831 116.445C47.0782 116.503 47.2434 116.571 47.4309 116.666L46.9451 118.709C46.7323 118.606 46.5157 118.529 46.2205 118.459C44.6847 118.096 43.32 118.995 42.6383 120.548C42.5171 120.832 42.3856 121.165 42.2983 121.534L40.789 127.884L38.6358 127.375L40.5847 119.18Z" fill="#FFC876"/>
</g>
<g id="Group_17">
<path id="Vector_14" d="M67.7624 31.1518C68.0053 30.3505 68.3422 29.1559 68.5936 28.0983L72.0162 13.6982L74.1691 14.2087L72.3894 21.6924L72.4389 21.7043C73.5227 20.5558 75.1137 20.0237 77.0452 20.4798C80.0165 21.1825 81.5365 24.1421 80.6503 27.7549C79.6388 32.0138 76.4372 33.4914 73.7626 32.8589C72.0292 32.4476 70.8021 31.456 70.2838 29.669L70.2104 29.6519L69.6443 31.5974L67.7624 31.1518ZM71.1506 26.9091C71.0856 27.1801 71.0702 27.4616 71.0628 27.7211C71.1265 29.3205 72.1446 30.6543 73.7283 31.0294C76.0057 31.5691 77.806 30.0442 78.4562 27.3124C79.0227 24.9244 78.2712 22.5876 75.9426 22.0373C74.4562 21.6858 72.832 22.3687 71.9922 23.9111C71.8849 24.1435 71.7408 24.4244 71.6588 24.7685L71.1506 26.9091Z" fill="#FFC876"/>
</g>
</g>
</svg>
