<svg width="59" height="72" viewBox="0 0 59 72" fill="none" xmlns="http://www.w3.org/2000/svg">
<g id="Group">
<g id="Group_2">
<path id="Vector" d="M4.33148 60.5279C4.33148 60.5279 4.57864 60.5227 5.04177 60.5143C5.50482 60.511 6.18745 60.4776 7.04681 60.4926C7.90834 60.4988 8.95535 60.4948 10.15 60.5374C11.346 60.5671 12.6947 60.6024 14.1599 60.6865C14.8929 60.7235 15.6561 60.7604 16.4466 60.8008C17.237 60.8423 18.0492 60.9129 18.8864 60.9696C20.5602 61.091 22.3278 61.2054 24.1446 61.3982C25.0534 61.4845 25.9788 61.5739 26.915 61.6638C27.3828 61.7087 27.8536 61.753 28.3269 61.7996C28.7989 61.8552 29.2728 61.912 29.7482 61.969C31.6509 62.1983 33.5839 62.4316 35.5171 62.6638C37.4422 62.9416 39.3688 63.2185 41.2644 63.4925C42.2129 63.6204 43.1503 63.7762 44.0755 63.9346C45.001 64.0909 45.9152 64.2447 46.8142 64.3966C48.6154 64.6815 50.3447 65.0329 51.9868 65.3466C53.6315 65.6486 55.1776 65.9872 56.6054 66.2983C58.0347 66.5953 59.3388 66.9115 60.4938 67.191C61.6519 67.4597 62.6541 67.7334 63.4811 67.9488C64.3093 68.1572 64.9537 68.3649 65.3957 68.4875C65.8367 68.616 66.0713 68.6841 66.0713 68.6841L66.0805 68.6863C66.1241 68.6991 66.1482 68.7589 66.1329 68.8218C66.1193 68.8787 66.0763 68.9177 66.0345 68.9122C66.0345 68.9122 50.5901 66.9294 35.1457 64.9466C19.7204 62.8498 4.29426 60.7539 4.29426 60.7539C4.24889 60.748 4.21978 60.6915 4.23002 60.6281C4.23947 60.5695 4.27955 60.5262 4.32156 60.5256L4.33148 60.5279Z" fill="#FF98E2"/>
</g>
<g id="Group_3">
<path id="Vector_2" d="M43.5959 4.51604C43.5959 4.51604 43.4539 4.75236 43.1889 5.19546C43.0558 5.41657 42.892 5.69054 42.6992 6.01217C42.5035 6.33276 42.2963 6.70803 42.0102 7.10022C41.7335 7.49865 41.4275 7.94014 41.0944 8.4203C40.7781 8.89595 40.4021 9.37507 40.0493 9.93129C39.6984 10.4846 39.324 11.0747 38.9309 11.6966C38.5533 12.3353 38.1555 13.0064 37.741 13.7065C37.5208 14.0622 37.3455 14.4214 37.1493 14.787C36.9524 15.1587 36.7521 15.5377 36.548 15.9224C36.336 16.327 36.1095 16.731 35.8841 17.1451C35.6404 17.5467 35.3934 17.9548 35.1422 18.3679C34.6546 19.1718 34.1539 19.9989 33.6424 20.8441C33.3903 21.2678 33.1138 21.6984 32.899 22.1104C32.6658 22.5344 32.4303 22.9635 32.1929 23.3955C31.9342 23.8629 31.6729 24.3331 31.4098 24.8062C31.1234 25.2663 30.8359 25.7287 30.5458 26.1946C29.9689 27.1528 29.37 28.0095 28.7664 28.9009C27.5528 30.6877 26.3199 32.5025 25.0869 34.318L24.6085 34.9776L24.3696 35.3078L24.2481 35.4735L24.1062 35.6517L23.5366 36.3622C23.3455 36.5938 23.1499 36.8013 22.9567 37.0221C22.5728 37.4477 22.1792 37.8411 21.8413 38.1985C21.6604 38.3814 21.5044 38.5606 21.3437 38.7409C21.1811 38.9179 21.0223 39.0984 20.8741 39.2913L20.4181 39.8591C20.2706 40.0612 20.1263 40.266 19.9758 40.4641L19.7522 40.7636L19.6406 40.9119L19.6266 40.9305C19.6869 40.8392 19.635 40.9175 19.6453 40.9017L19.6177 40.9426L19.5623 41.0259C19.4149 41.2457 19.2676 41.4647 19.1204 41.6837C18.8275 42.1203 18.5351 42.5547 18.2459 42.9855C17.9993 43.4037 17.7551 43.8197 17.5125 44.2314C17.2474 44.6836 16.9843 45.1323 16.724 45.5766C16.4709 46.0384 16.1679 46.4595 15.8775 46.8811C15.5879 47.302 15.3012 47.7178 15.0174 48.1293L14.9111 48.2827L14.7919 48.4433L14.5779 48.7269C14.4357 48.9159 14.2939 49.1025 14.1536 49.2886C13.0369 50.7843 11.9576 52.1736 10.9651 53.4512C10.7169 53.7713 10.4745 54.0844 10.2365 54.3918C10.1175 54.5455 9.99974 54.6962 9.88401 54.8464L9.71019 55.0682L9.52002 55.3076C9.05495 55.8821 8.61387 56.4268 8.19989 56.939C8.00005 57.1973 7.77055 57.4367 7.56484 57.6715C7.35663 57.9061 7.15358 58.1282 6.95769 58.3402C6.57774 58.7533 6.22768 59.1325 5.91189 59.4752C5.28963 60.1677 4.8224 60.7405 4.4907 61.1199C4.16179 61.5042 3.98643 61.709 3.98643 61.709L3.97787 61.7197C3.94688 61.7557 3.90023 61.7604 3.8743 61.7297C3.84978 61.7013 3.85202 61.6511 3.87726 61.6153C3.87726 61.6153 4.03568 61.3943 4.33261 60.978C4.48122 60.7706 4.66428 60.5137 4.87942 60.2126C5.09828 59.9148 5.33277 59.5544 5.63506 59.1912C6.22117 58.4411 6.94771 57.5621 7.74149 56.5132C8.51619 55.4341 9.37909 54.2213 10.3138 52.8801C11.2515 51.543 12.2677 50.0942 13.3427 48.5616C13.6074 48.178 13.8909 47.7925 14.1516 47.3948C14.411 46.9909 14.6729 46.5811 14.9383 46.1671C15.4917 45.3549 15.9497 44.4557 16.4605 43.5593C16.7141 43.1074 16.9698 42.6512 17.2281 42.1922C17.5094 41.7537 17.7919 41.3123 18.0767 40.8687C18.2188 40.647 18.3618 40.4237 18.5049 40.2005C18.6517 39.9654 18.8115 39.7622 18.9649 39.5407L19.4302 38.8859L19.9273 38.2556C20.5933 37.4114 21.3535 36.6657 22.0589 35.8848C22.7729 35.1087 23.3946 34.2335 24.0252 33.3401C25.2635 31.548 26.5027 29.7575 27.721 27.9941C28.3266 27.1082 28.9489 26.2453 29.5109 25.3584C29.7981 24.9189 30.0829 24.4815 30.3664 24.0478C30.6283 23.5983 30.8885 23.1517 31.1459 22.7086C32.1491 20.891 33.2702 19.265 34.2933 17.6893C34.5496 17.2973 34.8021 16.9111 35.051 16.5306C35.2841 16.1372 35.5126 15.7509 35.7381 15.3698C35.965 14.988 36.1876 14.6119 36.4062 14.2423C36.627 13.8744 36.8332 13.5037 37.0648 13.1666C37.5172 12.4824 37.937 11.824 38.3623 11.2029C38.798 10.5988 39.2121 10.0255 39.6011 9.4873C40.4067 8.43637 41.143 7.55916 41.726 6.82396C42.0285 6.46619 42.264 6.10662 42.4837 5.81125C42.6996 5.51246 42.8842 5.25729 43.0333 5.05069C43.332 4.63756 43.4909 4.41738 43.4909 4.41738C43.5196 4.37732 43.5658 4.36875 43.5945 4.39518C43.6222 4.42074 43.6249 4.46838 43.6015 4.50741L43.5959 4.51604Z" fill="#FF98E2"/>
</g>
<g id="Group_4">
<path id="Vector_3" d="M61.4396 69.007C61.4396 69.007 61.3649 68.7708 61.2251 68.3285C61.0888 67.885 60.872 67.2423 60.6307 66.4079C60.3847 65.5745 60.0792 64.5691 59.7584 63.4035C59.4409 62.2337 59.0349 60.9645 58.71 59.4085C58.5423 58.6301 58.4343 57.7863 58.324 56.9836C58.2697 56.577 58.2076 56.1894 58.1455 55.7897C58.0659 55.3951 57.9947 54.9968 57.8992 54.5938C57.4974 52.958 57.0584 51.1705 56.655 49.3422C56.2326 47.5296 55.8476 45.5825 55.3133 43.8737C55.0535 43.0489 54.6728 42.2561 54.2871 41.2751C54.0926 40.7893 53.9346 40.2827 53.779 39.774C53.6954 39.5202 53.6435 39.2657 53.5747 39.0103L53.4769 38.6277L53.4275 38.4368L53.4038 38.3414L53.3742 38.2134C52.991 36.2336 52.6078 34.2539 52.2301 32.3052C52.1371 31.82 52.0443 31.3372 51.9524 30.856L51.8884 30.4927L51.8718 30.4026L51.8637 30.3568L51.8594 30.335C51.8561 30.3171 51.8778 30.41 51.8661 30.3601L51.8255 30.1822C51.7706 29.9449 51.7162 29.7085 51.6617 29.4727C51.5534 29.0006 51.4456 28.5324 51.3377 28.0672C51.211 27.6475 51.0854 27.231 50.9605 26.8176C50.8242 26.3649 50.6881 25.9169 50.5538 25.4728C50.4034 25.0302 50.3178 24.555 50.2162 24.0965C50.1171 23.6375 50.0192 23.1824 49.9219 22.7335L49.9038 22.6501L49.8883 22.573L49.8812 22.5312L49.8557 22.3654L49.8037 22.0353C49.7693 21.8153 49.735 21.5975 49.7012 21.3806C49.6412 20.9284 49.593 20.4193 49.5571 19.9572C49.5397 19.4885 49.515 19.0244 49.5328 18.5866C49.539 18.1652 49.5461 17.7515 49.5531 17.3446C49.5418 16.9619 49.551 16.5805 49.5115 16.218C49.4756 15.4888 49.3417 14.7754 49.2601 14.1235C49.1418 13.4383 49.0297 12.7872 48.9247 12.175C48.6856 10.9715 48.4776 9.92201 48.3063 9.0577C48.2127 8.6244 48.1624 8.21968 48.1126 7.87302C48.063 7.5256 48.0213 7.23084 47.9872 6.99099C47.9198 6.51366 47.8831 6.25906 47.8831 6.25906L47.8823 6.25364C47.876 6.20801 47.9032 6.15949 47.9436 6.14429C47.9806 6.13029 48.0162 6.1505 48.0256 6.19032C48.0256 6.19032 48.0851 6.43261 48.1965 6.88669C48.3129 7.3382 48.4568 8.0152 48.69 8.84958C48.9228 9.68239 49.2274 10.6892 49.5395 11.8632C49.6835 12.4554 49.8374 13.0846 49.9998 13.7488C50.1385 14.4299 50.3029 15.1333 50.3886 15.9085C50.4972 16.6736 50.5156 17.5049 50.5411 18.3476C50.5476 18.7718 50.5832 19.1927 50.614 19.6214C50.6639 20.0437 50.7162 20.4692 50.788 20.8981C50.8745 21.32 50.9525 21.7617 51.0496 22.1847C51.159 22.6088 51.2693 23.0376 51.3811 23.4719C51.5803 24.3541 51.8914 25.1899 52.1749 26.0673C52.3204 26.5063 52.4668 26.95 52.6146 27.3962C52.7332 27.8555 52.8517 28.3179 52.9713 28.7842C53.2316 29.7036 53.4018 30.6945 53.6065 31.6597C54.0029 33.6064 54.4064 35.5828 54.8098 37.5599C54.9299 38.0331 55.0374 38.5273 55.1712 38.998C55.3104 39.467 55.4499 39.9352 55.6235 40.3815C55.9634 41.2765 56.3669 42.1448 56.653 43.0858L56.8652 43.7899L57.0398 44.5019C57.1633 44.9709 57.2598 45.4602 57.3523 45.9353C57.5432 46.8908 57.7331 47.8355 57.9183 48.7637C58.2907 50.6196 58.6506 52.414 58.9907 54.1156C59.0733 54.544 59.1323 54.9771 59.1993 55.3986C59.247 55.8283 59.3013 56.2502 59.3317 56.669C59.4013 57.506 59.4642 58.3088 59.5855 59.0584C59.6899 59.8102 59.8537 60.5196 59.9853 61.1924C60.1245 61.8681 60.2566 62.5081 60.3802 63.1099C60.6281 64.3135 60.845 65.3623 61.0233 66.2265C61.3794 67.9541 61.5827 68.9413 61.5827 68.9413C61.5919 68.985 61.5674 69.036 61.5276 69.0543C61.4912 69.0714 61.4537 69.0541 61.4416 69.0155L61.4396 69.007Z" fill="#FF98E2"/>
</g>
<g id="Group_5">
<path id="Vector_4" d="M37.7959 48.6875C37.4047 48.6359 37.1555 48.1464 37.238 47.5853L38.239 40.7302C38.3215 40.1623 38.7122 39.7362 39.1108 39.7776C39.5085 39.818 39.7655 40.3138 39.682 40.8815L38.681 47.7366C38.5985 48.3044 38.2078 48.7305 37.8092 48.6892C37.8046 48.6886 37.8005 48.6881 37.7959 48.6875ZM39.9984 33.606C39.6071 33.5545 39.3579 33.065 39.4404 32.5038L40.6414 24.2774C40.7239 23.7095 41.1146 23.2834 41.5132 23.3248C41.9156 23.3517 42.1679 23.861 42.0844 24.4287L40.8834 32.6552C40.8009 33.223 40.4102 33.6491 40.0118 33.607C40.007 33.6072 40.0025 33.6066 39.9984 33.606ZM42.4002 17.1532C42.009 17.1016 41.7598 16.6121 41.8423 16.051L43.0432 7.82453C43.1258 7.25669 43.5164 6.83059 43.915 6.87192C44.3177 6.91379 44.5696 7.4089 44.4862 7.97587L43.2848 16.2022C43.2022 16.7701 42.8116 17.1962 42.4131 17.1541C42.4094 17.1544 42.4048 17.1538 42.4002 17.1532Z" fill="#FF98E2"/>
</g>
<g id="Group_6">
<path id="Vector_5" d="M61.8146 69.6795C61.668 69.6652 61.5283 69.6078 61.4078 69.504L59.1638 67.5696C58.7617 67.2224 58.7281 66.4874 59.089 65.9276C59.4508 65.367 60.0696 65.1946 60.4719 65.5409L62.7158 67.4753C63.1179 67.8225 63.1515 68.5575 62.7906 69.1173C62.5377 69.5103 62.1576 69.7128 61.8146 69.6795ZM5.16754 63.7269C4.81851 63.693 4.53278 63.4165 4.45423 62.981C4.34426 62.3695 4.68501 61.6751 5.21475 61.4295L12.8855 57.879C13.4137 57.6341 13.9333 57.9308 14.0433 58.5423C14.1526 59.1538 13.8125 59.8483 13.2828 60.0939L5.61204 63.6444C5.45955 63.7148 5.3081 63.7405 5.16754 63.7269ZM53.7408 62.7218C53.5941 62.7076 53.4544 62.6501 53.3339 62.5463L47.5047 57.523C47.1024 57.1766 47.0689 56.4408 47.4298 55.881C47.7909 55.3203 48.4104 55.148 48.8127 55.4943L54.642 60.5176C55.0443 60.864 55.0777 61.5998 54.7168 62.1597C54.4639 62.5526 54.0844 62.7551 53.7408 62.7218ZM20.5097 56.626C20.1607 56.5921 19.875 56.3156 19.7964 55.8801C19.6871 55.2686 20.0272 54.5742 20.5569 54.3286L28.2277 50.7781C28.7566 50.5333 29.2755 50.8298 29.3855 51.4414C29.4955 52.0529 29.1547 52.7473 28.625 52.9929L20.9536 56.5434C20.8019 56.613 20.651 56.6397 20.5097 56.626ZM42.0823 52.6752C41.9357 52.661 41.7959 52.6035 41.6754 52.4997L37.4871 48.8908L36.2959 49.4416C35.7665 49.6855 35.2481 49.3898 35.1388 48.7783C35.0288 48.1668 35.3696 47.4724 35.8991 47.2276L38.0588 46.2277L42.9833 50.4719C43.3854 50.8191 43.4191 51.5541 43.0582 52.114C42.8054 52.5061 42.4253 52.7085 42.0823 52.6752Z" fill="#FF98E2"/>
</g>
</g>
</svg>
