<svg width="150" height="142" viewBox="0 0 150 142" fill="none" xmlns="http://www.w3.org/2000/svg">
<g id="Group">
<g id="Group_2">
<path id="Vector" d="M2.11058 120.51C2.11058 120.51 2.62077 120.525 3.57694 120.555C4.53356 120.593 5.94034 120.605 7.71829 120.707C9.49962 120.796 11.6631 120.887 14.1373 121.062C16.6127 121.218 19.4046 121.396 22.4429 121.66C23.9624 121.784 25.5442 121.911 27.1831 122.046C28.8217 122.182 30.5087 122.365 32.2459 122.529C35.7201 122.869 39.3873 123.207 43.1655 123.669C45.0545 123.885 46.9777 124.107 48.9237 124.331C49.8959 124.443 50.8743 124.554 51.8583 124.669C52.8404 124.798 53.8269 124.928 54.8163 125.059C58.7767 125.585 62.8001 126.12 66.8237 126.654C70.8362 127.256 74.8518 127.857 78.8028 128.451C80.7786 128.734 82.7349 129.059 84.6664 129.386C86.5982 129.71 88.5063 130.03 90.3828 130.345C94.14 130.947 97.7569 131.643 101.189 132.275C104.625 132.888 107.861 133.548 110.85 134.155C113.84 134.741 116.574 135.345 118.995 135.879C121.421 136.396 123.526 136.907 125.261 137.313C126.998 137.708 128.355 138.085 129.283 138.313C130.211 138.55 130.704 138.676 130.704 138.676L130.723 138.68C130.814 138.703 130.872 138.797 130.848 138.892C130.826 138.978 130.742 139.033 130.655 139.021C130.655 139.021 98.4943 134.565 66.3334 130.108C34.1981 125.48 2.0611 120.852 2.0611 120.852C1.96661 120.839 1.89958 120.75 1.91305 120.654C1.92546 120.565 2.00304 120.503 2.08979 120.506L2.11058 120.51Z" fill="#FF98E2"/>
</g>
<g id="Group_3">
<path id="Vector_2" d="M83.6771 9.62625C83.6771 9.62625 83.3894 10.0864 82.8524 10.9494C82.5826 11.3799 82.2509 11.9135 81.8603 12.5398C81.4624 13.1636 81.0492 13.8969 80.4507 14.6533C79.8763 15.4238 79.2413 16.2776 78.5499 17.2061C77.8976 18.1279 77.1034 19.0482 76.3815 20.1285C75.6635 21.2034 74.8973 22.3495 74.0933 23.5576C73.3301 24.8021 72.5259 26.1097 71.6878 27.4738C71.2391 28.1655 70.8986 28.8708 70.5093 29.586C70.1198 30.3136 69.7237 31.0554 69.32 31.8085C68.9015 32.6008 68.4484 33.3898 68 34.1994C67.5051 34.981 67.0037 35.7755 66.4934 36.5794C65.5034 38.1441 64.487 39.7541 63.449 41.3993C62.9387 42.2247 62.3719 43.0605 61.9484 43.8674C61.4835 44.6961 61.0142 45.5349 60.5411 46.3792C60.0246 47.2925 59.5029 48.2111 58.9772 49.1354C58.393 50.03 57.8067 50.9288 57.2149 51.8346C56.045 53.7001 54.8005 55.3562 53.5523 57.0822C51.0411 60.5412 48.4903 64.0544 45.9392 67.569L44.9396 68.8416L44.4405 69.4787L44.1862 69.7982L43.8859 70.1403L42.6794 71.5032C42.2732 71.9467 41.8509 72.3406 41.4371 72.7616C40.6124 73.572 39.7574 74.3154 39.0277 74.9937C38.6351 75.3396 38.3011 75.6816 37.9563 76.0251C37.6063 76.3617 37.266 76.7058 36.954 77.0769L35.9878 78.1659C35.6793 78.5558 35.3792 78.9514 35.0627 79.3325L34.5934 79.9096L34.3591 80.1951L34.3297 80.2308C34.4539 80.0538 34.347 80.2056 34.3681 80.1749L34.3111 80.2542L34.1967 80.4157C33.8923 80.8414 33.5882 81.2655 33.284 81.6897C32.6792 82.5355 32.075 83.3768 31.4778 84.2114C30.9797 85.0262 30.4868 85.8372 29.9966 86.6394C29.4617 87.521 28.9308 88.3955 28.4056 89.2616C27.9014 90.1644 27.269 90.9772 26.6668 91.7927C26.0664 92.607 25.4719 93.4114 24.8832 94.2074L24.6627 94.504L24.4129 94.8134L23.9632 95.3595C23.6645 95.7232 23.3664 96.0824 23.0715 96.4406C20.7285 99.3217 18.4518 101.992 16.3582 104.447C15.8346 105.062 15.3236 105.664 14.8217 106.255C14.5708 106.55 14.3222 106.84 14.0783 107.129L13.7112 107.555L13.3089 108.014C12.3226 109.116 11.3871 110.16 10.5092 111.142C10.0879 111.639 9.59154 112.093 9.15102 112.54C8.70451 112.988 8.26757 113.41 7.84558 113.813C7.02746 114.598 6.27339 115.319 5.59329 115.971C4.2569 117.289 3.26502 118.387 2.5549 119.111C1.85252 119.845 1.47805 120.236 1.47805 120.236L1.4599 120.257C1.39368 120.326 1.28317 120.328 1.21446 120.262C1.14963 120.201 1.14401 120.099 1.19653 120.03C1.19653 120.03 1.527 119.603 2.14589 118.799C2.45587 118.399 2.83739 117.903 3.28593 117.322C3.74412 116.748 4.22595 116.048 4.86932 115.353C6.10666 113.912 7.65159 112.229 9.32013 110.21C10.9365 108.127 12.7344 105.785 14.6761 103.192C16.6257 100.608 18.7386 97.8076 20.9737 94.8455C21.5227 94.1036 22.1163 93.3604 22.6526 92.5892C23.1845 91.8051 23.7212 91.0094 24.2651 90.2056C25.4107 88.6336 26.3092 86.8709 27.3344 85.1213C27.8419 84.239 28.3538 83.348 28.8709 82.4516C29.4475 81.6004 30.0264 80.7433 30.6105 79.8824C30.9017 79.4518 31.1949 79.0184 31.4881 78.585C31.7877 78.1281 32.1253 77.7377 32.4438 77.3094L33.4132 76.0448L34.4637 74.8345C35.8715 73.2135 37.5262 71.8063 39.0421 70.3199C40.5794 68.8441 41.8746 67.1538 43.187 65.4277C45.7558 61.9614 48.3271 58.4986 50.8544 55.0877C52.1086 53.3733 53.4079 51.7081 54.5578 49.9852C55.1483 49.1328 55.7337 48.2843 56.3165 47.4431C56.8446 46.5666 57.3689 45.6958 57.8876 44.8318C59.8888 41.2798 62.2137 38.1345 64.3153 35.0772C64.8424 34.3169 65.3618 33.5678 65.8736 32.8299C66.345 32.0634 66.8069 31.3108 67.2627 30.5681C67.7217 29.8243 68.1716 29.0915 68.6136 28.3714C69.0611 27.6551 69.4731 26.9307 69.9529 26.2786C70.8852 24.9522 71.7449 23.6738 72.626 22.4719C73.5357 21.3061 74.4003 20.1998 75.2127 19.1612C76.9091 17.1399 78.4778 15.4619 79.7109 14.0507C80.3558 13.3666 80.8405 12.6693 81.301 12.1002C81.7519 11.5236 82.1375 11.0313 82.4488 10.6326C83.0728 9.83541 83.4046 9.41051 83.4046 9.41051C83.4644 9.33318 83.5729 9.32238 83.6474 9.38026C83.7191 9.43623 83.736 9.5335 83.6887 9.60951L83.6771 9.62625Z" fill="#FF98E2"/>
</g>
<g id="Group_4">
<path id="Vector_3" d="M129.813 139.165C129.813 139.165 129.582 138.673 129.15 137.753C128.726 136.83 128.065 135.49 127.303 133.756C126.531 132.024 125.578 129.933 124.553 127.513C123.535 125.085 122.283 122.443 121.163 119.228C120.59 117.618 120.147 115.885 119.707 114.234C119.488 113.398 119.254 112.6 119.017 111.778C118.74 110.963 118.482 110.141 118.165 109.307C116.843 105.918 115.398 102.216 114.031 98.4347C112.621 94.6831 111.271 90.663 109.615 87.1065C108.811 85.3898 107.724 83.7206 106.583 81.6675C106.01 80.6504 105.52 79.5961 105.035 78.5379C104.779 78.0091 104.599 77.4834 104.378 76.9534L104.06 76.1604L103.9 75.7645L103.822 75.5668L103.723 75.3019C102.37 71.2156 101.018 67.1292 99.6853 63.1069C99.3562 62.1057 99.0279 61.1092 98.7023 60.1162L98.4693 59.3672L98.4097 59.1813L98.3801 59.0869L98.365 59.0419C98.3534 59.0051 98.4258 59.1973 98.3868 59.0939L98.2503 58.7258C98.0668 58.2348 97.8846 57.7455 97.7021 57.2577C97.339 56.2808 96.9779 55.3119 96.6173 54.3491C96.2213 53.4763 95.8289 52.6101 95.4386 51.7503C95.0124 50.809 94.5879 49.8771 94.1684 48.9535C93.7105 48.0307 93.4013 47.0507 93.0571 46.1025C92.7191 45.1536 92.3846 44.2128 92.0528 43.2848L91.9914 43.1124L91.9372 42.9533L91.9111 42.8669L91.8136 42.5257L91.6168 41.8461C91.4861 41.3931 91.3563 40.9449 91.2277 40.4983C90.9848 39.5689 90.758 38.5254 90.571 37.5793C90.4268 36.6224 90.2661 35.6739 90.2134 34.7849C90.1362 33.9277 90.0631 33.0864 89.9909 32.259C89.8802 31.4782 89.8191 30.7028 89.645 29.959C89.3997 28.4691 88.9225 26.9972 88.5841 25.658C88.1505 24.2457 87.7392 22.9039 87.3533 21.6422C86.5165 19.1572 85.7879 16.9903 85.1878 15.2058C84.8684 14.31 84.6592 13.4787 84.464 12.7656C84.269 12.0511 84.1047 11.4449 83.9705 10.9516C83.7044 9.96999 83.5606 9.44629 83.5606 9.44629L83.5576 9.43515C83.5325 9.34133 83.5871 9.24644 83.6809 9.22132C83.7667 9.19815 83.8565 9.24441 83.8878 9.32685C83.8878 9.32685 84.0835 9.82876 84.4502 10.7694C84.8282 11.7055 85.3218 13.1048 86.0638 14.8373C86.8047 16.5666 87.7559 18.6605 88.7618 21.0958C89.2367 22.3225 89.7437 23.6257 90.2788 25.0017C90.7606 26.4084 91.3089 27.8643 91.6838 29.4551C92.1116 31.0287 92.3374 32.7241 92.5826 34.4436C92.6908 35.3082 92.8682 36.1703 93.0357 37.0478C93.2476 37.9147 93.4661 38.7887 93.7321 39.6724C94.032 40.544 94.3158 41.4546 94.6412 42.3298C94.9965 43.2092 95.3552 44.0982 95.7183 44.9985C96.3892 46.8236 97.3188 48.5702 98.1913 50.3975C98.6365 51.3124 99.0849 52.237 99.5373 53.1667C99.9222 54.1191 100.308 55.0777 100.697 56.0444C101.523 57.954 102.148 59.9961 102.85 61.9909C104.227 66.0118 105.627 70.0942 107.028 74.178C107.419 75.1589 107.785 76.1806 108.209 77.1584C108.646 78.1333 109.083 79.1068 109.598 80.0406C110.609 81.9119 111.768 83.738 112.66 85.6952L113.323 87.1595L113.898 88.6344C114.297 89.6071 114.636 90.6173 114.962 91.5982C115.628 93.5712 116.291 95.5221 116.938 97.4388C118.238 101.271 119.494 104.977 120.682 108.491C120.974 109.375 121.21 110.265 121.463 111.133C121.671 112.015 121.894 112.882 122.058 113.739C122.408 115.453 122.734 117.097 123.189 118.641C123.604 120.186 124.152 121.655 124.615 123.043C125.097 124.439 125.554 125.762 125.982 127.005C126.84 129.491 127.59 131.658 128.207 133.443C129.439 137.012 130.143 139.052 130.143 139.052C130.174 139.142 130.127 139.242 130.035 139.274C129.951 139.304 129.858 139.263 129.82 139.183L129.813 139.165Z" fill="#FF98E2"/>
</g>
<g id="Group_5">
<path id="Vector_4" d="M72.7343 97.0399C71.584 96.8787 70.7714 95.825 70.9137 94.668L72.6322 80.5324C72.7734 79.3615 73.8383 78.5282 75.0083 78.6692C76.1755 78.8083 77.0122 79.8761 76.868 81.0466L75.1495 95.1821C75.0083 96.3531 73.9433 97.1864 72.7733 97.0454C72.7598 97.0435 72.7478 97.0418 72.7343 97.0399ZM76.5157 65.9413C75.3654 65.78 74.5527 64.7264 74.695 63.5693L76.7564 46.606C76.8976 45.435 77.9625 44.6017 79.1325 44.7428C80.3112 44.8544 81.1364 45.9497 80.9922 47.1202L78.9308 64.0835C78.7896 65.2545 77.7247 66.0878 76.5549 65.9453C76.5412 65.9449 76.5277 65.943 76.5157 65.9413ZM80.6384 32.0147C79.4881 31.8534 78.6754 30.7997 78.8178 29.6427L80.8791 12.6794C81.0203 11.5084 82.0853 10.6751 83.2553 10.8161C84.4372 10.9589 85.2589 12.0245 85.1149 13.1935L83.0521 30.1567C82.9108 31.3276 81.8459 32.161 80.6761 32.0184C80.6654 32.0184 80.6519 32.0165 80.6384 32.0147Z" fill="#FF98E2"/>
</g>
<g id="Group_6">
<path id="Vector_5" d="M130.384 140.966C130.057 140.92 129.736 140.797 129.448 140.593L124.086 136.79C123.125 136.107 122.898 134.774 123.578 133.812C124.261 132.848 125.593 132.622 126.554 133.303L131.916 137.107C132.877 137.789 133.104 139.122 132.424 140.084C131.947 140.76 131.149 141.073 130.384 140.966ZM3.96018 122.434C3.1818 122.325 2.49272 121.786 2.22835 120.989C1.85779 119.868 2.46603 118.66 3.58547 118.289L19.7965 112.926C20.9127 112.556 22.1229 113.163 22.4934 114.283C22.8625 115.403 22.2558 116.612 21.1363 116.983L4.92524 122.346C4.60296 122.453 4.27364 122.478 3.96018 122.434ZM111.091 127.285C110.764 127.239 110.443 127.116 110.155 126.912L96.2262 117.034C95.2649 116.353 95.0375 115.018 95.7184 114.056C96.3994 113.093 97.7325 112.866 98.6938 113.547L112.623 123.425C113.584 124.106 113.812 125.441 113.131 126.403C112.654 127.078 111.857 127.392 111.091 127.285ZM36.3838 111.708C35.6054 111.599 34.9163 111.06 34.6519 110.262C34.2829 109.142 34.8896 107.934 36.0091 107.563L52.2202 102.199C53.3379 101.829 54.5465 102.437 54.9171 103.557C55.2876 104.677 54.6794 105.885 53.5599 106.256L37.3474 111.619C37.0268 111.724 36.6987 111.752 36.3838 111.708ZM83.2325 107.529C82.9056 107.483 82.5848 107.36 82.2969 107.156L72.2887 100.06L69.7712 100.891C68.6522 101.259 67.4449 100.654 67.0758 99.5339C66.7052 98.4136 67.3135 97.2056 68.4327 96.836L72.9967 95.3253L84.7643 103.671C85.7253 104.354 85.9529 105.687 85.2721 106.649C84.7953 107.323 83.9974 107.636 83.2325 107.529Z" fill="#FF98E2"/>
</g>
</g>
</svg>
