<svg width="105" height="110" viewBox="0 0 105 110" fill="none" xmlns="http://www.w3.org/2000/svg">
<g id="Group">
<g id="Group_2">
<g id="Group_3">
<g id="Group_4">
<path id="Vector" d="M0.0621104 31.8251L64.7238 31.2698L65.4153 31.2646L65.4204 31.9605L65.8283 93.7649L65.8366 94.8518L64.7248 94.86L33.3039 95.1156L25.4497 95.1546C22.8317 95.1587 20.2126 95.1947 17.5945 95.1752L1.88407 95.1177L0.540386 95.1136L0.520704 93.8008L0.286731 78.3443C0.217372 73.1918 0.104553 68.0414 0.0931656 62.8889L0 47.4283C0.0227747 42.2727 -0.0051786 37.1192 0.0621104 31.9646V31.8251ZM0.34265 32.0971C0.686341 37.1952 0.939974 42.2943 1.24019 47.3944L1.98968 62.8365C2.25884 67.9829 2.42653 73.1323 2.63874 78.2828L3.24642 93.729L1.88306 92.4142L17.5935 92.3546C20.2115 92.3361 22.8306 92.371 25.4487 92.3752L33.3029 92.4162L64.7238 92.6697L63.6192 93.7639L64.0281 31.9595L64.7238 32.6503L0.34265 32.0971Z" fill="#5E5CE6"/>
</g>
</g>
<g id="Group_5">
<g id="Group_6">
<path id="Vector_2" d="M64.6523 31.8446L86.2883 17.8928L87.2325 17.2852L87.2656 18.4203L88.1373 48.3141L88.6207 63.2604C88.6755 65.7515 88.7646 68.2426 88.7894 70.7336C88.8257 73.2257 88.8277 75.7178 88.8112 78.2099L88.807 78.9376L88.2501 79.3112C86.3929 80.5614 84.5513 81.8341 82.6796 83.0627C80.8131 84.3005 78.9487 85.5404 77.0636 86.7526L74.2374 88.5713L71.3957 90.3686C69.4796 91.5376 67.5893 92.7405 65.6482 93.8747L65.4878 93.654C67.1969 92.1976 68.9568 90.813 70.6918 89.3935L73.3244 87.3068L75.9735 85.2417C77.7395 83.8643 79.5242 82.5136 81.309 81.1628C83.0864 79.8029 84.896 78.485 86.689 77.1476L86.1279 78.2489C86.042 75.7589 85.9747 73.2657 85.9385 70.7737C85.8939 68.2816 85.9136 65.7895 85.8981 63.2974L85.9602 48.3449L85.9902 18.4378L86.9654 18.9654L64.7983 32.0745L64.6523 31.8446Z" fill="#5E5CE6"/>
</g>
</g>
<g id="Group_7">
<g id="Group_8">
<path id="Vector_3" d="M0.141479 31.8752L11.5423 23.9843L22.9545 16.1128L23.1005 16.0112L23.2972 16.0143L54.9841 16.4762C57.6239 16.5183 60.2637 16.5953 62.9025 16.7092L66.8591 16.896L70.8156 17.1074C73.4523 17.2573 76.0901 17.4287 78.7257 17.6278C80.0436 17.7253 81.3614 17.8321 82.6782 17.9542C83.995 18.0722 85.3138 18.1831 86.6296 18.3288L86.6244 18.5331C85.3004 18.6029 83.9795 18.6357 82.6575 18.6768C81.3355 18.723 80.0135 18.7527 78.6916 18.7743C76.0487 18.8194 73.4068 18.839 70.7649 18.8348L66.8032 18.8164L62.8414 18.7733C60.2006 18.7353 57.5607 18.6583 54.922 18.5475L23.262 17.1711L23.6036 17.0736L11.9357 24.5693L0.25537 32.0466L0.141479 31.8752Z" fill="#5E5CE6"/>
</g>
</g>
<g id="Group_9">
<g id="Group_10">
<g id="Group_11">
<path id="Vector_4" d="M1.86215 93.6075C1.66546 93.6075 1.46979 93.5264 1.33418 93.3653C1.09194 93.0768 1.1313 92.6458 1.4222 92.4046L3.53297 90.6669C3.8249 90.4277 4.2566 90.4688 4.49884 90.7582C4.74108 91.0456 4.70071 91.4736 4.40981 91.7138L2.30005 93.4546C2.17272 93.5572 2.01743 93.6075 1.86215 93.6075Z" fill="#5E5CE6"/>
</g>
</g>
<g id="Group_12">
<g id="Group_13">
<path id="Vector_5" d="M8.41963 88.2037C8.22293 88.2037 8.0273 88.1215 7.89169 87.9604C7.64945 87.6689 7.68982 87.2419 7.98071 87.0007L12.429 83.3365C12.7199 83.0953 13.1526 83.1384 13.3949 83.4258C13.6371 83.7142 13.5978 84.1432 13.3058 84.3834L8.85857 88.0497C8.7302 88.1554 8.57491 88.2037 8.41963 88.2037ZM17.3153 80.8731C17.1186 80.8731 16.9229 80.789 16.7873 80.6289C16.5461 80.3404 16.5854 79.9114 16.8763 79.6702L21.3236 76.006C21.6155 75.7658 22.0472 75.8058 22.2905 76.0932C22.5317 76.3837 22.4924 76.8127 22.2004 77.0519L17.7521 80.7202C17.6258 80.8229 17.4705 80.8731 17.3153 80.8731ZM78.9426 75.4014H73.1589C72.78 75.4014 72.4736 75.0966 72.4736 74.722C72.4736 74.3453 72.7811 74.0425 73.1589 74.0425H78.9426C79.3215 74.0425 79.629 74.3453 79.629 74.722C79.629 75.0966 79.3215 75.4014 78.9426 75.4014ZM67.3741 75.4014H61.5904C61.2115 75.4014 60.904 75.0966 60.904 74.722C60.904 74.3453 61.2115 74.0425 61.5904 74.0425H67.3741C67.753 74.0425 68.0605 74.3453 68.0605 74.722C68.0605 75.0966 67.753 75.4014 67.3741 75.4014ZM55.8077 75.4014H50.0229C49.645 75.4014 49.3376 75.0966 49.3376 74.722C49.3376 74.3453 49.645 74.0425 50.0229 74.0425H55.8077C56.1865 74.0425 56.494 74.3453 56.494 74.722C56.494 75.0966 56.1865 75.4014 55.8077 75.4014ZM44.2402 75.4014H38.4564C38.0775 75.4014 37.7711 75.0966 37.7711 74.722C37.7711 74.3453 38.0786 74.0425 38.4564 74.0425H44.2402C44.6191 74.0425 44.9265 74.3453 44.9265 74.722C44.9265 75.0966 44.618 75.4014 44.2402 75.4014ZM32.6727 75.4014H26.8879C26.509 75.4014 26.2026 75.0966 26.2026 74.722C26.2026 74.3453 26.51 74.0425 26.8879 74.0425H32.6727C33.0505 74.0425 33.358 74.3453 33.358 74.722C33.359 75.0966 33.0505 75.4014 32.6727 75.4014Z" fill="#5E5CE6"/>
</g>
</g>
<g id="Group_14">
<g id="Group_15">
<path id="Vector_6" d="M87.4683 75.4014H84.725C84.3451 75.4014 84.0386 75.0966 84.0386 74.722C84.0386 74.3453 84.3461 74.0425 84.725 74.0425H87.4683C87.8472 74.0425 88.1547 74.3453 88.1547 74.722C88.1547 75.0966 87.8482 75.4014 87.4683 75.4014Z" fill="#5E5CE6"/>
</g>
</g>
</g>
<g id="Group_16">
<g id="Group_17">
<g id="Group_18">
<path id="Vector_7" d="M23.2789 19.9926C22.9 19.9926 22.5936 19.6877 22.5936 19.3121V16.5921C22.5936 16.2165 22.9011 15.9116 23.2789 15.9116C23.6578 15.9116 23.9642 16.2165 23.9642 16.5921V19.3121C23.9653 19.6877 23.6578 19.9926 23.2789 19.9926Z" fill="#5E5CE6"/>
</g>
</g>
<g id="Group_19">
<g id="Group_20">
<path id="Vector_8" d="M23.2788 66.8272C22.8999 66.8272 22.5935 66.5223 22.5935 66.1467V60.2931C22.5935 59.9175 22.901 59.6126 23.2788 59.6126C23.6577 59.6126 23.9641 59.9175 23.9641 60.2931V66.1467C23.9651 66.5223 23.6577 66.8272 23.2788 66.8272ZM23.2788 55.1191C22.8999 55.1191 22.5935 54.8142 22.5935 54.4386V48.584C22.5935 48.2084 22.901 47.9046 23.2788 47.9046C23.6577 47.9046 23.9641 48.2084 23.9641 48.584V54.4386C23.9651 54.8142 23.6577 55.1191 23.2788 55.1191ZM23.2788 43.41C22.8999 43.41 22.5935 43.1051 22.5935 42.7305V36.8759C22.5935 36.5003 22.901 36.1965 23.2788 36.1965C23.6577 36.1965 23.9641 36.5013 23.9641 36.8759V42.7305C23.9651 43.1051 23.6577 43.41 23.2788 43.41ZM23.2788 31.7009C22.8999 31.7009 22.5935 31.396 22.5935 31.0204V25.1658C22.5935 24.7912 22.901 24.4863 23.2788 24.4863C23.6577 24.4863 23.9641 24.7912 23.9641 25.1658V31.0204C23.9651 31.396 23.6577 31.7009 23.2788 31.7009Z" fill="#5E5CE6"/>
</g>
</g>
<g id="Group_21">
<g id="Group_22">
<path id="Vector_9" d="M23.2788 75.4017C22.8999 75.4017 22.5935 75.0969 22.5935 74.7222V72.0023C22.5935 71.6256 22.901 71.3218 23.2788 71.3218C23.6577 71.3218 23.9641 71.6256 23.9641 72.0023V74.7222C23.9651 75.0969 23.6577 75.4017 23.2788 75.4017Z" fill="#5E5CE6"/>
</g>
</g>
</g>
</g>
<g id="Group_23">
<g id="Group_24">
<path id="Vector_10" d="M61.2807 0.00275103C61.8863 -0.020856 62.4371 0.107443 62.9309 0.388675C64.0686 1.0507 64.6555 2.7853 64.6928 5.59249C64.7052 6.61067 64.7363 7.18032 64.786 7.30246C64.8481 7.45026 64.8719 7.62168 64.8595 7.81773C64.8481 8.01377 64.7974 8.18004 64.7114 8.31449C64.5882 8.4859 64.3284 8.66346 63.9319 8.84719C63.5365 9.03194 63.1162 9.16025 62.671 9.23312C62.0892 9.33166 61.496 9.39221 60.8904 9.41786C60.2838 9.44147 59.8325 9.41787 59.5364 9.34397C59.1171 9.24647 58.7921 9.12638 58.5633 8.98576C58.3335 8.84515 58.1078 8.62652 57.8862 8.33297C57.5891 7.94089 57.3976 7.64632 57.3117 7.45027C57.2247 7.25423 57.1689 6.99661 57.144 6.67843C57.0819 6.10159 57.2092 5.54528 57.5239 5.0054C57.8397 4.46654 58.2745 4.06112 58.8314 3.7922C59.5115 3.46068 60.4318 3.29543 61.5944 3.29543H62.3915L62.318 3.01932C62.2559 2.82328 62.1689 2.62724 62.0582 2.4312C61.995 2.32035 61.9277 2.2444 61.8542 2.20129C61.7797 2.15818 61.6689 2.13046 61.5199 2.11815C60.9764 2.06991 60.4256 2.25363 59.8697 2.67035C59.3625 3.05012 58.8863 3.10554 58.4411 2.8356C58.2807 2.73809 58.1595 2.58824 58.0798 2.38604C58.0001 2.18281 57.9774 1.97856 58.0146 1.7702C58.0767 1.47665 58.3697 1.16052 58.8956 0.822836C59.4215 0.486179 60.0105 0.243949 60.6668 0.0961486C60.8656 0.0458553 61.0695 0.0150678 61.2807 0.00275103ZM61.4288 5.33487C60.5633 5.37182 59.9577 5.50628 59.612 5.73927C59.1544 6.03384 59.0674 6.40129 59.3521 6.84264C59.4753 7.051 59.5933 7.19162 59.7041 7.26552C59.7786 7.31478 60.1968 7.33018 60.9567 7.3117C61.7165 7.29323 62.1969 7.26038 62.3936 7.21009C62.4681 7.18546 62.5137 7.14544 62.5323 7.09001C62.5509 7.03561 62.5665 6.88576 62.5789 6.64045C62.5903 6.49367 62.5965 6.37666 62.5965 6.29044V5.42622L62.0778 5.35232C61.8925 5.34103 61.6762 5.33487 61.4288 5.33487Z" fill="#5E5CE6"/>
</g>
</g>
<g id="Group_25">
<g id="Group_26">
<path id="Vector_11" d="M101.418 45.5899C102.024 45.5653 102.573 45.6936 103.068 45.9748C104.206 46.6368 104.793 48.3724 104.83 51.1776C104.842 52.1958 104.872 52.7664 104.922 52.8896C104.984 53.0354 105.009 53.2078 104.997 53.4038C104.983 53.5999 104.934 53.7651 104.848 53.9006C104.723 54.071 104.465 54.2496 104.069 54.4333C103.674 54.6181 103.253 54.7464 102.808 54.8203C102.226 54.9188 101.634 54.9793 101.029 55.004C100.422 55.0286 99.9707 55.004 99.6746 54.9301C99.2543 54.8315 98.9293 54.7114 98.7015 54.5719C98.4717 54.4312 98.2471 54.2137 98.0245 53.9201C97.7274 53.528 97.5359 53.2334 97.4499 53.0374C97.364 52.8414 97.3081 52.5837 97.2833 52.2645C97.2201 51.6887 97.3475 51.1304 97.6632 50.5915C97.9779 50.0516 98.4148 49.6472 98.9707 49.3773C99.6508 49.0468 100.572 48.8815 101.735 48.8815H102.532L102.458 48.6054C102.396 48.4094 102.31 48.2134 102.198 48.0173C102.135 47.9075 102.069 47.8305 101.994 47.7884C101.919 47.7453 101.809 47.7176 101.66 47.7053C101.117 47.6571 100.567 47.8408 100.01 48.2575C99.5028 48.6373 99.0266 48.6927 98.5825 48.4227C98.421 48.3252 98.3009 48.1743 98.2191 47.9732C98.1394 47.771 98.1177 47.5657 98.1549 47.3563C98.217 47.0617 98.51 46.7477 99.0359 46.41C99.5628 46.0723 100.152 45.8301 100.807 45.6843C101.004 45.634 101.208 45.6022 101.418 45.5899ZM101.566 50.922C100.701 50.959 100.096 51.0924 99.7492 51.3254C99.2916 51.62 99.2057 51.9874 99.4893 52.4298C99.6125 52.6371 99.7305 52.7788 99.8413 52.8516C99.9158 52.9009 100.333 52.9163 101.093 52.8978C101.854 52.8793 102.332 52.8455 102.53 52.7952C102.604 52.7705 102.651 52.7315 102.67 52.6771C102.688 52.6217 102.704 52.4708 102.716 52.2255C102.729 52.0788 102.735 51.9628 102.735 51.8766V51.0134L102.215 50.9384C102.03 50.9282 101.813 50.922 101.566 50.922Z" fill="#5E5CE6"/>
</g>
</g>
<g id="Group_27">
<g id="Group_28">
<path id="Vector_12" d="M40.3614 100.576C40.967 100.553 41.5167 100.679 42.0115 100.965C43.1492 101.624 43.7362 103.358 43.7735 106.165C43.7869 107.183 43.817 107.754 43.8656 107.878C43.9277 108.022 43.9526 108.194 43.9402 108.392C43.9277 108.588 43.878 108.753 43.7921 108.888C43.6689 109.061 43.4091 109.234 43.0137 109.421C42.6172 109.603 42.1969 109.733 41.7527 109.807C41.171 109.905 40.5778 109.964 39.9722 109.991C39.3655 110.015 38.9152 109.991 38.6181 109.917C38.1989 109.82 37.8738 109.699 37.645 109.56C37.4162 109.417 37.1906 109.201 36.968 108.905C36.6709 108.513 36.4794 108.222 36.3934 108.022C36.3065 107.826 36.2506 107.571 36.2257 107.25C36.1647 106.676 36.291 106.117 36.6067 105.576C36.9214 105.037 37.3572 104.633 37.9131 104.364C38.5933 104.035 39.5146 103.868 40.6772 103.868H41.4743L41.4008 103.59C41.3397 103.396 41.2527 103.2 41.1409 103C41.0788 102.89 41.0105 102.814 40.936 102.772C40.8614 102.731 40.7507 102.703 40.6026 102.69C40.0581 102.643 39.5074 102.827 38.9515 103.241C38.4442 103.622 37.969 103.677 37.5239 103.409C37.3634 103.309 37.2423 103.159 37.1616 102.959C37.0808 102.757 37.0591 102.551 37.0964 102.342C37.1585 102.048 37.4514 101.734 37.9773 101.395C38.5032 101.06 39.0933 100.815 39.7486 100.669C39.9463 100.62 40.1502 100.588 40.3614 100.576ZM40.5095 105.907C39.643 105.944 39.0374 106.081 38.6916 106.313C38.234 106.606 38.1471 106.973 38.4318 107.415C38.555 107.624 38.673 107.766 38.7838 107.838C38.8573 107.889 39.2755 107.901 40.0353 107.885C40.7952 107.865 41.2734 107.831 41.4722 107.782C41.5478 107.76 41.5933 107.72 41.6109 107.664C41.6296 107.609 41.6461 107.457 41.6575 107.214C41.671 107.065 41.6762 106.949 41.6762 106.862V106L41.1565 105.926C40.9722 105.915 40.7569 105.907 40.5095 105.907Z" fill="#5E5CE6"/>
</g>
</g>
</g>
</svg>
