<svg width="32" height="32" viewBox="0 0 32 32" fill="none" xmlns="http://www.w3.org/2000/svg">
<rect x="0.333333" y="0.333333" width="31.3333" height="31.3333" rx="7.66667" fill="white"/>
<line opacity="0.4" x1="5.90625" y1="26.2187" x2="26.0938" y2="26.2188" stroke="#CACACA" stroke-width="0.1875"/>
<line opacity="0.6" x1="5.90637" y1="22.7812" x2="26.0939" y2="22.7812" stroke="#CACACA" stroke-width="0.1875"/>
<line opacity="0.8" x1="5.90643" y1="19.3437" x2="26.094" y2="19.3438" stroke="#CACACA" stroke-width="0.1875"/>
<line x1="5.90656" y1="15.9062" x2="26.0941" y2="15.9062" stroke="#CACACA" stroke-width="0.1875"/>
<line opacity="0.8" x1="5.90656" y1="12.4687" x2="26.0941" y2="12.4688" stroke="#CACACA" stroke-width="0.1875"/>
<line opacity="0.6" x1="5.90625" y1="9.03125" x2="26.0938" y2="9.03125" stroke="#CACACA" stroke-width="0.1875"/>
<line opacity="0.4" x1="5.90625" y1="5.59375" x2="26.0938" y2="5.59375" stroke="#CACACA" stroke-width="0.1875"/>
<g clip-path="url(#clip0_1301_62740)">
<path d="M8.49762 16.1326C10.3081 15.9103 11.2429 15.0487 11.0937 13.8334C10.9973 13.048 10.3825 12.62 9.41855 12.6292L9.41449 12.5962C10.0348 12.3857 10.5712 11.8331 10.4737 11.0395C10.3296 9.86553 9.10722 9.47854 7.70179 9.6511C6.67665 9.77698 5.7861 10.2472 5.54808 10.9058C5.48368 11.0647 5.46989 11.2259 5.49121 11.3995C5.54603 11.8459 5.89875 12.1215 6.42786 12.0565C6.75855 12.0159 6.90243 11.8892 7.09403 11.6726C7.38919 11.3427 7.63736 11.2451 7.89364 11.2136C8.19126 11.1771 8.48235 11.2924 8.51991 11.5983C8.55747 11.9042 8.32569 12.0669 7.8327 12.1526C7.3387 12.23 7.09126 12.4702 7.15013 12.9497C7.20596 13.4044 7.49691 13.5869 8.00425 13.5498C8.52813 13.5106 8.80066 13.6114 8.84649 13.9163C8.881 14.1974 8.63878 14.4117 8.29156 14.4544C7.82859 14.5112 7.46136 14.2542 7.20232 14.1266C7.03205 14.0384 6.84625 13.9605 6.56517 13.995C6.01126 14.063 5.67781 14.4228 5.74176 14.9437C5.76511 15.1338 5.84429 15.3003 5.97207 15.4525C6.4079 15.9948 7.38981 16.2686 8.49762 16.1326ZM11.7731 24.9028C13.1951 24.7282 13.9168 23.9766 14.1127 22.7693L15.9545 11.5246L16.9217 11.4058C17.7237 11.3074 18.1568 10.7339 18.0573 9.92372C17.9588 9.12179 17.3998 8.67013 16.5979 8.76859L15.2338 8.93608C13.9276 9.09647 13.3218 9.76668 13.11 11.1857L11.5027 21.9485L11.3539 21.9667L9.68006 18.7232C9.33953 18.0685 8.88469 17.7131 8.10757 17.8085C7.27258 17.9111 6.75681 18.4947 6.8502 19.2553C6.88674 19.5529 6.97405 19.7855 7.15723 20.1155L8.96941 23.3924C9.58479 24.5085 10.3842 25.0733 11.7731 24.9028Z" fill="#373737"/>
<path d="M19.7156 20.6828C20.3356 20.6066 20.6182 20.3789 21.052 19.4697L22.1075 17.2673L22.1736 17.2592L23.8244 19.2216C24.3149 19.7991 24.6346 20.0788 25.3373 19.9925C26.255 19.8798 26.8886 19.2314 26.7719 18.2806C26.7252 17.9003 26.5606 17.5849 26.2534 17.2701L24.2846 15.2461L25.6284 12.9999C25.9498 12.4737 26.0415 12.1268 25.9877 11.6886C25.8801 10.8123 25.1993 10.3252 24.2486 10.442C23.5954 10.5221 23.2755 10.8551 22.8914 11.6911L21.9519 13.745L21.8858 13.7531L20.4774 11.9875C19.8829 11.2465 19.4866 11.0266 18.7508 11.117C17.8332 11.2297 17.2252 11.9505 17.3307 12.8103C17.3815 13.2236 17.5378 13.5401 17.8264 13.8404L19.7953 15.8644L18.3892 18.219C18.0761 18.7441 17.9824 19.0745 18.0362 19.5127C18.1357 20.3229 18.8227 20.7924 19.7156 20.6828Z" fill="#5E5CE6"/>
</g>
<rect x="0.333333" y="0.333333" width="31.3333" height="31.3333" rx="7.66667" stroke="#CAC6DD" stroke-width="0.666667"/>
<defs>
<clipPath id="clip0_1301_62740">
<rect width="22.375" height="17.0938" fill="white" transform="translate(4.8125 8.40625)"/>
</clipPath>
</defs>
</svg>
